<svg id="sbsvgSvg1515" xmlns="http://www.w3.org/2000/svg" version="1.1" width="800.1719401704155" height="494" xmlns:xlink="http://www.w3.org/1999/xlink" style="display: block; background-color: rgb(255, 255, 255);" viewBox="0 0 687.9788811093285 424.7356726800827"><defs></defs><g id="sbsvgG1517" data-name="container" transform="scale(1) translate(144.18742588588177 221.36783634004135)"><g id="sbsvgG1519" data-name="sheet"><g id="sbsvgG1520" data-name="matrix-container"></g><g id="sbsvgG1521" data-name="tree-map-cell-container"></g><g id="sbsvgG1522" data-name="connection-container"><g id="sbsvgG1778" data-id="9d8a57ff660803f3035d7b6e36"><path id="sbsvgPath1547" data-name="connection" stroke-linecap="" stroke-dasharray="" d="M 114.12406921386719 0L 114.12406921386719 0L 114.12406921386719 -106Q 114.12406921386719 -114 122.12406921386719 -114L 152.1240692138672 -114" stroke="#262626" stroke-width="3" fill="none"></path><path id="sbsvgPath1556" data-name="connection" stroke-linecap="" stroke-dasharray="" d="M 305.9260838826497 -114L 305.9260838826497 -114L 305.9260838826497 -149Q 305.9260838826497 -157 313.9260838826497 -157L 319.9260838826498 -157" stroke="#262626" stroke-width="3" fill="none"></path><path id="sbsvgPath1575" data-name="connection" stroke-linecap="" stroke-dasharray="" d="M 305.9260838826497 -114L 305.9260838826497 -114L 305.9260838826497 -114Q 305.9260838826497 -114 313.9260838826497 -114L 319.9260838826498 -114" stroke="#262626" stroke-width="3" fill="none"></path><path id="sbsvgPath1594" data-name="connection" stroke-linecap="" stroke-dasharray="" d="M 292.9260838826497 -114L 305.9260838826497 -114L 305.9260838826497 -79Q 305.9260838826497 -71 313.9260838826497 -71L 319.9260838826498 -71" stroke="#262626" stroke-width="3" fill="none"></path><path id="sbsvgPath1623" data-name="connection" stroke-linecap="" stroke-dasharray="" d="M 114.12406921386719 0L 114.12406921386719 0L 114.12406921386719 0Q 114.12406921386719 0 122.12406921386719 0L 152.1240692138672 0" stroke="#262626" stroke-width="3" fill="none"></path><path id="sbsvgPath1632" data-name="connection" stroke-linecap="" stroke-dasharray="" d="M 332.9260838826496 0L 345.9260838826496 0L 345.9260838826496 0Q 345.9260838826496 0 353.9260838826496 0L 359.92608388264966 0" stroke="#262626" stroke-width="3" fill="none"></path><path id="sbsvgPath1661" data-name="connection" stroke-linecap="" stroke-dasharray="" d="M 101.12406921386719 0L 114.12406921386719 0L 114.12406921386719 97Q 114.12406921386719 105 122.12406921386719 105L 152.1240692138672 105" stroke="#262626" stroke-width="3" fill="none"></path><path id="sbsvgPath1670" data-name="connection" stroke-linecap="" stroke-dasharray="" d="M 304.1240692138672 105L 304.1240692138672 105L 304.1240692138672 76Q 304.1240692138672 68 312.1240692138672 68L 318.1240692138672 68" stroke="#262626" stroke-width="3" fill="none"></path><path id="sbsvgPath1689" data-name="connection" stroke-linecap="" stroke-dasharray="" d="M 304.1240692138672 105L 304.1240692138672 105L 304.1240692138672 105Q 304.1240692138672 105 312.1240692138672 105L 318.1240692138672 105" stroke="#262626" stroke-width="3" fill="none"></path><path id="sbsvgPath1708" data-name="connection" stroke-linecap="" stroke-dasharray="" d="M 291.1240692138672 105L 304.1240692138672 105L 304.1240692138672 134Q 304.1240692138672 142 312.1240692138672 142L 318.1240692138672 142" stroke="#262626" stroke-width="3" fill="none"></path></g></g><g id="sbsvgG1523" data-name="boundary-container"></g><g id="sbsvgG1524" data-name="branch-container"><g id="sbsvgG1530" data-name="branch" class="branch"><g id="sbsvgG1531" data-name="topic" class="topic" data-topic-id="9d8a57ff660803f3035d7b6e36"><g id="sbsvgG1532" data-name="topic-shape-group"><path id="sbsvgPath1533" data-name="topic-shape-shallow-fill" d="M -91.62406921386719 -32.5L 93.12406921386719 -32.5Q 101.12406921386719 -32.5  101.12406921386719 -24.5L 101.12406921386719 26Q 101.12406921386719 34  93.12406921386719 34L -91.62406921386719 34Q -99.62406921386719 34  -99.62406921386719 26L -99.62406921386719 -24.5Q -99.62406921386719 -32.5  -91.62406921386719 -32.5Z" fill="white" opacity="0"></path><path id="sbsvgPath1534" data-name="topic-shape-fill" fill="#e6e6e6" opacity="1" stroke-width="0" d="M -91.62406921386719 -32.5L 93.12406921386719 -32.5Q 101.12406921386719 -32.5  101.12406921386719 -24.5L 101.12406921386719 26Q 101.12406921386719 34  93.12406921386719 34L -91.62406921386719 34Q -99.62406921386719 34  -99.62406921386719 26L -99.62406921386719 -24.5Q -99.62406921386719 -32.5  -91.62406921386719 -32.5Z"></path><path id="sbsvgPath1535" data-name="topic-shape" fill="none" stroke="#262626" stroke-width="3" stroke-linecap="" stroke-dasharray="" d="M -91.62406921386719 -32.5L 93.12406921386719 -32.5Q 101.12406921386719 -32.5  101.12406921386719 -24.5L 101.12406921386719 26Q 101.12406921386719 34  93.12406921386719 34L -91.62406921386719 34Q -99.62406921386719 34  -99.62406921386719 26L -99.62406921386719 -24.5Q -99.62406921386719 -32.5  -91.62406921386719 -32.5Z"></path><g id="sbsvgG1536" data-name="topic-content" transform="translate(-69.12406921386719 -16)"><g id="sbsvgG1537" data-name="inner-element-group"><g id="sbsvgG1730" data-name="topic-title-text-group" fill="#262626" text-decoration="none" text-anchor="middle" font-size="24" font-family="'Droid Serif','Montserrat','NeverMind','Microsoft YaHei','PingFang SC','Microsoft JhengHei',sans-serif" font-weight="400" font-style="normal"><text id="sbsvgText1729" font-family="'Droid Serif','Montserrat','NeverMind','Microsoft YaHei','PingFang SC','Microsoft JhengHei',sans-serif" fill="#262626" text-decoration="none" text-anchor="middle" font-size="24" font-weight="400" font-style="normal" transform="translate(69.12406921386719 0)" style="user-select: none; cursor: default;"><tspan id="sbsvgTspan1789" font-family="'Droid Serif','Montserrat','NeverMind','Microsoft YaHei','PingFang SC','Microsoft JhengHei',sans-serif" font-size="24" font-weight="400" font-style="normal" text-decoration="none" dy="24" x="0" fill="#262626" text-anchor="middle" style="white-space: pre;">‎ </tspan></text></g><g id="sbsvgG1731" data="markers-group" class="MARKERS"></g></g></g></g></g></g><g id="sbsvgG1539" data-name="branch" class="branch" transform="translate(222.02507654825845 -114)"><rect id="sbsvgRect1751" width="22" height="37" data-name="collapse-extend-hover-area" opacity="0" x="74.90100733439127" y="-18.5"></rect><g id="sbsvgG1540" data-name="topic" class="topic" data-topic-id="c69bea4a441ae054e3adb84471"><g id="sbsvgG1541" data-name="topic-shape-group"><path id="sbsvgPath1542" data-name="topic-shape-shallow-fill" d="M -58.90100733439127 -14.5L 62.90100733439127 -14.5Q 70.90100733439127 -14.5  70.90100733439127 -6.5L 70.90100733439127 10.5Q 70.90100733439127 18.5  62.90100733439127 18.5L -58.90100733439127 18.5Q -66.90100733439127 18.5  -66.90100733439127 10.5L -66.90100733439127 -6.5Q -66.90100733439127 -14.5  -58.90100733439127 -14.5Z" fill="white" opacity="0"></path><path id="sbsvgPath1543" data-name="topic-shape-fill" fill="#e6e6e6" opacity="1" stroke-width="0" d="M -58.90100733439127 -14.5L 62.90100733439127 -14.5Q 70.90100733439127 -14.5  70.90100733439127 -6.5L 70.90100733439127 10.5Q 70.90100733439127 18.5  62.90100733439127 18.5L -58.90100733439127 18.5Q -66.90100733439127 18.5  -66.90100733439127 10.5L -66.90100733439127 -6.5Q -66.90100733439127 -14.5  -58.90100733439127 -14.5Z"></path><path id="sbsvgPath1544" data-name="topic-shape" fill="none" stroke="#ffffff" stroke-width="8" stroke-linecap="" stroke-dasharray="" d="M -58.90100733439127 -14.5L 62.90100733439127 -14.5Q 70.90100733439127 -14.5  70.90100733439127 -6.5L 70.90100733439127 10.5Q 70.90100733439127 18.5  62.90100733439127 18.5L -58.90100733439127 18.5Q -66.90100733439127 18.5  -66.90100733439127 10.5L -66.90100733439127 -6.5Q -66.90100733439127 -14.5  -58.90100733439127 -14.5Z"></path><g id="sbsvgG1545" data-name="topic-content" transform="translate(-44.90100733439127 -0.5)"><g id="sbsvgG1546" data-name="inner-element-group"><g id="sbsvgG1606" data-name="topic-title-text-group" fill="#333333" text-decoration="none" text-anchor="start" font-size="1" font-family="'Droid Serif','NeverMind','Microsoft YaHei','PingFang SC','Microsoft JhengHei',sans-serif" font-weight="400" font-style="normal"><text id="sbsvgText1605" font-family="'Droid Serif','NeverMind','Microsoft YaHei','PingFang SC','Microsoft JhengHei',sans-serif" fill="#333333" text-decoration="none" text-anchor="start" font-size="1" font-weight="400" font-style="normal" style="user-select: none; cursor: default;"><tspan id="sbsvgTspan1782" font-family="'Droid Serif','NeverMind','Microsoft YaHei','PingFang SC','Microsoft JhengHei',sans-serif" font-size="1" font-weight="400" font-style="normal" text-decoration="none" dy="1" x="0" fill="#333333" text-anchor="start" style="white-space: pre;">‎          </tspan></text></g><g id="sbsvgG1607" data="markers-group" class="MARKERS"></g></g></g></g></g></g><g id="sbsvgG1548" data-name="branch" class="branch" transform="translate(389.827091217041 -157)"><g id="sbsvgG1549" data-name="topic" class="topic" data-topic-id="d83bdf7998590b9463bb69e38c"><g id="sbsvgG1550" data-name="topic-shape-group"><path id="sbsvgPath1551" data-name="topic-shape-shallow-fill" d="M -58.90100733439127 -10.5L 62.90100733439127 -10.5Q 70.90100733439127 -10.5  70.90100733439127 -2.5L 70.90100733439127 6.5Q 70.90100733439127 14.5  62.90100733439127 14.5L -58.90100733439127 14.5Q -66.90100733439127 14.5  -66.90100733439127 6.5L -66.90100733439127 -2.5Q -66.90100733439127 -10.5  -58.90100733439127 -10.5Z" fill="white" opacity="0"></path><path id="sbsvgPath1552" data-name="topic-shape-fill" fill="#e6e6e6" opacity="1" stroke-width="0" d="M -58.90100733439127 -10.5L 62.90100733439127 -10.5Q 70.90100733439127 -10.5  70.90100733439127 -2.5L 70.90100733439127 6.5Q 70.90100733439127 14.5  62.90100733439127 14.5L -58.90100733439127 14.5Q -66.90100733439127 14.5  -66.90100733439127 6.5L -66.90100733439127 -2.5Q -66.90100733439127 -10.5  -58.90100733439127 -10.5Z"></path><path id="sbsvgPath1553" data-name="topic-shape" fill="none" stroke="#ffffff" stroke-width="8" stroke-linecap="" stroke-dasharray="" d="M -58.90100733439127 -10.5L 62.90100733439127 -10.5Q 70.90100733439127 -10.5  70.90100733439127 -2.5L 70.90100733439127 6.5Q 70.90100733439127 14.5  62.90100733439127 14.5L -58.90100733439127 14.5Q -66.90100733439127 14.5  -66.90100733439127 6.5L -66.90100733439127 -2.5Q -66.90100733439127 -10.5  -58.90100733439127 -10.5Z"></path><g id="sbsvgG1554" data-name="topic-content" transform="translate(-56.90100733439127 -0.5)"><g id="sbsvgG1555" data-name="inner-element-group"><g id="sbsvgG1558" data-name="topic-title-text-group" fill="#333333" text-decoration="none" text-anchor="start" font-size="1" font-family="'Droid Serif','NeverMind','Microsoft YaHei','PingFang SC','Microsoft JhengHei',sans-serif" font-weight="400" font-style="normal"><text id="sbsvgText1557" font-family="'Droid Serif','NeverMind','Microsoft YaHei','PingFang SC','Microsoft JhengHei',sans-serif" fill="#333333" text-decoration="none" text-anchor="start" font-size="1" font-weight="400" font-style="normal" style="user-select: none; cursor: default;"><tspan id="sbsvgTspan1779" font-family="'Droid Serif','NeverMind','Microsoft YaHei','PingFang SC','Microsoft JhengHei',sans-serif" font-size="1" font-weight="400" font-style="normal" text-decoration="none" dy="1" x="0" fill="#333333" text-anchor="start" style="white-space: pre;">‎        </tspan></text></g><g id="sbsvgG1559" data="markers-group" class="MARKERS"></g></g></g></g></g></g><g id="sbsvgG1567" data-name="branch" class="branch" transform="translate(369.827091217041 -114)"><g id="sbsvgG1568" data-name="topic" class="topic" data-topic-id="a659c6a88cfb80423a5e59e0fb"><g id="sbsvgG1569" data-name="topic-shape-group"><path id="sbsvgPath1570" data-name="topic-shape-shallow-fill" d="M -38.90100733439126 -10.5L 42.90100733439126 -10.5Q 50.90100733439126 -10.5  50.90100733439126 -2.5L 50.90100733439126 6.5Q 50.90100733439126 14.5  42.90100733439126 14.5L -38.90100733439126 14.5Q -46.90100733439126 14.5  -46.90100733439126 6.5L -46.90100733439126 -2.5Q -46.90100733439126 -10.5  -38.90100733439126 -10.5Z" fill="white" opacity="0"></path><path id="sbsvgPath1571" data-name="topic-shape-fill" fill="#e6e6e6" opacity="1" stroke-width="0" d="M -38.90100733439126 -10.5L 42.90100733439126 -10.5Q 50.90100733439126 -10.5  50.90100733439126 -2.5L 50.90100733439126 6.5Q 50.90100733439126 14.5  42.90100733439126 14.5L -38.90100733439126 14.5Q -46.90100733439126 14.5  -46.90100733439126 6.5L -46.90100733439126 -2.5Q -46.90100733439126 -10.5  -38.90100733439126 -10.5Z"></path><path id="sbsvgPath1572" data-name="topic-shape" fill="none" stroke="#ffffff" stroke-width="8" stroke-linecap="" stroke-dasharray="" d="M -38.90100733439126 -10.5L 42.90100733439126 -10.5Q 50.90100733439126 -10.5  50.90100733439126 -2.5L 50.90100733439126 6.5Q 50.90100733439126 14.5  42.90100733439126 14.5L -38.90100733439126 14.5Q -46.90100733439126 14.5  -46.90100733439126 6.5L -46.90100733439126 -2.5Q -46.90100733439126 -10.5  -38.90100733439126 -10.5Z"></path><g id="sbsvgG1573" data-name="topic-content" transform="translate(-36.90100733439126 -0.5)"><g id="sbsvgG1574" data-name="inner-element-group"><g id="sbsvgG1577" data-name="topic-title-text-group" fill="#333333" text-decoration="none" text-anchor="start" font-size="1" font-family="'Droid Serif','NeverMind','Microsoft YaHei','PingFang SC','Microsoft JhengHei',sans-serif" font-weight="400" font-style="normal"><text id="sbsvgText1576" font-family="'Droid Serif','NeverMind','Microsoft YaHei','PingFang SC','Microsoft JhengHei',sans-serif" fill="#333333" text-decoration="none" text-anchor="start" font-size="1" font-weight="400" font-style="normal" style="user-select: none; cursor: default;"><tspan id="sbsvgTspan1780" font-family="'Droid Serif','NeverMind','Microsoft YaHei','PingFang SC','Microsoft JhengHei',sans-serif" font-size="1" font-weight="400" font-style="normal" text-decoration="none" dy="1" x="0" fill="#333333" text-anchor="start" style="white-space: pre;">‎        </tspan></text></g><g id="sbsvgG1578" data="markers-group" class="MARKERS"></g></g></g></g></g></g><g id="sbsvgG1586" data-name="branch" class="branch" transform="translate(389.827091217041 -71)"><g id="sbsvgG1587" data-name="topic" class="topic" data-topic-id="c7a8822cd30839926d8068a16d"><g id="sbsvgG1588" data-name="topic-shape-group"><path id="sbsvgPath1589" data-name="topic-shape-shallow-fill" d="M -58.90100733439127 -10.5L 62.90100733439127 -10.5Q 70.90100733439127 -10.5  70.90100733439127 -2.5L 70.90100733439127 6.5Q 70.90100733439127 14.5  62.90100733439127 14.5L -58.90100733439127 14.5Q -66.90100733439127 14.5  -66.90100733439127 6.5L -66.90100733439127 -2.5Q -66.90100733439127 -10.5  -58.90100733439127 -10.5Z" fill="white" opacity="0"></path><path id="sbsvgPath1590" data-name="topic-shape-fill" fill="#e6e6e6" opacity="1" stroke-width="0" d="M -58.90100733439127 -10.5L 62.90100733439127 -10.5Q 70.90100733439127 -10.5  70.90100733439127 -2.5L 70.90100733439127 6.5Q 70.90100733439127 14.5  62.90100733439127 14.5L -58.90100733439127 14.5Q -66.90100733439127 14.5  -66.90100733439127 6.5L -66.90100733439127 -2.5Q -66.90100733439127 -10.5  -58.90100733439127 -10.5Z"></path><path id="sbsvgPath1591" data-name="topic-shape" fill="none" stroke="#ffffff" stroke-width="8" stroke-linecap="" stroke-dasharray="" d="M -58.90100733439127 -10.5L 62.90100733439127 -10.5Q 70.90100733439127 -10.5  70.90100733439127 -2.5L 70.90100733439127 6.5Q 70.90100733439127 14.5  62.90100733439127 14.5L -58.90100733439127 14.5Q -66.90100733439127 14.5  -66.90100733439127 6.5L -66.90100733439127 -2.5Q -66.90100733439127 -10.5  -58.90100733439127 -10.5Z"></path><g id="sbsvgG1592" data-name="topic-content" transform="translate(-56.90100733439127 -0.5)"><g id="sbsvgG1593" data-name="inner-element-group"><g id="sbsvgG1596" data-name="topic-title-text-group" fill="#333333" text-decoration="none" text-anchor="start" font-size="1" font-family="'Droid Serif','NeverMind','Microsoft YaHei','PingFang SC','Microsoft JhengHei',sans-serif" font-weight="400" font-style="normal"><text id="sbsvgText1595" font-family="'Droid Serif','NeverMind','Microsoft YaHei','PingFang SC','Microsoft JhengHei',sans-serif" fill="#333333" text-decoration="none" text-anchor="start" font-size="1" font-weight="400" font-style="normal" style="user-select: none; cursor: default;"><tspan id="sbsvgTspan1781" font-family="'Droid Serif','NeverMind','Microsoft YaHei','PingFang SC','Microsoft JhengHei',sans-serif" font-size="1" font-weight="400" font-style="normal" text-decoration="none" dy="1" x="0" fill="#333333" text-anchor="start" style="white-space: pre;">‎        </tspan></text></g><g id="sbsvgG1597" data="markers-group" class="MARKERS"></g></g></g></g></g></g><g id="sbsvgG1615" data-name="branch" class="branch" transform="translate(242.0250765482584 0)"><rect id="sbsvgRect1764" width="22" height="37" data-name="collapse-extend-hover-area" opacity="0" x="94.90100733439121" y="-18.5"></rect><g id="sbsvgG1616" data-name="topic" class="topic" data-topic-id="32b80ddcb2bb278c81aaa9842b"><g id="sbsvgG1617" data-name="topic-shape-group"><path id="sbsvgPath1618" data-name="topic-shape-shallow-fill" d="M -78.90100733439121 -14.5L 82.90100733439121 -14.5Q 90.90100733439121 -14.5  90.90100733439121 -6.5L 90.90100733439121 10.5Q 90.90100733439121 18.5  82.90100733439121 18.5L -78.90100733439121 18.5Q -86.90100733439121 18.5  -86.90100733439121 10.5L -86.90100733439121 -6.5Q -86.90100733439121 -14.5  -78.90100733439121 -14.5Z" fill="white" opacity="0"></path><path id="sbsvgPath1619" data-name="topic-shape-fill" fill="#e6e6e6" opacity="1" stroke-width="0" d="M -78.90100733439121 -14.5L 82.90100733439121 -14.5Q 90.90100733439121 -14.5  90.90100733439121 -6.5L 90.90100733439121 10.5Q 90.90100733439121 18.5  82.90100733439121 18.5L -78.90100733439121 18.5Q -86.90100733439121 18.5  -86.90100733439121 10.5L -86.90100733439121 -6.5Q -86.90100733439121 -14.5  -78.90100733439121 -14.5Z"></path><path id="sbsvgPath1620" data-name="topic-shape" fill="none" stroke="#ffffff" stroke-width="8" stroke-linecap="" stroke-dasharray="" d="M -78.90100733439121 -14.5L 82.90100733439121 -14.5Q 90.90100733439121 -14.5  90.90100733439121 -6.5L 90.90100733439121 10.5Q 90.90100733439121 18.5  82.90100733439121 18.5L -78.90100733439121 18.5Q -86.90100733439121 18.5  -86.90100733439121 10.5L -86.90100733439121 -6.5Q -86.90100733439121 -14.5  -78.90100733439121 -14.5Z"></path><g id="sbsvgG1621" data-name="topic-content" transform="translate(-64.90100733439121 -0.5)"><g id="sbsvgG1622" data-name="inner-element-group"><g id="sbsvgG1644" data-name="topic-title-text-group" fill="#333333" text-decoration="none" text-anchor="start" font-size="1" font-family="'Droid Serif','NeverMind','Microsoft YaHei','PingFang SC','Microsoft JhengHei',sans-serif" font-weight="400" font-style="normal"><text id="sbsvgText1643" font-family="'Droid Serif','NeverMind','Microsoft YaHei','PingFang SC','Microsoft JhengHei',sans-serif" fill="#333333" text-decoration="none" text-anchor="start" font-size="1" font-weight="400" font-style="normal" style="user-select: none; cursor: default;"><tspan id="sbsvgTspan1784" font-family="'Droid Serif','NeverMind','Microsoft YaHei','PingFang SC','Microsoft JhengHei',sans-serif" font-size="1" font-weight="400" font-style="normal" text-decoration="none" dy="1" x="0" fill="#333333" text-anchor="start" style="white-space: pre;">‎        </tspan></text></g><g id="sbsvgG1645" data="markers-group" class="MARKERS"></g></g></g></g></g></g><g id="sbsvgG1624" data-name="branch" class="branch" transform="translate(429.8270912170409 0)"><g id="sbsvgG1625" data-name="topic" class="topic" data-topic-id="215911cf151b19f57660caa91e"><g id="sbsvgG1626" data-name="topic-shape-group"><path id="sbsvgPath1627" data-name="topic-shape-shallow-fill" d="M -58.90100733439127 -10.5L 62.90100733439127 -10.5Q 70.90100733439127 -10.5  70.90100733439127 -2.5L 70.90100733439127 6.5Q 70.90100733439127 14.5  62.90100733439127 14.5L -58.90100733439127 14.5Q -66.90100733439127 14.5  -66.90100733439127 6.5L -66.90100733439127 -2.5Q -66.90100733439127 -10.5  -58.90100733439127 -10.5Z" fill="white" opacity="0"></path><path id="sbsvgPath1628" data-name="topic-shape-fill" fill="#e6e6e6" opacity="1" stroke-width="0" d="M -58.90100733439127 -10.5L 62.90100733439127 -10.5Q 70.90100733439127 -10.5  70.90100733439127 -2.5L 70.90100733439127 6.5Q 70.90100733439127 14.5  62.90100733439127 14.5L -58.90100733439127 14.5Q -66.90100733439127 14.5  -66.90100733439127 6.5L -66.90100733439127 -2.5Q -66.90100733439127 -10.5  -58.90100733439127 -10.5Z"></path><path id="sbsvgPath1629" data-name="topic-shape" fill="none" stroke="#ffffff" stroke-width="8" stroke-linecap="" stroke-dasharray="" d="M -58.90100733439127 -10.5L 62.90100733439127 -10.5Q 70.90100733439127 -10.5  70.90100733439127 -2.5L 70.90100733439127 6.5Q 70.90100733439127 14.5  62.90100733439127 14.5L -58.90100733439127 14.5Q -66.90100733439127 14.5  -66.90100733439127 6.5L -66.90100733439127 -2.5Q -66.90100733439127 -10.5  -58.90100733439127 -10.5Z"></path><g id="sbsvgG1630" data-name="topic-content" transform="translate(-56.90100733439127 -0.5)"><g id="sbsvgG1631" data-name="inner-element-group"><g id="sbsvgG1634" data-name="topic-title-text-group" fill="#333333" text-decoration="none" text-anchor="start" font-size="1" font-family="'Droid Serif','NeverMind','Microsoft YaHei','PingFang SC','Microsoft JhengHei',sans-serif" font-weight="400" font-style="normal"><text id="sbsvgText1633" font-family="'Droid Serif','NeverMind','Microsoft YaHei','PingFang SC','Microsoft JhengHei',sans-serif" fill="#333333" text-decoration="none" text-anchor="start" font-size="1" font-weight="400" font-style="normal" style="user-select: none; cursor: default;"><tspan id="sbsvgTspan1783" font-family="'Droid Serif','NeverMind','Microsoft YaHei','PingFang SC','Microsoft JhengHei',sans-serif" font-size="1" font-weight="400" font-style="normal" text-decoration="none" dy="1" x="0" fill="#333333" text-anchor="start" style="white-space: pre;">‎        </tspan></text></g><g id="sbsvgG1635" data="markers-group" class="MARKERS"></g></g></g></g></g></g><g id="sbsvgG1653" data-name="branch" class="branch" transform="translate(221.1240692138672 105)"><rect id="sbsvgRect1777" width="22" height="36" data-name="collapse-extend-hover-area" opacity="0" x="74" y="-18"></rect><g id="sbsvgG1654" data-name="topic" class="topic" data-topic-id="0a7af49abc6b0fb1d4e0a9cf05"><g id="sbsvgG1655" data-name="topic-shape-group"><path id="sbsvgPath1656" data-name="topic-shape-shallow-fill" d="M -58 -14L 62 -14Q 70 -14  70 -6L 70 10Q 70 18  62 18L -58 18Q -66 18  -66 10L -66 -6Q -66 -14  -58 -14Z" fill="white" opacity="0"></path><path id="sbsvgPath1657" data-name="topic-shape-fill" fill="#e6e6e6" opacity="1" stroke-width="0" d="M -58 -14L 62 -14Q 70 -14  70 -6L 70 10Q 70 18  62 18L -58 18Q -66 18  -66 10L -66 -6Q -66 -14  -58 -14Z"></path><path id="sbsvgPath1658" data-name="topic-shape" fill="none" stroke="#ffffff" stroke-width="8" stroke-linecap="" stroke-dasharray="" d="M -58 -14L 62 -14Q 70 -14  70 -6L 70 10Q 70 18  62 18L -58 18Q -66 18  -66 10L -66 -6Q -66 -14  -58 -14Z"></path><g id="sbsvgG1659" data-name="topic-content" transform="translate(-44 0)"><g id="sbsvgG1660" data-name="inner-element-group"><g id="sbsvgG1720" data-name="topic-title-text-group" fill="#333333" text-decoration="none" text-anchor="start" font-size="1" font-family="'Droid Serif','NeverMind','Microsoft YaHei','PingFang SC','Microsoft JhengHei',sans-serif" font-weight="400" font-style="normal"><text id="sbsvgText1719" font-family="'Droid Serif','NeverMind','Microsoft YaHei','PingFang SC','Microsoft JhengHei',sans-serif" fill="#333333" text-decoration="none" text-anchor="start" font-size="1" font-weight="400" font-style="normal" style="user-select: none; cursor: default;"><tspan id="sbsvgTspan1788" dy="1.3" x="0" fill="#333333" text-decoration="none" text-anchor="start" font-size="1" font-family="'Droid Serif','NeverMind','Microsoft YaHei','PingFang SC','Microsoft JhengHei',sans-serif" font-weight="400" font-style="normal"></tspan></text></g><g id="sbsvgG1721" data="markers-group" class="MARKERS"></g></g></g></g></g></g><g id="sbsvgG1662" data-name="branch" class="branch" transform="translate(388.0250765482584 68)"><g id="sbsvgG1663" data-name="topic" class="topic" data-topic-id="f2aadc66b018737ff701195e25"><g id="sbsvgG1664" data-name="topic-shape-group"><path id="sbsvgPath1665" data-name="topic-shape-shallow-fill" d="M -60.40100733439127 -9L 62.90100733439127 -9Q 70.90100733439127 -9  70.90100733439127 -1L 70.90100733439127 3.5Q 70.90100733439127 11.5  62.90100733439127 11.5L -60.40100733439127 11.5Q -68.40100733439127 11.5  -68.40100733439127 3.5L -68.40100733439127 -1Q -68.40100733439127 -9  -60.40100733439127 -9Z" fill="white" opacity="0"></path><path id="sbsvgPath1666" data-name="topic-shape-fill" fill="#e6e6e6" opacity="1" stroke-width="0" d="M -60.40100733439127 -9L 62.90100733439127 -9Q 70.90100733439127 -9  70.90100733439127 -1L 70.90100733439127 3.5Q 70.90100733439127 11.5  62.90100733439127 11.5L -60.40100733439127 11.5Q -68.40100733439127 11.5  -68.40100733439127 3.5L -68.40100733439127 -1Q -68.40100733439127 -9  -60.40100733439127 -9Z"></path><path id="sbsvgPath1667" data-name="topic-shape" fill="none" stroke="#ffffff" stroke-width="5" stroke-linecap="" stroke-dasharray="" d="M -60.40100733439127 -9L 62.90100733439127 -9Q 70.90100733439127 -9  70.90100733439127 -1L 70.90100733439127 3.5Q 70.90100733439127 11.5  62.90100733439127 11.5L -60.40100733439127 11.5Q -68.40100733439127 11.5  -68.40100733439127 3.5L -68.40100733439127 -1Q -68.40100733439127 -9  -60.40100733439127 -9Z"></path><g id="sbsvgG1668" data-name="topic-content" transform="translate(-59.90100733439127 -0.5)"><g id="sbsvgG1669" data-name="inner-element-group"><g id="sbsvgG1672" data-name="topic-title-text-group" fill="#333333" text-decoration="none" text-anchor="start" font-size="1" font-family="'Droid Serif','NeverMind','Microsoft YaHei','PingFang SC','Microsoft JhengHei',sans-serif" font-weight="400" font-style="normal"><text id="sbsvgText1671" font-family="'Droid Serif','NeverMind','Microsoft YaHei','PingFang SC','Microsoft JhengHei',sans-serif" fill="#333333" text-decoration="none" text-anchor="start" font-size="1" font-weight="400" font-style="normal" style="user-select: none; cursor: default;"><tspan id="sbsvgTspan1785" font-family="'Droid Serif','NeverMind','Microsoft YaHei','PingFang SC','Microsoft JhengHei',sans-serif" font-size="1" font-weight="400" font-style="normal" text-decoration="none" dy="1" x="0" fill="#333333" text-anchor="start" style="white-space: pre;">‎        </tspan></text></g><g id="sbsvgG1673" data="markers-group" class="MARKERS"></g></g></g></g></g></g><g id="sbsvgG1681" data-name="branch" class="branch" transform="translate(368.0250765482584 105)"><g id="sbsvgG1682" data-name="topic" class="topic" data-topic-id="a66817071f6a618357a2c80f27"><g id="sbsvgG1683" data-name="topic-shape-group"><path id="sbsvgPath1684" data-name="topic-shape-shallow-fill" d="M -40.40100733439126 -9L 42.90100733439126 -9Q 50.90100733439126 -9  50.90100733439126 -1L 50.90100733439126 3.5Q 50.90100733439126 11.5  42.90100733439126 11.5L -40.40100733439126 11.5Q -48.40100733439126 11.5  -48.40100733439126 3.5L -48.40100733439126 -1Q -48.40100733439126 -9  -40.40100733439126 -9Z" fill="white" opacity="0"></path><path id="sbsvgPath1685" data-name="topic-shape-fill" fill="#e6e6e6" opacity="1" stroke-width="0" d="M -40.40100733439126 -9L 42.90100733439126 -9Q 50.90100733439126 -9  50.90100733439126 -1L 50.90100733439126 3.5Q 50.90100733439126 11.5  42.90100733439126 11.5L -40.40100733439126 11.5Q -48.40100733439126 11.5  -48.40100733439126 3.5L -48.40100733439126 -1Q -48.40100733439126 -9  -40.40100733439126 -9Z"></path><path id="sbsvgPath1686" data-name="topic-shape" fill="none" stroke="#ffffff" stroke-width="5" stroke-linecap="" stroke-dasharray="" d="M -40.40100733439126 -9L 42.90100733439126 -9Q 50.90100733439126 -9  50.90100733439126 -1L 50.90100733439126 3.5Q 50.90100733439126 11.5  42.90100733439126 11.5L -40.40100733439126 11.5Q -48.40100733439126 11.5  -48.40100733439126 3.5L -48.40100733439126 -1Q -48.40100733439126 -9  -40.40100733439126 -9Z"></path><g id="sbsvgG1687" data-name="topic-content" transform="translate(-39.90100733439126 -0.5)"><g id="sbsvgG1688" data-name="inner-element-group"><g id="sbsvgG1691" data-name="topic-title-text-group" fill="#333333" text-decoration="none" text-anchor="start" font-size="1" font-family="'Droid Serif','NeverMind','Microsoft YaHei','PingFang SC','Microsoft JhengHei',sans-serif" font-weight="400" font-style="normal"><text id="sbsvgText1690" font-family="'Droid Serif','NeverMind','Microsoft YaHei','PingFang SC','Microsoft JhengHei',sans-serif" fill="#333333" text-decoration="none" text-anchor="start" font-size="1" font-weight="400" font-style="normal" style="user-select: none; cursor: default;"><tspan id="sbsvgTspan1786" font-family="'Droid Serif','NeverMind','Microsoft YaHei','PingFang SC','Microsoft JhengHei',sans-serif" font-size="1" font-weight="400" font-style="normal" text-decoration="none" dy="1" x="0" fill="#333333" text-anchor="start" style="white-space: pre;">‎        </tspan></text></g><g id="sbsvgG1692" data="markers-group" class="MARKERS"></g></g></g></g></g></g><g id="sbsvgG1700" data-name="branch" class="branch" transform="translate(388.0250765482584 142)"><g id="sbsvgG1701" data-name="topic" class="topic" data-topic-id="3c8b798d91082c027044d8ccde"><g id="sbsvgG1702" data-name="topic-shape-group"><path id="sbsvgPath1703" data-name="topic-shape-shallow-fill" d="M -60.40100733439127 -9L 62.90100733439127 -9Q 70.90100733439127 -9  70.90100733439127 -1L 70.90100733439127 3.5Q 70.90100733439127 11.5  62.90100733439127 11.5L -60.40100733439127 11.5Q -68.40100733439127 11.5  -68.40100733439127 3.5L -68.40100733439127 -1Q -68.40100733439127 -9  -60.40100733439127 -9Z" fill="white" opacity="0"></path><path id="sbsvgPath1704" data-name="topic-shape-fill" fill="#e6e6e6" opacity="1" stroke-width="0" d="M -60.40100733439127 -9L 62.90100733439127 -9Q 70.90100733439127 -9  70.90100733439127 -1L 70.90100733439127 3.5Q 70.90100733439127 11.5  62.90100733439127 11.5L -60.40100733439127 11.5Q -68.40100733439127 11.5  -68.40100733439127 3.5L -68.40100733439127 -1Q -68.40100733439127 -9  -60.40100733439127 -9Z"></path><path id="sbsvgPath1705" data-name="topic-shape" fill="none" stroke="#ffffff" stroke-width="5" stroke-linecap="" stroke-dasharray="" d="M -60.40100733439127 -9L 62.90100733439127 -9Q 70.90100733439127 -9  70.90100733439127 -1L 70.90100733439127 3.5Q 70.90100733439127 11.5  62.90100733439127 11.5L -60.40100733439127 11.5Q -68.40100733439127 11.5  -68.40100733439127 3.5L -68.40100733439127 -1Q -68.40100733439127 -9  -60.40100733439127 -9Z"></path><g id="sbsvgG1706" data-name="topic-content" transform="translate(-59.90100733439127 -0.5)"><g id="sbsvgG1707" data-name="inner-element-group"><g id="sbsvgG1710" data-name="topic-title-text-group" fill="#333333" text-decoration="none" text-anchor="start" font-size="1" font-family="'Droid Serif','NeverMind','Microsoft YaHei','PingFang SC','Microsoft JhengHei',sans-serif" font-weight="400" font-style="normal"><text id="sbsvgText1709" font-family="'Droid Serif','NeverMind','Microsoft YaHei','PingFang SC','Microsoft JhengHei',sans-serif" fill="#333333" text-decoration="none" text-anchor="start" font-size="1" font-weight="400" font-style="normal" style="user-select: none; cursor: default;"><tspan id="sbsvgTspan1787" font-family="'Droid Serif','NeverMind','Microsoft YaHei','PingFang SC','Microsoft JhengHei',sans-serif" font-size="1" font-weight="400" font-style="normal" text-decoration="none" dy="1" x="0" fill="#333333" text-anchor="start" style="white-space: pre;">‎        </tspan></text></g><g id="sbsvgG1711" data="markers-group" class="MARKERS"></g></g></g></g></g></g></g><g id="sbsvgG1525" data-name="relationship-container"></g><g id="sbsvgG1529" data-name="cloneG" opacity="0.5"></g></g></g><defs id="sbsvgDefs1516"></defs></svg>