<svg width="32" height="32" viewBox="0 0 200 200" fill="none"
    xmlns="http://www.w3.org/2000/svg">
    <path d="M110.576 148.41L116.069 147.438C133.447 144.365 148.892 136.318 159.921 124.878C170.804 113.589 176.758 99.6744 176.758 85.0586C176.758 50.2855 142.81 21.2891 100.098 21.2891C57.3855 21.2891 23.4375 50.2855 23.4375 85.0586C23.4375 99.6438 29.3666 113.531 40.2068 124.808C51.1908 136.234 66.5785 144.289 83.9031 147.398L89.3754 148.381L99.984 167.47L110.576 148.41ZM81.833 158.933C41.7863 151.746 11.7188 121.401 11.7188 85.0586C11.7188 43.3676 51.2873 9.57031 100.098 9.57031C148.908 9.57031 188.477 43.3676 188.477 85.0586C188.477 121.478 158.283 151.873 118.11 158.978L108.52 176.234C107.635 177.827 106.321 179.141 104.728 180.027C100.013 182.646 94.0678 180.948 91.4479 176.234L81.833 158.933Z" fill="url(#paint0_linear_494_466)"/>
    <path d="M89.3555 85.0586C89.3555 79.1258 94.1648 74.3164 100.098 74.3164C106.03 74.3164 110.84 79.1258 110.84 85.0586C110.84 90.9914 106.03 95.8008 100.098 95.8008C94.1648 95.8008 89.3555 90.9914 89.3555 85.0586ZM53.6133 85.0586C53.6133 79.1258 58.4227 74.3164 64.3555 74.3164C70.2883 74.3164 75.0977 79.1258 75.0977 85.0586C75.0977 90.9914 70.2883 95.8008 64.3555 95.8008C58.4227 95.8008 53.6133 90.9914 53.6133 85.0586ZM124.902 85.0586C124.902 79.1258 129.712 74.3164 135.645 74.3164C141.577 74.3164 146.387 79.1258 146.387 85.0586C146.387 90.9914 141.577 95.8008 135.645 95.8008C129.712 95.8008 124.902 90.9914 124.902 85.0586Z" fill="url(#paint1_linear_494_466)"/>
    <defs>
        <linearGradient id="paint0_linear_494_466" x1="11.7187" y1="181.258" x2="193.47" y2="15.0295" gradientUnits="userSpaceOnUse">
            <stop stop-color="#FF6100"/>
            <stop offset="1" stop-color="#F59A12"/>
        </linearGradient>
        <linearGradient id="paint1_linear_494_466" x1="53.6133" y1="95.8008" x2="64.7607" y2="53.038" gradientUnits="userSpaceOnUse">
            <stop stop-color="#FF6100"/>
            <stop offset="1" stop-color="#F59A12"/>
        </linearGradient>
    </defs>
</svg>
