<svg width="32" height="32" viewBox="0 0 200 200" fill="none"
    xmlns="http://www.w3.org/2000/svg">
    <path d="M180.134 87.7337L150.761 58.312C149.203 56.7514 147.09 55.8746 144.886 55.8746C142.683 55.8746 140.57 56.7514 139.012 58.312C137.454 59.8726 136.578 61.9893 136.578 64.1963C136.578 66.4034 137.454 68.5201 139.012 70.0807L168.385 99.5024L139.012 128.924C137.454 130.485 136.578 132.601 136.578 134.808C136.578 137.015 137.454 139.132 139.012 140.693C140.57 142.253 142.683 143.13 144.886 143.13C147.09 143.13 149.203 142.253 150.761 140.693L180.134 111.271C183.25 108.149 185 103.916 185 99.5024C185 95.0885 183.25 90.8553 180.134 87.7337ZM50.239 58.312L20.8656 87.7337C17.7502 90.8553 16 95.0885 16 99.5024C16 103.916 17.7502 108.149 20.8656 111.271L50.239 140.693C51.0104 141.466 51.9263 142.078 52.9343 142.497C53.9422 142.915 55.0226 143.13 56.1136 143.13C57.2046 143.13 58.285 142.915 59.293 142.497C60.3009 142.078 61.2168 141.466 61.9883 140.693C62.7598 139.92 63.3717 139.003 63.7892 137.993C64.2068 136.983 64.4217 135.901 64.4217 134.808C64.4217 133.716 64.2068 132.633 63.7892 131.624C63.3717 130.614 62.7598 129.697 61.9883 128.924L32.6149 99.5024L61.9883 70.0807C63.5464 68.5201 64.4217 66.4034 64.4217 64.1963C64.4217 61.9893 63.5464 59.8726 61.9883 58.312C60.4302 56.7514 58.317 55.8746 56.1136 55.8746C53.9102 55.8746 51.797 56.7514 50.239 58.312ZM72.5888 169.474L112.38 25.1112C112.965 22.9836 114.37 21.1759 116.286 20.0859C117.234 19.5461 118.28 19.1988 119.362 19.0638C120.445 18.9287 121.544 19.0086 122.595 19.2988C123.647 19.589 124.631 20.0839 125.492 20.7552C126.353 21.4264 127.074 22.261 127.612 23.2111C128.151 24.1613 128.498 25.2084 128.633 26.2928C128.768 27.3772 128.688 28.4775 128.398 29.531L88.6071 173.894C88.3165 174.947 87.8216 175.933 87.1506 176.795C86.4796 177.657 85.6458 178.378 84.6966 178.917C82.7796 180.006 80.5093 180.287 78.3851 179.699C77.3334 179.408 76.3491 178.913 75.4886 178.241C74.6281 177.568 73.9082 176.733 73.3699 175.782C72.2829 173.862 72.0019 171.588 72.5888 169.461V169.474Z" fill="#A0A0A0" />
</svg>