<svg width="32" height="32" viewBox="0 0 200 200" fill="none"
    xmlns="http://www.w3.org/2000/svg">
    <path d="M159.718 18C152.482 18 145.543 20.6981 140.427 25.5007C135.311 30.3033 132.436 36.817 132.436 43.6089C132.384 44.1883 132.384 44.7709 132.436 45.3503L64.5588 62.6619C62.3593 58.635 59.0622 55.2271 55.0033 52.7852C50.9444 50.3433 46.2687 48.9546 41.4522 48.7605C36.6356 48.5664 31.8503 49.5738 27.5833 51.6802C23.3164 53.7865 19.7203 56.9166 17.1612 60.7517C14.602 64.5869 13.1712 68.9901 13.0144 73.513C12.8576 78.036 13.9805 82.5172 16.2686 86.5003C18.5567 90.4835 21.9285 93.8264 26.0405 96.1887C30.1525 98.551 34.8579 99.8483 39.6777 99.9485C45.0704 99.9187 50.3386 98.4245 54.8465 95.6462L103.627 141.435C100.773 145.909 99.405 151.08 99.6979 156.288C99.6783 160.857 100.961 165.347 103.413 169.293C105.865 173.24 109.398 176.499 113.644 178.732C117.89 180.965 122.695 182.092 127.561 181.994C132.427 181.897 137.177 180.579 141.317 178.178C145.458 175.777 148.839 172.38 151.11 168.339C153.381 164.298 154.459 159.761 154.232 155.197C154.005 150.633 152.481 146.21 149.82 142.385C147.158 138.56 143.454 135.473 139.093 133.445L157.863 69.2178H159.718C166.954 69.2178 173.893 66.5197 179.009 61.7171C184.126 56.9145 187 50.4008 187 43.6089C187 36.817 184.126 30.3033 179.009 25.5007C173.893 20.6981 166.954 18 159.718 18ZM39.6777 89.7049C36.4402 89.7049 33.2754 88.8038 30.5835 87.1154C27.8916 85.427 25.7936 83.0273 24.5546 80.2197C23.3157 77.412 22.9915 74.3225 23.6231 71.342C24.2547 68.3614 25.8137 65.6235 28.103 63.4747C30.3923 61.3258 33.309 59.8624 36.4843 59.2695C39.6596 58.6766 42.9509 58.9809 45.9419 60.1439C48.933 61.3068 51.4895 63.2762 53.2882 65.8031C55.0868 68.3299 56.0469 71.3006 56.0469 74.3396C56.0469 78.4147 54.3223 82.323 51.2525 85.2045C48.1826 88.0861 44.0191 89.7049 39.6777 89.7049ZM126.98 171.653C123.742 171.653 120.577 170.752 117.886 169.064C115.194 167.376 113.096 164.976 111.857 162.168C110.618 159.36 110.294 156.271 110.925 153.29C111.557 150.31 113.116 147.572 115.405 145.423C117.694 143.274 120.611 141.811 123.786 141.218C126.962 140.625 130.253 140.929 133.244 142.092C136.235 143.255 138.792 145.225 140.59 147.752C142.389 150.278 143.349 153.249 143.349 156.288C143.349 160.363 141.624 164.271 138.555 167.153C135.485 170.035 131.321 171.653 126.98 171.653ZM147.278 66.9642L128.835 130.679H126.98C121.587 130.709 116.319 132.203 111.811 134.981L62.8128 88.783C65.6596 84.4486 67.1006 79.4299 66.9596 74.3396C67.0123 73.7602 67.0123 73.1776 66.9596 72.5982L134.4 55.389C136.995 60.3873 141.298 64.4262 146.623 66.8618L147.278 66.9642ZM159.718 58.9742C156.481 58.9742 153.316 58.0731 150.624 56.3847C147.932 54.6964 145.834 52.2966 144.595 49.489C143.356 46.6813 143.032 43.5919 143.663 40.6113C144.295 37.6307 145.854 34.8928 148.143 32.744C150.433 30.5951 153.349 29.1317 156.525 28.5388C159.7 27.9459 162.991 28.2502 165.982 29.4132C168.973 30.5761 171.53 32.5456 173.329 35.0724C175.127 37.5992 176.087 40.5699 176.087 43.6089C176.087 47.684 174.363 51.5923 171.293 54.4738C168.223 57.3554 164.059 58.9742 159.718 58.9742Z" fill="url(#paint0_linear_494_472)"/>
    <defs>
        <linearGradient id="paint0_linear_494_472" x1="13" y1="182" x2="187" y2="18" gradientUnits="userSpaceOnUse">
            <stop stop-color="#FF6100"/>
            <stop offset="1" stop-color="#F59A12"/>
        </linearGradient>
    </defs>
</svg>
