<svg width="32" height="32" viewBox="0 0 200 200" fill="none"
    xmlns="http://www.w3.org/2000/svg">
    <path d="M31.25 37.5C29.5924 37.5 28.0027 38.1585 26.8306 39.3306C25.6585 40.5027 25 42.0924 25 43.75V144.788C25 146.445 25.6585 148.035 26.8306 149.207C28.0027 150.379 29.5924 151.038 31.25 151.038H77.7375C81.1868 151.038 84.5691 151.989 87.5125 153.788L90.225 155.45C93.1684 157.248 96.5508 158.2 100 158.2C103.449 158.2 106.832 157.248 109.775 155.45L112.5 153.788C115.443 151.989 118.826 151.038 122.275 151.038H168.75C170.408 151.038 171.997 150.379 173.169 149.207C174.342 148.035 175 146.445 175 144.788V43.75C175 42.0924 174.342 40.5027 173.169 39.3306C171.997 38.1585 170.408 37.5 168.75 37.5H122.263C121.116 37.5003 119.992 37.816 119.012 38.4125L116.3 40.075C111.392 43.0753 105.752 44.6628 100 44.6628C94.248 44.6628 88.6076 43.0753 83.7 40.075L80.9875 38.4125C80.012 37.8182 78.8923 37.5026 77.75 37.5H31.25ZM12.5 43.75C12.5 38.7772 14.4754 34.0081 17.9917 30.4917C21.5081 26.9754 26.2772 25 31.25 25H77.7375C81.1825 25.0024 84.5603 25.9539 87.5 27.75L90.2125 29.4125C93.1559 31.2107 96.5383 32.1621 99.9875 32.1621C103.437 32.1621 106.819 31.2107 109.763 29.4125L112.5 27.75C115.44 25.9539 118.817 25.0024 122.263 25H168.75C173.723 25 178.492 26.9754 182.008 30.4917C185.525 34.0081 187.5 38.7772 187.5 43.75V144.788C187.5 149.76 185.525 154.529 182.008 158.046C178.492 161.562 173.723 163.538 168.75 163.538H122.263C121.115 163.542 119.99 163.862 119.012 164.463L116.3 166.113C111.392 169.113 105.752 170.7 100 170.7C94.248 170.7 88.6076 169.113 83.7 166.113L80.9875 164.463C80.0096 163.862 78.8852 163.542 77.7375 163.538H31.25C26.2772 163.538 21.5081 161.562 17.9917 158.046C14.4754 154.529 12.5 149.76 12.5 144.788V43.75Z" fill="#A0A0A0" />
    <path d="M100 56.25C101.658 56.25 103.247 56.9085 104.419 58.0806C105.592 59.2527 106.25 60.8424 106.25 62.5V137.5C106.25 139.158 105.592 140.747 104.419 141.919C103.247 143.092 101.658 143.75 100 143.75C98.3424 143.75 96.7527 143.092 95.5806 141.919C94.4085 140.747 93.75 139.158 93.75 137.5V62.5C93.75 60.8424 94.4085 59.2527 95.5806 58.0806C96.7527 56.9085 98.3424 56.25 100 56.25Z" fill="#A0A0A0" />
</svg>