<svg id="sbsvgSvg1778" xmlns="http://www.w3.org/2000/svg" version="1.1" width="800.4221288405704" height="493.99999999999994" xmlns:xlink="http://www.w3.org/1999/xlink" style="display: block; background-color: rgb(255, 255, 255);" viewBox="0 0 732.5162405078587 452.09022810882175"><defs></defs><g id="sbsvgG1780" data-name="container" transform="scale(1) translate(209.12617065895466 226.04511405441087)"><g id="sbsvgG1782" data-name="sheet"><g id="sbsvgG1783" data-name="matrix-container"></g><g id="sbsvgG1784" data-name="tree-map-cell-container"></g><g id="sbsvgG1785" data-name="connection-container"><g id="sbsvgG2401" data-id="3b38061e1a4afd3dda381b318b"><path id="sbsvgPath1810" data-name="connection" stroke-linecap="" stroke-dasharray="" d="M 46 0Q 64.5 0 64.5 -18.5 L 64.5 -101Q 64.5 -119.5 83 -119.5" stroke="#262626" stroke-width="2" fill="none"></path><path id="sbsvgPath1819" data-name="connection" stroke-linecap="" stroke-dasharray="" d="M 264.15216064453125 -119.5Q 270.65216064453125 -119.5 270.65216064453125 -126 L 270.65216064453125 -150Q 270.65216064453125 -156.5 277.15216064453125 -156.5" stroke="#262626" stroke-width="2" fill="none"></path><path id="sbsvgPath1838" data-name="connection" stroke-linecap="" stroke-dasharray="" d="" stroke="#262626" stroke-width="2" fill="none"></path><path id="sbsvgPath1857" data-name="connection" stroke-linecap="" stroke-dasharray="" d="M 264.15216064453125 -119.5Q 270.65216064453125 -119.5 270.65216064453125 -113 L 270.65216064453125 -89Q 270.65216064453125 -82.5 277.15216064453125 -82.5" stroke="#262626" stroke-width="2" fill="none"></path><path id="sbsvgPath1886" data-name="connection" stroke-linecap="" stroke-dasharray="" d="" stroke="#262626" stroke-width="2" fill="none"></path><path id="sbsvgPath1895" data-name="connection" stroke-linecap="" stroke-dasharray="" d="M 250.15216064453125 0Q 256.65216064453125 0 256.65216064453125 -4.625 L 256.65216064453125 -13.875Q 256.65216064453125 -18.5 263.15216064453125 -18.5" stroke="#262626" stroke-width="2" fill="none"></path><path id="sbsvgPath1914" data-name="connection" stroke-linecap="" stroke-dasharray="" d="M 250.15216064453125 0Q 256.65216064453125 0 256.65216064453125 4.625 L 256.65216064453125 13.875Q 256.65216064453125 18.5 263.15216064453125 18.5" stroke="#262626" stroke-width="2" fill="none"></path><path id="sbsvgPath1943" data-name="connection" stroke-linecap="" stroke-dasharray="" d="M 46 0Q 64.5 0 64.5 18.5 L 64.5 101Q 64.5 119.5 83 119.5" stroke="#262626" stroke-width="2" fill="none"></path><path id="sbsvgPath1952" data-name="connection" stroke-linecap="" stroke-dasharray="" d="M 306.8747883817573 119.5Q 313.3747883817573 119.5 313.3747883817573 113 L 313.3747883817573 89Q 313.3747883817573 82.5 319.8747883817573 82.5" stroke="#262626" stroke-width="2" fill="none"></path><path id="sbsvgPath1971" data-name="connection" stroke-linecap="" stroke-dasharray="" d="" stroke="#262626" stroke-width="2" fill="none"></path><path id="sbsvgPath1990" data-name="connection" stroke-linecap="" stroke-dasharray="" d="M 306.8747883817573 119.5Q 313.3747883817573 119.5 313.3747883817573 126 L 313.3747883817573 150Q 313.3747883817573 156.5 319.8747883817573 156.5" stroke="#262626" stroke-width="2" fill="none"></path></g></g><g id="sbsvgG1786" data-name="boundary-container"></g><g id="sbsvgG1787" data-name="branch-container"><g id="sbsvgG1793" data-name="branch" class="branch"><g id="sbsvgG1794" data-name="topic" class="topic" data-topic-id="3b38061e1a4afd3dda381b318b"><g id="sbsvgG1795" data-name="topic-shape-group"><path id="sbsvgPath1796" data-name="topic-shape-shallow-fill" d="M -25 -31L 25 -31Q 33 -31  33 -23L 33 23Q 33 31  25 31L -25 31Q -33 31  -33 23L -33 -23Q -33 -31  -25 -31Z" fill="white" opacity="0"></path><path id="sbsvgPath1797" data-name="topic-shape-fill" opacity="0" d="M -25 -31L 25 -31Q 33 -31  33 -23L 33 23Q 33 31  25 31L -25 31Q -33 31  -33 23L -33 -23Q -33 -31  -25 -31Z"></path><path id="sbsvgPath1798" data-name="topic-shape" fill="none" stroke-width="0" stroke-linecap="" stroke-dasharray="" d="M -25 -31L 25 -31Q 33 -31  33 -23L 33 23Q 33 31  25 31L -25 31Q -33 31  -33 23L -33 -23Q -33 -31  -25 -31Z"></path><g id="sbsvgG1799" data-name="topic-content" transform="translate(-4 -16)"><g id="sbsvgG1800" data-name="inner-element-group"><g id="sbsvgG2031" data-name="topic-title-text-group" fill="#262626" text-decoration="none" text-anchor="middle" font-size="24" font-family="'NeverMind','Montserrat','Microsoft YaHei','PingFang SC','Microsoft JhengHei',sans-serif" font-weight="bold" font-style="normal"><text id="sbsvgText2030" font-family="'NeverMind','Montserrat','Microsoft YaHei','PingFang SC','Microsoft JhengHei',sans-serif" fill="#262626" text-decoration="none" text-anchor="middle" font-size="24" font-weight="bold" font-style="normal" transform="translate(4 0)" style="user-select: none; cursor: default;"><tspan id="sbsvgTspan2461" font-family="'NeverMind','Montserrat','Microsoft YaHei','PingFang SC','Microsoft JhengHei',sans-serif" font-size="24" font-weight="bold" font-style="normal" text-decoration="none" dy="24" x="0" fill="#262626" text-anchor="middle" style="white-space: pre;">‎ </tspan></text></g><g id="sbsvgG2032" data="markers-group" class="MARKERS"></g></g></g></g></g></g><g id="sbsvgG1802" data-name="branch" class="branch" transform="translate(175.07608032226562 -119.5)"><rect id="sbsvgRect2334" width="38" height="55.6" data-name="collapse-extend-hover-area" opacity="0" x="80.07608032226562" y="-27.8"></rect><g id="sbsvgG1803" data-name="topic" class="topic" data-topic-id="3519d29d39ea0eaf5a22cbfdea"><g id="sbsvgG1804" data-name="topic-shape-group"><path id="sbsvgPath1805" data-name="topic-shape-shallow-fill" d="M -75.07608032226562 -13.700000000000003Q -75.07608032226562 -17.700000000000003 -71.10476518528195 -18.178179969012028L -3.471315136983674 -26.32182003098798Q 0.5 -26.800000000000004 4.471315136983674 -26.32182003098798L 72.10476518528195 -18.178179969012028Q 76.07608032226562 -17.700000000000003 76.07608032226562 -13.700000000000003L 76.07608032226562 14.700000000000003Q 76.07608032226562 18.700000000000003 72.10476518528195 19.178179969012028L 4.471315136983674 27.32182003098798Q 0.5 27.800000000000004 -3.471315136983674 27.32182003098798L -71.10476518528195 19.178179969012028Q -75.07608032226562 18.700000000000003 -75.07608032226562 14.700000000000003Z" fill="white" opacity="0"></path><path id="sbsvgPath1806" data-name="topic-shape-fill" opacity="0" d="M -75.07608032226562 -13.700000000000003Q -75.07608032226562 -17.700000000000003 -71.10476518528195 -18.178179969012028L -3.471315136983674 -26.32182003098798Q 0.5 -26.800000000000004 4.471315136983674 -26.32182003098798L 72.10476518528195 -18.178179969012028Q 76.07608032226562 -17.700000000000003 76.07608032226562 -13.700000000000003L 76.07608032226562 14.700000000000003Q 76.07608032226562 18.700000000000003 72.10476518528195 19.178179969012028L 4.471315136983674 27.32182003098798Q 0.5 27.800000000000004 -3.471315136983674 27.32182003098798L -71.10476518528195 19.178179969012028Q -75.07608032226562 18.700000000000003 -75.07608032226562 14.700000000000003Z"></path><path id="sbsvgPath1807" data-name="topic-shape" fill="none" stroke="#262626" stroke-width="2" stroke-linecap="" stroke-dasharray="9 3" d="M -75.07608032226562 -13.700000000000003Q -75.07608032226562 -17.700000000000003 -71.10476518528195 -18.178179969012028L -3.471315136983674 -26.32182003098798Q 0.5 -26.800000000000004 4.471315136983674 -26.32182003098798L 72.10476518528195 -18.178179969012028Q 76.07608032226562 -17.700000000000003 76.07608032226562 -13.700000000000003L 76.07608032226562 14.700000000000003Q 76.07608032226562 18.700000000000003 72.10476518528195 19.178179969012028L 4.471315136983674 27.32182003098798Q 0.5 27.800000000000004 -3.471315136983674 27.32182003098798L -71.10476518528195 19.178179969012028Q -75.07608032226562 18.700000000000003 -75.07608032226562 14.700000000000003Z"></path><g id="sbsvgG1808" data-name="topic-content" transform="translate(-56.076080322265625 -12)"><g id="sbsvgG1809" data-name="inner-element-group"><g id="sbsvgG1869" data-name="topic-title-text-group" fill="#333333" text-decoration="none" text-anchor="middle" font-size="18" font-family="'NeverMind','Microsoft YaHei','PingFang SC','Microsoft JhengHei',sans-serif" font-weight="500" font-style="normal"><text id="sbsvgText1868" font-family="'NeverMind','Microsoft YaHei','PingFang SC','Microsoft JhengHei',sans-serif" fill="#333333" text-decoration="none" text-anchor="middle" font-size="18" font-weight="500" font-style="normal" transform="translate(56.076080322265625 0)" style="user-select: none; cursor: default;"><tspan id="sbsvgTspan2452" font-family="'NeverMind','Microsoft YaHei','PingFang SC','Microsoft JhengHei',sans-serif" font-size="18" font-weight="500" font-style="normal" text-decoration="none" dy="18" x="0" fill="#333333" text-anchor="middle" style="white-space: pre;">‎ </tspan></text></g><g id="sbsvgG1870" data="markers-group" class="MARKERS"></g></g></g></g></g></g><g id="sbsvgG1811" data-name="branch" class="branch" transform="translate(333.9341621398926 -156.5)"><g id="sbsvgG1812" data-name="topic" class="topic" data-topic-id="572a402cbd19444c8a755875be"><g id="sbsvgG1813" data-name="topic-shape-group"><path id="sbsvgPath1814" data-name="topic-shape-shallow-fill" d="M -28.782001495361328 -10.5L 32.78200149536133 -10.5Q 40.78200149536133 -10.5  40.78200149536133 -2.5L 40.78200149536133 6.5Q 40.78200149536133 14.5  32.78200149536133 14.5L -28.782001495361328 14.5Q -36.78200149536133 14.5  -36.78200149536133 6.5L -36.78200149536133 -2.5Q -36.78200149536133 -10.5  -28.782001495361328 -10.5Z" fill="white" opacity="0"></path><path id="sbsvgPath1815" data-name="topic-shape-fill" fill="#e6e6e6" opacity="1" stroke-width="0" d="M -28.782001495361328 -10.5L 32.78200149536133 -10.5Q 40.78200149536133 -10.5  40.78200149536133 -2.5L 40.78200149536133 6.5Q 40.78200149536133 14.5  32.78200149536133 14.5L -28.782001495361328 14.5Q -36.78200149536133 14.5  -36.78200149536133 6.5L -36.78200149536133 -2.5Q -36.78200149536133 -10.5  -28.782001495361328 -10.5Z"></path><path id="sbsvgPath1816" data-name="topic-shape" fill="none" stroke="#ffffff" stroke-width="8" stroke-linecap="" stroke-dasharray="" d="M -28.782001495361328 -10.5L 32.78200149536133 -10.5Q 40.78200149536133 -10.5  40.78200149536133 -2.5L 40.78200149536133 6.5Q 40.78200149536133 14.5  32.78200149536133 14.5L -28.782001495361328 14.5Q -36.78200149536133 14.5  -36.78200149536133 6.5L -36.78200149536133 -2.5Q -36.78200149536133 -10.5  -28.782001495361328 -10.5Z"></path><g id="sbsvgG1817" data-name="topic-content" transform="translate(-26.782001495361328 -0.5)"><g id="sbsvgG1818" data-name="inner-element-group"><g id="sbsvgG1821" data-name="topic-title-text-group" fill="#333333" text-decoration="none" text-anchor="middle" font-size="1" font-family="'NeverMind','Microsoft YaHei','PingFang SC','Microsoft JhengHei',sans-serif" font-weight="500" font-style="normal"><text id="sbsvgText1820" font-family="'NeverMind','Microsoft YaHei','PingFang SC','Microsoft JhengHei',sans-serif" fill="#333333" text-decoration="none" text-anchor="middle" font-size="1" font-weight="500" font-style="normal" transform="translate(26.782001495361328 0)" style="user-select: none; cursor: default;"><tspan id="sbsvgTspan2449" font-family="'NeverMind','Microsoft YaHei','PingFang SC','Microsoft JhengHei',sans-serif" font-size="1" font-weight="500" font-style="normal" text-decoration="none" dy="1" x="0" fill="#333333" text-anchor="middle" style="white-space: pre;">‎  </tspan></text></g><g id="sbsvgG1822" data="markers-group" class="MARKERS"></g></g></g></g></g></g><g id="sbsvgG1830" data-name="branch" class="branch" transform="translate(363.9341621398926 -119.5)"><g id="sbsvgG1831" data-name="topic" class="topic" data-topic-id="ad0ef3d8-d0b8-4ab3-a800-e56811152fdb"><g id="sbsvgG1832" data-name="topic-shape-group"><path id="sbsvgPath1833" data-name="topic-shape-shallow-fill" d="M -58.78200149536133 -10.5L 62.78200149536133 -10.5Q 70.78200149536133 -10.5  70.78200149536133 -2.5L 70.78200149536133 6.5Q 70.78200149536133 14.5  62.78200149536133 14.5L -58.78200149536133 14.5Q -66.78200149536133 14.5  -66.78200149536133 6.5L -66.78200149536133 -2.5Q -66.78200149536133 -10.5  -58.78200149536133 -10.5Z" fill="white" opacity="0"></path><path id="sbsvgPath1834" data-name="topic-shape-fill" fill="#e6e6e6" opacity="1" stroke-width="0" d="M -58.78200149536133 -10.5L 62.78200149536133 -10.5Q 70.78200149536133 -10.5  70.78200149536133 -2.5L 70.78200149536133 6.5Q 70.78200149536133 14.5  62.78200149536133 14.5L -58.78200149536133 14.5Q -66.78200149536133 14.5  -66.78200149536133 6.5L -66.78200149536133 -2.5Q -66.78200149536133 -10.5  -58.78200149536133 -10.5Z"></path><path id="sbsvgPath1835" data-name="topic-shape" fill="none" stroke="#ffffff" stroke-width="8" stroke-linecap="" stroke-dasharray="" d="M -58.78200149536133 -10.5L 62.78200149536133 -10.5Q 70.78200149536133 -10.5  70.78200149536133 -2.5L 70.78200149536133 6.5Q 70.78200149536133 14.5  62.78200149536133 14.5L -58.78200149536133 14.5Q -66.78200149536133 14.5  -66.78200149536133 6.5L -66.78200149536133 -2.5Q -66.78200149536133 -10.5  -58.78200149536133 -10.5Z"></path><g id="sbsvgG1836" data-name="topic-content" transform="translate(-56.78200149536133 -0.5)"><g id="sbsvgG1837" data-name="inner-element-group"><g id="sbsvgG1840" data-name="topic-title-text-group" fill="#333333" text-decoration="none" text-anchor="middle" font-size="1" font-family="'NeverMind','Microsoft YaHei','PingFang SC','Microsoft JhengHei',sans-serif" font-weight="500" font-style="normal"><text id="sbsvgText1839" font-family="'NeverMind','Microsoft YaHei','PingFang SC','Microsoft JhengHei',sans-serif" fill="#333333" text-decoration="none" text-anchor="middle" font-size="1" font-weight="500" font-style="normal" transform="translate(56.78200149536133 0)" style="user-select: none; cursor: default;"><tspan id="sbsvgTspan2450" font-family="'NeverMind','Microsoft YaHei','PingFang SC','Microsoft JhengHei',sans-serif" font-size="1" font-weight="500" font-style="normal" text-decoration="none" dy="1" x="0" fill="#333333" text-anchor="middle" style="white-space: pre;">‎  </tspan></text></g><g id="sbsvgG1841" data="markers-group" class="MARKERS"></g></g></g></g></g></g><g id="sbsvgG1849" data-name="branch" class="branch" transform="translate(338.9341621398926 -82.5)"><g id="sbsvgG1850" data-name="topic" class="topic" data-topic-id="2f57cc9d-b0c8-4d16-8814-eb5ee6989eb4"><g id="sbsvgG1851" data-name="topic-shape-group"><path id="sbsvgPath1852" data-name="topic-shape-shallow-fill" d="M -33.78200149536133 -10.5L 37.78200149536133 -10.5Q 45.78200149536133 -10.5  45.78200149536133 -2.5L 45.78200149536133 6.5Q 45.78200149536133 14.5  37.78200149536133 14.5L -33.78200149536133 14.5Q -41.78200149536133 14.5  -41.78200149536133 6.5L -41.78200149536133 -2.5Q -41.78200149536133 -10.5  -33.78200149536133 -10.5Z" fill="white" opacity="0"></path><path id="sbsvgPath1853" data-name="topic-shape-fill" fill="#e6e6e6" opacity="1" stroke-width="0" d="M -33.78200149536133 -10.5L 37.78200149536133 -10.5Q 45.78200149536133 -10.5  45.78200149536133 -2.5L 45.78200149536133 6.5Q 45.78200149536133 14.5  37.78200149536133 14.5L -33.78200149536133 14.5Q -41.78200149536133 14.5  -41.78200149536133 6.5L -41.78200149536133 -2.5Q -41.78200149536133 -10.5  -33.78200149536133 -10.5Z"></path><path id="sbsvgPath1854" data-name="topic-shape" fill="none" stroke="#ffffff" stroke-width="8" stroke-linecap="" stroke-dasharray="" d="M -33.78200149536133 -10.5L 37.78200149536133 -10.5Q 45.78200149536133 -10.5  45.78200149536133 -2.5L 45.78200149536133 6.5Q 45.78200149536133 14.5  37.78200149536133 14.5L -33.78200149536133 14.5Q -41.78200149536133 14.5  -41.78200149536133 6.5L -41.78200149536133 -2.5Q -41.78200149536133 -10.5  -33.78200149536133 -10.5Z"></path><g id="sbsvgG1855" data-name="topic-content" transform="translate(-31.782001495361328 -0.5)"><g id="sbsvgG1856" data-name="inner-element-group"><g id="sbsvgG1859" data-name="topic-title-text-group" fill="#333333" text-decoration="none" text-anchor="middle" font-size="1" font-family="'NeverMind','Microsoft YaHei','PingFang SC','Microsoft JhengHei',sans-serif" font-weight="500" font-style="normal"><text id="sbsvgText1858" font-family="'NeverMind','Microsoft YaHei','PingFang SC','Microsoft JhengHei',sans-serif" fill="#333333" text-decoration="none" text-anchor="middle" font-size="1" font-weight="500" font-style="normal" transform="translate(31.782001495361328 0)" style="user-select: none; cursor: default;"><tspan id="sbsvgTspan2451" font-family="'NeverMind','Microsoft YaHei','PingFang SC','Microsoft JhengHei',sans-serif" font-size="1" font-weight="500" font-style="normal" text-decoration="none" dy="1" x="0" fill="#333333" text-anchor="middle" style="white-space: pre;">‎  </tspan></text></g><g id="sbsvgG1860" data="markers-group" class="MARKERS"></g></g></g></g></g></g><g id="sbsvgG1878" data-name="branch" class="branch" transform="translate(168.07608032226562 0)"><rect id="sbsvgRect2347" width="38" height="55.6" data-name="collapse-extend-hover-area" opacity="0" x="73.07608032226562" y="-27.8"></rect><g id="sbsvgG1879" data-name="topic" class="topic" data-topic-id="deb91c8071797cbcef7d285ab3"><g id="sbsvgG1880" data-name="topic-shape-group"><path id="sbsvgPath1881" data-name="topic-shape-shallow-fill" d="M -68.07608032226562 -13.700000000000003Q -68.07608032226562 -17.700000000000003 -64.11084014782651 -18.226184719479807L -3.4652401744391166 -26.2738152805202Q 0.5 -26.800000000000004 4.465240174439117 -26.2738152805202L 65.11084014782651 -18.226184719479807Q 69.07608032226562 -17.700000000000003 69.07608032226562 -13.700000000000003L 69.07608032226562 14.700000000000003Q 69.07608032226562 18.700000000000003 65.11084014782651 19.226184719479807L 4.465240174439117 27.2738152805202Q 0.5 27.800000000000004 -3.4652401744391166 27.2738152805202L -64.11084014782651 19.226184719479807Q -68.07608032226562 18.700000000000003 -68.07608032226562 14.700000000000003Z" fill="white" opacity="0"></path><path id="sbsvgPath1882" data-name="topic-shape-fill" opacity="0" d="M -68.07608032226562 -13.700000000000003Q -68.07608032226562 -17.700000000000003 -64.11084014782651 -18.226184719479807L -3.4652401744391166 -26.2738152805202Q 0.5 -26.800000000000004 4.465240174439117 -26.2738152805202L 65.11084014782651 -18.226184719479807Q 69.07608032226562 -17.700000000000003 69.07608032226562 -13.700000000000003L 69.07608032226562 14.700000000000003Q 69.07608032226562 18.700000000000003 65.11084014782651 19.226184719479807L 4.465240174439117 27.2738152805202Q 0.5 27.800000000000004 -3.4652401744391166 27.2738152805202L -64.11084014782651 19.226184719479807Q -68.07608032226562 18.700000000000003 -68.07608032226562 14.700000000000003Z"></path><path id="sbsvgPath1883" data-name="topic-shape" fill="none" stroke="#262626" stroke-width="2" stroke-linecap="" stroke-dasharray="9 3" d="M -68.07608032226562 -13.700000000000003Q -68.07608032226562 -17.700000000000003 -64.11084014782651 -18.226184719479807L -3.4652401744391166 -26.2738152805202Q 0.5 -26.800000000000004 4.465240174439117 -26.2738152805202L 65.11084014782651 -18.226184719479807Q 69.07608032226562 -17.700000000000003 69.07608032226562 -13.700000000000003L 69.07608032226562 14.700000000000003Q 69.07608032226562 18.700000000000003 65.11084014782651 19.226184719479807L 4.465240174439117 27.2738152805202Q 0.5 27.800000000000004 -3.4652401744391166 27.2738152805202L -64.11084014782651 19.226184719479807Q -68.07608032226562 18.700000000000003 -68.07608032226562 14.700000000000003Z"></path><g id="sbsvgG1884" data-name="topic-content" transform="translate(-49.076080322265625 -12)"><g id="sbsvgG1885" data-name="inner-element-group"><g id="sbsvgG1926" data-name="topic-title-text-group" fill="#333333" text-decoration="none" text-anchor="middle" font-size="18" font-family="'NeverMind','Microsoft YaHei','PingFang SC','Microsoft JhengHei',sans-serif" font-weight="500" font-style="normal"><text id="sbsvgText1925" font-family="'NeverMind','Microsoft YaHei','PingFang SC','Microsoft JhengHei',sans-serif" fill="#333333" text-decoration="none" text-anchor="middle" font-size="18" font-weight="500" font-style="normal" transform="translate(49.076080322265625 0)" style="user-select: none; cursor: default;"><tspan id="sbsvgTspan2455" font-family="'NeverMind','Microsoft YaHei','PingFang SC','Microsoft JhengHei',sans-serif" font-size="18" font-weight="500" font-style="normal" text-decoration="none" dy="18" x="0" fill="#333333" text-anchor="middle" style="white-space: pre;">‎ </tspan></text></g><g id="sbsvgG1927" data="markers-group" class="MARKERS"></g></g></g></g></g></g><g id="sbsvgG1887" data-name="branch" class="branch" transform="translate(359.9341621398926 -18.5)"><g id="sbsvgG1888" data-name="topic" class="topic" data-topic-id="6a120004-d702-484b-a313-8194992dface"><g id="sbsvgG1889" data-name="topic-shape-group"><path id="sbsvgPath1890" data-name="topic-shape-shallow-fill" d="M -68.78200149536133 -10.5L 72.78200149536133 -10.5Q 80.78200149536133 -10.5  80.78200149536133 -2.5L 80.78200149536133 6.5Q 80.78200149536133 14.5  72.78200149536133 14.5L -68.78200149536133 14.5Q -76.78200149536133 14.5  -76.78200149536133 6.5L -76.78200149536133 -2.5Q -76.78200149536133 -10.5  -68.78200149536133 -10.5Z" fill="white" opacity="0"></path><path id="sbsvgPath1891" data-name="topic-shape-fill" fill="#e6e6e6" opacity="1" stroke-width="0" d="M -68.78200149536133 -10.5L 72.78200149536133 -10.5Q 80.78200149536133 -10.5  80.78200149536133 -2.5L 80.78200149536133 6.5Q 80.78200149536133 14.5  72.78200149536133 14.5L -68.78200149536133 14.5Q -76.78200149536133 14.5  -76.78200149536133 6.5L -76.78200149536133 -2.5Q -76.78200149536133 -10.5  -68.78200149536133 -10.5Z"></path><path id="sbsvgPath1892" data-name="topic-shape" fill="none" stroke="#ffffff" stroke-width="8" stroke-linecap="" stroke-dasharray="" d="M -68.78200149536133 -10.5L 72.78200149536133 -10.5Q 80.78200149536133 -10.5  80.78200149536133 -2.5L 80.78200149536133 6.5Q 80.78200149536133 14.5  72.78200149536133 14.5L -68.78200149536133 14.5Q -76.78200149536133 14.5  -76.78200149536133 6.5L -76.78200149536133 -2.5Q -76.78200149536133 -10.5  -68.78200149536133 -10.5Z"></path><g id="sbsvgG1893" data-name="topic-content" transform="translate(-66.78200149536133 -0.5)"><g id="sbsvgG1894" data-name="inner-element-group"><g id="sbsvgG1897" data-name="topic-title-text-group" fill="#333333" text-decoration="none" text-anchor="middle" font-size="1" font-family="'NeverMind','Microsoft YaHei','PingFang SC','Microsoft JhengHei',sans-serif" font-weight="500" font-style="normal"><text id="sbsvgText1896" font-family="'NeverMind','Microsoft YaHei','PingFang SC','Microsoft JhengHei',sans-serif" fill="#333333" text-decoration="none" text-anchor="middle" font-size="1" font-weight="500" font-style="normal" transform="translate(66.78200149536133 0)" style="user-select: none; cursor: default;"><tspan id="sbsvgTspan2453" font-family="'NeverMind','Microsoft YaHei','PingFang SC','Microsoft JhengHei',sans-serif" font-size="1" font-weight="500" font-style="normal" text-decoration="none" dy="1" x="0" fill="#333333" text-anchor="middle" style="white-space: pre;">‎  </tspan></text></g><g id="sbsvgG1898" data="markers-group" class="MARKERS"></g></g></g></g></g></g><g id="sbsvgG1906" data-name="branch" class="branch" transform="translate(349.9341621398926 18.5)"><g id="sbsvgG1907" data-name="topic" class="topic" data-topic-id="47324f11-0f34-4171-8582-91f50431e0b8"><g id="sbsvgG1908" data-name="topic-shape-group"><path id="sbsvgPath1909" data-name="topic-shape-shallow-fill" d="M -58.78200149536133 -10.5L 62.78200149536133 -10.5Q 70.78200149536133 -10.5  70.78200149536133 -2.5L 70.78200149536133 6.5Q 70.78200149536133 14.5  62.78200149536133 14.5L -58.78200149536133 14.5Q -66.78200149536133 14.5  -66.78200149536133 6.5L -66.78200149536133 -2.5Q -66.78200149536133 -10.5  -58.78200149536133 -10.5Z" fill="white" opacity="0"></path><path id="sbsvgPath1910" data-name="topic-shape-fill" fill="#e6e6e6" opacity="1" stroke-width="0" d="M -58.78200149536133 -10.5L 62.78200149536133 -10.5Q 70.78200149536133 -10.5  70.78200149536133 -2.5L 70.78200149536133 6.5Q 70.78200149536133 14.5  62.78200149536133 14.5L -58.78200149536133 14.5Q -66.78200149536133 14.5  -66.78200149536133 6.5L -66.78200149536133 -2.5Q -66.78200149536133 -10.5  -58.78200149536133 -10.5Z"></path><path id="sbsvgPath1911" data-name="topic-shape" fill="none" stroke="#ffffff" stroke-width="8" stroke-linecap="" stroke-dasharray="" d="M -58.78200149536133 -10.5L 62.78200149536133 -10.5Q 70.78200149536133 -10.5  70.78200149536133 -2.5L 70.78200149536133 6.5Q 70.78200149536133 14.5  62.78200149536133 14.5L -58.78200149536133 14.5Q -66.78200149536133 14.5  -66.78200149536133 6.5L -66.78200149536133 -2.5Q -66.78200149536133 -10.5  -58.78200149536133 -10.5Z"></path><g id="sbsvgG1912" data-name="topic-content" transform="translate(-56.78200149536133 -0.5)"><g id="sbsvgG1913" data-name="inner-element-group"><g id="sbsvgG1916" data-name="topic-title-text-group" fill="#333333" text-decoration="none" text-anchor="middle" font-size="1" font-family="'NeverMind','Microsoft YaHei','PingFang SC','Microsoft JhengHei',sans-serif" font-weight="500" font-style="normal"><text id="sbsvgText1915" font-family="'NeverMind','Microsoft YaHei','PingFang SC','Microsoft JhengHei',sans-serif" fill="#333333" text-decoration="none" text-anchor="middle" font-size="1" font-weight="500" font-style="normal" transform="translate(56.78200149536133 0)" style="user-select: none; cursor: default;"><tspan id="sbsvgTspan2454" font-family="'NeverMind','Microsoft YaHei','PingFang SC','Microsoft JhengHei',sans-serif" font-size="1" font-weight="500" font-style="normal" text-decoration="none" dy="1" x="0" fill="#333333" text-anchor="middle" style="white-space: pre;">‎  </tspan></text></g><g id="sbsvgG1917" data="markers-group" class="MARKERS"></g></g></g></g></g></g><g id="sbsvgG1935" data-name="branch" class="branch" transform="translate(196.43739419087865 119.5)"><rect id="sbsvgRect2360" width="38" height="55.6" data-name="collapse-extend-hover-area" opacity="0" x="101.43739419087865" y="-27.8"></rect><g id="sbsvgG1936" data-name="topic" class="topic" data-topic-id="6ac94af1c6d9d3c27255891674"><g id="sbsvgG1937" data-name="topic-shape-group"><path id="sbsvgPath1938" data-name="topic-shape-shallow-fill" d="M -96.43739419087865 -13.700000000000003Q -96.43739419087865 -17.700000000000003 -92.45490358852224 -18.073856392406036L -3.4824906023564126 -26.42614360759397Q 0.5 -26.800000000000004 4.482490602356412 -26.42614360759397L 93.45490358852224 -18.073856392406036Q 97.43739419087865 -17.700000000000003 97.43739419087865 -13.700000000000003L 97.43739419087865 14.700000000000003Q 97.43739419087865 18.700000000000003 93.45490358852224 19.073856392406036L 4.482490602356412 27.42614360759397Q 0.5 27.800000000000004 -3.4824906023564126 27.42614360759397L -92.45490358852224 19.073856392406036Q -96.43739419087865 18.700000000000003 -96.43739419087865 14.700000000000003Z" fill="white" opacity="0"></path><path id="sbsvgPath1939" data-name="topic-shape-fill" opacity="0" d="M -96.43739419087865 -13.700000000000003Q -96.43739419087865 -17.700000000000003 -92.45490358852224 -18.073856392406036L -3.4824906023564126 -26.42614360759397Q 0.5 -26.800000000000004 4.482490602356412 -26.42614360759397L 93.45490358852224 -18.073856392406036Q 97.43739419087865 -17.700000000000003 97.43739419087865 -13.700000000000003L 97.43739419087865 14.700000000000003Q 97.43739419087865 18.700000000000003 93.45490358852224 19.073856392406036L 4.482490602356412 27.42614360759397Q 0.5 27.800000000000004 -3.4824906023564126 27.42614360759397L -92.45490358852224 19.073856392406036Q -96.43739419087865 18.700000000000003 -96.43739419087865 14.700000000000003Z"></path><path id="sbsvgPath1940" data-name="topic-shape" fill="none" stroke="#262626" stroke-width="2" stroke-linecap="" stroke-dasharray="9 3" d="M -96.43739419087865 -13.700000000000003Q -96.43739419087865 -17.700000000000003 -92.45490358852224 -18.073856392406036L -3.4824906023564126 -26.42614360759397Q 0.5 -26.800000000000004 4.482490602356412 -26.42614360759397L 93.45490358852224 -18.073856392406036Q 97.43739419087865 -17.700000000000003 97.43739419087865 -13.700000000000003L 97.43739419087865 14.700000000000003Q 97.43739419087865 18.700000000000003 93.45490358852224 19.073856392406036L 4.482490602356412 27.42614360759397Q 0.5 27.800000000000004 -3.4824906023564126 27.42614360759397L -92.45490358852224 19.073856392406036Q -96.43739419087865 18.700000000000003 -96.43739419087865 14.700000000000003Z"></path><g id="sbsvgG1941" data-name="topic-content" transform="translate(-77.43739419087865 -12)"><g id="sbsvgG1942" data-name="inner-element-group"><g id="sbsvgG2002" data-name="topic-title-text-group" fill="#333333" text-decoration="none" text-anchor="middle" font-size="18" font-family="'NeverMind','Microsoft YaHei','PingFang SC','Microsoft JhengHei',sans-serif" font-weight="500" font-style="normal"><text id="sbsvgText2001" font-family="'NeverMind','Microsoft YaHei','PingFang SC','Microsoft JhengHei',sans-serif" fill="#333333" text-decoration="none" text-anchor="middle" font-size="18" font-weight="500" font-style="normal" transform="translate(77.43739419087865 0)" style="user-select: none; cursor: default;"><tspan id="sbsvgTspan2459" font-family="'NeverMind','Microsoft YaHei','PingFang SC','Microsoft JhengHei',sans-serif" font-size="18" font-weight="500" font-style="normal" text-decoration="none" dy="18" x="0" fill="#333333" text-anchor="middle" style="white-space: pre;">‎ </tspan></text></g><g id="sbsvgG2003" data="markers-group" class="MARKERS"></g></g></g></g></g></g><g id="sbsvgG1944" data-name="branch" class="branch" transform="translate(391.6567898771186 82.5)"><g id="sbsvgG1945" data-name="topic" class="topic" data-topic-id="8269d7ab-7754-4115-b49e-5e9f34b030e0"><g id="sbsvgG1946" data-name="topic-shape-group"><path id="sbsvgPath1947" data-name="topic-shape-shallow-fill" d="M -43.78200149536133 -10.5L 47.78200149536133 -10.5Q 55.78200149536133 -10.5  55.78200149536133 -2.5L 55.78200149536133 6.5Q 55.78200149536133 14.5  47.78200149536133 14.5L -43.78200149536133 14.5Q -51.78200149536133 14.5  -51.78200149536133 6.5L -51.78200149536133 -2.5Q -51.78200149536133 -10.5  -43.78200149536133 -10.5Z" fill="white" opacity="0"></path><path id="sbsvgPath1948" data-name="topic-shape-fill" fill="#e6e6e6" opacity="1" stroke-width="0" d="M -43.78200149536133 -10.5L 47.78200149536133 -10.5Q 55.78200149536133 -10.5  55.78200149536133 -2.5L 55.78200149536133 6.5Q 55.78200149536133 14.5  47.78200149536133 14.5L -43.78200149536133 14.5Q -51.78200149536133 14.5  -51.78200149536133 6.5L -51.78200149536133 -2.5Q -51.78200149536133 -10.5  -43.78200149536133 -10.5Z"></path><path id="sbsvgPath1949" data-name="topic-shape" fill="none" stroke="#ffffff" stroke-width="8" stroke-linecap="" stroke-dasharray="" d="M -43.78200149536133 -10.5L 47.78200149536133 -10.5Q 55.78200149536133 -10.5  55.78200149536133 -2.5L 55.78200149536133 6.5Q 55.78200149536133 14.5  47.78200149536133 14.5L -43.78200149536133 14.5Q -51.78200149536133 14.5  -51.78200149536133 6.5L -51.78200149536133 -2.5Q -51.78200149536133 -10.5  -43.78200149536133 -10.5Z"></path><g id="sbsvgG1950" data-name="topic-content" transform="translate(-41.78200149536133 -0.5)"><g id="sbsvgG1951" data-name="inner-element-group"><g id="sbsvgG1954" data-name="topic-title-text-group" fill="#333333" text-decoration="none" text-anchor="middle" font-size="1" font-family="'NeverMind','Microsoft YaHei','PingFang SC','Microsoft JhengHei',sans-serif" font-weight="500" font-style="normal"><text id="sbsvgText1953" font-family="'NeverMind','Microsoft YaHei','PingFang SC','Microsoft JhengHei',sans-serif" fill="#333333" text-decoration="none" text-anchor="middle" font-size="1" font-weight="500" font-style="normal" transform="translate(41.78200149536133 0)" style="user-select: none; cursor: default;"><tspan id="sbsvgTspan2456" font-family="'NeverMind','Microsoft YaHei','PingFang SC','Microsoft JhengHei',sans-serif" font-size="1" font-weight="500" font-style="normal" text-decoration="none" dy="1" x="0" fill="#333333" text-anchor="middle" style="white-space: pre;">‎  </tspan></text></g><g id="sbsvgG1955" data="markers-group" class="MARKERS"></g></g></g></g></g></g><g id="sbsvgG1963" data-name="branch" class="branch" transform="translate(406.6567898771186 119.5)"><g id="sbsvgG1964" data-name="topic" class="topic" data-topic-id="be062007-67c9-4422-a2ca-ee48c454bf69"><g id="sbsvgG1965" data-name="topic-shape-group"><path id="sbsvgPath1966" data-name="topic-shape-shallow-fill" d="M -58.78200149536133 -10.5L 62.78200149536133 -10.5Q 70.78200149536133 -10.5  70.78200149536133 -2.5L 70.78200149536133 6.5Q 70.78200149536133 14.5  62.78200149536133 14.5L -58.78200149536133 14.5Q -66.78200149536133 14.5  -66.78200149536133 6.5L -66.78200149536133 -2.5Q -66.78200149536133 -10.5  -58.78200149536133 -10.5Z" fill="white" opacity="0"></path><path id="sbsvgPath1967" data-name="topic-shape-fill" fill="#e6e6e6" opacity="1" stroke-width="0" d="M -58.78200149536133 -10.5L 62.78200149536133 -10.5Q 70.78200149536133 -10.5  70.78200149536133 -2.5L 70.78200149536133 6.5Q 70.78200149536133 14.5  62.78200149536133 14.5L -58.78200149536133 14.5Q -66.78200149536133 14.5  -66.78200149536133 6.5L -66.78200149536133 -2.5Q -66.78200149536133 -10.5  -58.78200149536133 -10.5Z"></path><path id="sbsvgPath1968" data-name="topic-shape" fill="none" stroke="#ffffff" stroke-width="8" stroke-linecap="" stroke-dasharray="" d="M -58.78200149536133 -10.5L 62.78200149536133 -10.5Q 70.78200149536133 -10.5  70.78200149536133 -2.5L 70.78200149536133 6.5Q 70.78200149536133 14.5  62.78200149536133 14.5L -58.78200149536133 14.5Q -66.78200149536133 14.5  -66.78200149536133 6.5L -66.78200149536133 -2.5Q -66.78200149536133 -10.5  -58.78200149536133 -10.5Z"></path><g id="sbsvgG1969" data-name="topic-content" transform="translate(-56.78200149536133 -0.5)"><g id="sbsvgG1970" data-name="inner-element-group"><g id="sbsvgG1973" data-name="topic-title-text-group" fill="#333333" text-decoration="none" text-anchor="middle" font-size="1" font-family="'NeverMind','Microsoft YaHei','PingFang SC','Microsoft JhengHei',sans-serif" font-weight="500" font-style="normal"><text id="sbsvgText1972" font-family="'NeverMind','Microsoft YaHei','PingFang SC','Microsoft JhengHei',sans-serif" fill="#333333" text-decoration="none" text-anchor="middle" font-size="1" font-weight="500" font-style="normal" transform="translate(56.78200149536133 0)" style="user-select: none; cursor: default;"><tspan id="sbsvgTspan2457" font-family="'NeverMind','Microsoft YaHei','PingFang SC','Microsoft JhengHei',sans-serif" font-size="1" font-weight="500" font-style="normal" text-decoration="none" dy="1" x="0" fill="#333333" text-anchor="middle" style="white-space: pre;">‎  </tspan></text></g><g id="sbsvgG1974" data="markers-group" class="MARKERS"></g></g></g></g></g></g><g id="sbsvgG1982" data-name="branch" class="branch" transform="translate(391.6567898771186 156.5)"><g id="sbsvgG1983" data-name="topic" class="topic" data-topic-id="f0608fe2-5e87-4a49-ab3a-0a0bbb95b022"><g id="sbsvgG1984" data-name="topic-shape-group"><path id="sbsvgPath1985" data-name="topic-shape-shallow-fill" d="M -43.78200149536133 -10.5L 47.78200149536133 -10.5Q 55.78200149536133 -10.5  55.78200149536133 -2.5L 55.78200149536133 6.5Q 55.78200149536133 14.5  47.78200149536133 14.5L -43.78200149536133 14.5Q -51.78200149536133 14.5  -51.78200149536133 6.5L -51.78200149536133 -2.5Q -51.78200149536133 -10.5  -43.78200149536133 -10.5Z" fill="white" opacity="0"></path><path id="sbsvgPath1986" data-name="topic-shape-fill" fill="#e6e6e6" opacity="1" stroke-width="0" d="M -43.78200149536133 -10.5L 47.78200149536133 -10.5Q 55.78200149536133 -10.5  55.78200149536133 -2.5L 55.78200149536133 6.5Q 55.78200149536133 14.5  47.78200149536133 14.5L -43.78200149536133 14.5Q -51.78200149536133 14.5  -51.78200149536133 6.5L -51.78200149536133 -2.5Q -51.78200149536133 -10.5  -43.78200149536133 -10.5Z"></path><path id="sbsvgPath1987" data-name="topic-shape" fill="none" stroke="#ffffff" stroke-width="8" stroke-linecap="" stroke-dasharray="" d="M -43.78200149536133 -10.5L 47.78200149536133 -10.5Q 55.78200149536133 -10.5  55.78200149536133 -2.5L 55.78200149536133 6.5Q 55.78200149536133 14.5  47.78200149536133 14.5L -43.78200149536133 14.5Q -51.78200149536133 14.5  -51.78200149536133 6.5L -51.78200149536133 -2.5Q -51.78200149536133 -10.5  -43.78200149536133 -10.5Z"></path><g id="sbsvgG1988" data-name="topic-content" transform="translate(-41.78200149536133 -0.5)"><g id="sbsvgG1989" data-name="inner-element-group"><g id="sbsvgG1992" data-name="topic-title-text-group" fill="#333333" text-decoration="none" text-anchor="middle" font-size="1" font-family="'NeverMind','Microsoft YaHei','PingFang SC','Microsoft JhengHei',sans-serif" font-weight="500" font-style="normal"><text id="sbsvgText1991" font-family="'NeverMind','Microsoft YaHei','PingFang SC','Microsoft JhengHei',sans-serif" fill="#333333" text-decoration="none" text-anchor="middle" font-size="1" font-weight="500" font-style="normal" transform="translate(41.78200149536133 0)" style="user-select: none; cursor: default;"><tspan id="sbsvgTspan2458" font-family="'NeverMind','Microsoft YaHei','PingFang SC','Microsoft JhengHei',sans-serif" font-size="1" font-weight="500" font-style="normal" text-decoration="none" dy="1" x="0" fill="#333333" text-anchor="middle" style="white-space: pre;">‎  </tspan></text></g><g id="sbsvgG1993" data="markers-group" class="MARKERS"></g></g></g></g></g></g><g id="sbsvgG2011" data-name="branch" class="branch" transform="translate(-62.27388484813935 -1.5000000000000138)"><g id="sbsvgG2012" data-name="topic" class="topic" data-topic-id="8db289ea-d058-4443-8349-65fd42365724"><g id="sbsvgG2013" data-name="topic-shape-group"><path id="sbsvgPath2014" data-name="topic-shape-shallow-fill" d="M -88.90100733439131 -15.5L 92.90100733439131 -15.5Q 100.90100733439131 -15.5  100.90100733439131 -7.5L 100.90100733439131 11.5Q 100.90100733439131 19.5  92.90100733439131 19.5L -88.90100733439131 19.5Q -96.90100733439131 19.5  -96.90100733439131 11.5L -96.90100733439131 -7.5Q -96.90100733439131 -15.5  -88.90100733439131 -15.5Z" fill="white" opacity="0"></path><path id="sbsvgPath2015" data-name="topic-shape-fill" fill="#e6e6e6" opacity="1" stroke-width="0" d="M -88.90100733439131 -15.5L 92.90100733439131 -15.5Q 100.90100733439131 -15.5  100.90100733439131 -7.5L 100.90100733439131 11.5Q 100.90100733439131 19.5  92.90100733439131 19.5L -88.90100733439131 19.5Q -96.90100733439131 19.5  -96.90100733439131 11.5L -96.90100733439131 -7.5Q -96.90100733439131 -15.5  -88.90100733439131 -15.5Z"></path><path id="sbsvgPath2016" data-name="topic-shape" fill="none" stroke="#ffffff" stroke-width="8" stroke-linecap="" stroke-dasharray="" d="M -88.90100733439131 -15.5L 92.90100733439131 -15.5Q 100.90100733439131 -15.5  100.90100733439131 -7.5L 100.90100733439131 11.5Q 100.90100733439131 19.5  92.90100733439131 19.5L -88.90100733439131 19.5Q -96.90100733439131 19.5  -96.90100733439131 11.5L -96.90100733439131 -7.5Q -96.90100733439131 -15.5  -88.90100733439131 -15.5Z"></path><g id="sbsvgG2017" data-name="topic-content" transform="translate(-81.90100733439131 -0.5)"><g id="sbsvgG2018" data-name="inner-element-group"><g id="sbsvgG2021" data-name="topic-title-text-group" fill="#333333" text-decoration="none" text-anchor="middle" font-size="1" font-family="'NeverMind','Microsoft YaHei','PingFang SC','Microsoft JhengHei','sans-serif',sans-serif" font-weight="400" font-style="normal"><text id="sbsvgText2020" font-family="'NeverMind','Microsoft YaHei','PingFang SC','Microsoft JhengHei','sans-serif',sans-serif" fill="#333333" text-decoration="none" text-anchor="middle" font-size="1" font-weight="400" font-style="normal" transform="translate(81.90100733439131 0)" style="user-select: none; cursor: default;"><tspan id="sbsvgTspan2460" font-family="'NeverMind','Microsoft YaHei','PingFang SC','Microsoft JhengHei','sans-serif',sans-serif" font-size="1" font-weight="400" font-style="normal" text-decoration="none" dy="1" x="0" fill="#333333" text-anchor="middle" style="white-space: pre;">‎  </tspan></text></g><g id="sbsvgG2022" data="markers-group" class="MARKERS"></g></g></g></g></g></g></g><g id="sbsvgG1788" data-name="relationship-container"></g><g id="sbsvgG1792" data-name="cloneG" opacity="0.5"></g></g></g><defs id="sbsvgDefs1779"></defs></svg>