<svg id="sbsvgSvg3057" xmlns="http://www.w3.org/2000/svg" version="1.1" width="800.9605778380414" height="494" xmlns:xlink="http://www.w3.org/1999/xlink" style="display: block; background-color: rgb(255, 255, 255);" viewBox="0 0 753.0138462611608 464.42840053013396"><defs></defs><g id="sbsvgG3059" data-name="container" transform="scale(1) translate(376.5069231305804 232.21420026506698)"><g id="sbsvgG3061" data-name="sheet"><g id="sbsvgG3062" data-name="matrix-container"></g><g id="sbsvgG3063" data-name="tree-map-cell-container"></g><g id="sbsvgG3064" data-name="connection-container"><g id="sbsvgG3205" data-id="ed1a6ebc9b3bec6e117a4b7dc7" mask="url(&quot;#sbsvgMask3206&quot;)"><path id="sbsvgPath3089" data-name="connection" stroke-linecap="round" stroke-dasharray="" d="M72.10416666666666 0 M72.10416666666666 0 C72.10416666666666 0, 72.10416666666666 0, 72.10416666666666 0 M72.10416666666666 0 C72.10416666666666 0, 72.10416666666666 0, 72.10416666666666 0 M72.10416666666666 0 C84.7377998470432 -53.37469448770086, 111.51752308069004 -80.7260108999908, 159.15625 -79 M72.10416666666666 0 C83.39813463698243 -53.9540493313844, 110.87986363249107 -77.78523491267114, 159.15625 -79" stroke="#262626" stroke-width="3" fill="none"></path><path id="sbsvgPath3108" data-name="connection" stroke-linecap="round" stroke-dasharray="" d="M72.10416666666666 0 M72.10416666666666 0 C72.10416666666666 0, 72.10416666666666 0, 72.10416666666666 0 M72.10416666666666 0 C72.10416666666666 0, 72.10416666666666 0, 72.10416666666666 0 M72.10416666666666 0 C84.7377998470432 -0.708027821034193, 111.51752308069004 -1.726010899990797, 159.15625 0 M72.10416666666666 0 C83.39813463698243 -1.2873826647177338, 110.87986363249107 1.2147650873288511, 159.15625 0" stroke="#262626" stroke-width="3" fill="none"></path><path id="sbsvgPath3127" data-name="connection" stroke-linecap="round" stroke-dasharray="" d="M72.10416666666666 0 M72.10416666666666 0 C72.10416666666666 0, 72.10416666666666 0, 72.10416666666666 0 M72.10416666666666 0 C72.10416666666666 0, 72.10416666666666 0, 72.10416666666666 0 M72.10416666666666 0 C84.7377998470432 51.95863884563247, 111.51752308069004 77.2739891000092, 159.15625 79 M72.10416666666666 0 C83.39813463698243 51.37928400194893, 110.87986363249107 80.21476508732886, 159.15625 79" stroke="#262626" stroke-width="3" fill="none"></path><path id="sbsvgPath3146" data-name="connection" stroke-linecap="round" stroke-dasharray="" d="M-72.10416666666666 0 M-72.10416666666666 0 C-72.10416666666666 0, -72.10416666666666 0, -72.10416666666666 0 M-72.10416666666666 0 C-72.10416666666666 0, -72.10416666666666 0, -72.10416666666666 0 M-72.10416666666666 0 C-82.68442237517898 51.95863884563247, -113.9394213637544 77.2739891000092, -159.15625 79 M-72.10416666666666 0 C-84.02408758523976 51.37928400194893, -114.57708081195338 80.21476508732886, -159.15625 79" stroke="#262626" stroke-width="3" fill="none"></path><path id="sbsvgPath3165" data-name="connection" stroke-linecap="round" stroke-dasharray="" d="M-72.10416666666666 0 M-72.10416666666666 0 C-72.10416666666666 0, -72.10416666666666 0, -72.10416666666666 0 M-72.10416666666666 0 C-72.10416666666666 0, -72.10416666666666 0, -72.10416666666666 0 M-72.10416666666666 0 C-82.68442237517898 -0.708027821034193, -113.9394213637544 -1.726010899990797, -159.15625 0 M-72.10416666666666 0 C-84.02408758523976 -1.2873826647177338, -114.57708081195338 1.2147650873288511, -159.15625 0" stroke="#262626" stroke-width="3" fill="none"></path><path id="sbsvgPath3184" data-name="connection" stroke-linecap="round" stroke-dasharray="" d="M-72.10416666666666 0 M-72.10416666666666 0 C-72.10416666666666 0, -72.10416666666666 0, -72.10416666666666 0 M-72.10416666666666 0 C-72.10416666666666 0, -72.10416666666666 0, -72.10416666666666 0 M-72.10416666666666 0 C-82.68442237517898 -53.37469448770086, -113.9394213637544 -80.7260108999908, -159.15625 -79 M-72.10416666666666 0 C-84.02408758523976 -53.9540493313844, -114.57708081195338 -77.78523491267114, -159.15625 -79" stroke="#262626" stroke-width="3" fill="none"></path></g></g><g id="sbsvgG3065" data-name="boundary-container"></g><g id="sbsvgG3066" data-name="branch-container"><g id="sbsvgG3072" data-name="branch" class="branch"><g id="sbsvgG3073" data-name="topic" class="topic" data-topic-id="ed1a6ebc9b3bec6e117a4b7dc7"><g id="sbsvgG3074" data-name="topic-shape-group"><path id="sbsvgPath3075" data-name="topic-shape-shallow-fill" d="M -108.15625 -33.5L 108.15625 -33.5L 108.15625 33.5L -108.15625 33.5z" fill="white" opacity="0"></path><path id="sbsvgPath3076" data-name="topic-shape-fill" opacity="1" fill="none" stroke="#e6e6e6" stroke-width="8" d="M-108 33.5 C-108 33.5, -108 33.5, -108 33.5 M108.80695135068385 26.94350805993158 C60.92813824173758 24.984133926667955, 15.545921486194167 25.460865071517713, -109.2634430823993 28.33023878329432 M109.07446074504935 21.897440437438263 C27.772384514463536 18.945275702919208, -54.08509755278931 21.530748312350973, -108.07429225834127 22.526837128716963 M107.96349477282237 13.939462108626262 C45.753946354755456 14.583588157936473, -15.210981246934965 12.814047297959721, -109.46384881990967 16.32124486016573 M108.41500729232146 9.39436380922919 C31.18660990841731 11.070150046463297, -45.19017198864312 9.942082382291398, -107.7134603649188 11.04425572454064 M107.31735638521312 2.8125549426082674 C30.61944503270819 3.176722797069421, -45.634499642165366 5.197237690103074, -107.38773015497543 2.585822460835203 M107.05208215515921 -3.1403174298116365 C48.99753570426974 -2.8743086436832117, -6.807584577046526 -2.022493304373817, -108.0644472991387 -0.9758439242125603 M106.71032424360317 -6.955983591291351 C55.47397087806159 -7.308905306437104, 5.805953974687525 -8.040671996149879, -108.93152823856826 -7.116211768647451 M108.0866970074249 -14.077950912374652 C21.901315311664373 -14.69844376580392, -63.691692057574706 -14.963343664834525, -107.7056482229199 -13.123684246951813 M108.91624038577083 -21.027531415772785 C54.34200859031273 -21.83038626571202, -0.4285879501604897 -21.34743074252181, -109.29813027462859 -21.501098276763685 M108.5930342384496 -25.34212139911903 C31.21502682071352 -26.78444939835741, -43.89647636433412 -26.985855241455553, -108.00014202771263 -27.06802227605505 M109.3250831565257 -32.030409748067484 C57.88167841098991 -31.401128136509218, 6.205737966537658 -29.865883888360358, -106.4566859150656 -33.00987525152619"></path><path id="sbsvgPath3077" data-name="topic-shape" fill="none" stroke-width="0" stroke-linecap="round" stroke-dasharray="" d="M-110.15535088256001 -32.09870205447078 M-109.30221950248236 -33.63572452609827 C-63.971096272161276 -32.54957334908263, -22.17167489830849 -31.480408368388854, 107.89598033026738 -33.72279621321725 M-107.92125010148257 -33.82255744048753 C-58.15200082225769 -33.32016737471665, -8.611714548320247 -32.370673750012195, 108.19380613573722 -33.13354460348311 M107.89598033026738 -33.72279621321725 C108.51861542625353 -16.624994612298906, 108.51968676013873 -1.6277239266783, 108.12861242139041 33.678360136472136 M108.19380613573722 -33.13354460348311 C107.79632805908099 -20.21768529396504, 107.20945911729709 -4.959185513854024, 108.49279342100789 33.14775619699522 M108.12861242139041 33.678360136472136 C24.97061784820115 32.181313238337545, -59.92878410638814 35.087945188041665, -108.33637529419502 33.40728841232609 M108.49279342100789 33.14775619699522 C40.972009531182756 33.48041986017231, -27.546683267946467 32.16679169409565, -108.67428296960438 33.84261105171743 M-108.33637529419502 33.40728841232609 C-106.4688925207965 10.694987844489514, -107.83422285927459 -9.770753998681904, -109.30221950248236 -33.63572452609827 M-108.67428296960438 33.84261105171743 C-107.3036052028276 11.551952606998384, -108.19915563264861 -9.505991335958242, -107.92125010148257 -33.82255744048753"></path><g id="sbsvgG3078" data-name="topic-content" transform="translate(-79.15625 -18.5)"><g id="sbsvgG3079" data-name="inner-element-group"><g id="sbsvgG3196" data-name="topic-title-text-group" fill="#262626" text-decoration="none" text-anchor="middle" font-size="28" font-family="'NeverMind Hand','Open Sans','NeverMind','Microsoft YaHei','PingFang SC','Microsoft JhengHei',sans-serif" font-weight="bold" font-style="normal"><text id="sbsvgText3195" font-family="'NeverMind Hand','Open Sans','NeverMind','Microsoft YaHei','PingFang SC','Microsoft JhengHei',sans-serif" fill="#262626" text-decoration="none" text-anchor="middle" font-size="28" font-weight="bold" font-style="normal" transform="translate(79.15625 0)" style="user-select: none; cursor: default;"><tspan id="sbsvgTspan3215" font-family="'NeverMind Hand','Open Sans','NeverMind','Microsoft YaHei','PingFang SC','Microsoft JhengHei',sans-serif" font-size="28" font-weight="bold" font-style="normal" text-decoration="none" dy="28" x="0" fill="#262626" text-anchor="middle" style="white-space: pre;">‎ </tspan></text></g><g id="sbsvgG3197" data="markers-group" class="MARKERS"></g></g></g></g></g></g><g id="sbsvgG3081" data-name="branch" class="branch" transform="translate(243.60235595703125 -79)"><g id="sbsvgG3082" data-name="topic" class="topic" data-topic-id="e0c85c9d851a2e1826666b73b1"><g id="sbsvgG3083" data-name="topic-shape-group"><path id="sbsvgPath3084" data-name="topic-shape-shallow-fill" d="
    M -85.44610595703125 -22
    L 76.64610595703125 -22
    L 85.44610595703125 -13.2
    L 85.44610595703125 22
    L -85.44610595703125 22
    z
  
      M 76.64610595703125 -22
      L 76.64610595703125 -13.2
      L 85.44610595703125 -13.2
    " fill="white" opacity="0"></path><path id="sbsvgPath3085" data-name="topic-shape-fill" opacity="1" fill="none" stroke="#e6e6e6" stroke-width="2" d="M-85 22 C-85 22, -85 22, -85 22 M86.23202648311853 20.15036661475899 C47.248644886538386 17.535788374766724, 12.076983565837144 18.26364563070239, -86.92898287624121 22.267580960690974 M86.64045092910528 20.60679884105923 C22.43293604440987 16.496402387991562, -42.62255399897695 20.443815975561744, -85.1134269490838 21.56774077564478 M84.94426503330469 16.617422650754474 C35.33599142841994 18.102663009986298, -12.372036509960903 15.400986879691493, -87.23495569080114 20.253849337995053 M85.63361933082342 17.838718177378198 C24.721930177882314 19.90454259194435, -34.8895407743752 18.1822464016825, -84.56252081543207 20.357718278467654 M83.9577624335885 15.9504317507148 C24.23964770846068 16.426616731509583, -34.80063345953823 19.511471668109305, -84.06520676463842 15.604264138638973 M83.55275056213141 15.022384645044825 C37.7533609110862 15.222138133421556, -4.611679679900422 16.52266146220268, -85.0983959928155 18.327030803263188 M83.03096594959497 17.35735289901497 C42.779132769629356 16.666670535430328, 4.92178353741765 15.549433492049586, -86.42222633212805 17.112721846997736 M85.13236610740424 14.644370509684107 C17.435248263552786 13.57130082882942, -49.357452160865066 13.166860473528509, -84.55059349685908 16.101313115656374 M86.3988853469491 12.194582580029985 C43.59076252989471 11.343954792842284, 0.482836551219225 12.081315222606074, -86.98194212764501 11.471556447446346 M85.9054249510169 13.767810536921045 C24.365065379813313 11.353283119574204, -33.71487091258168 11.045783377066261, -85.00021684318781 11.13276248127222 M87.02309289127588 11.716954778134845 C45.61514978222549 12.279209249839203, 3.852178902179003 14.623169105872522, -82.64371938556432 10.221539424359799 M85.55332357734441 12.28240199238064 C18.342238529399037 11.030978072062148, -47.21647988036275 10.302010739222174, -84.2299320474267 10.750138665735722 M84.44172334820033 7.627740977704546 C42.58470419459045 4.9702830275148315, 0.4064951606094837 8.818156762942683, -85.48036084026099 10.301879762113094 M86.85589597076178 6.754404641687891 C22.4806471068412 7.591419377699507, -36.664354259520785 4.3522637514025035, -86.37396762520075 6.8087639346718785 M83.41947398334742 4.628650163114092 C19.11113230995834 6.649634621962918, -43.14549885317683 8.894049189910298, -85.68810672610998 7.400223945081234 M85.04141361564398 8.276640750467799 C39.321123631671064 5.968281352892534, -6.4551004953682565 6.909904230013499, -83.76811459213495 7.940523053705692 M82.99760456234216 4.969828818738482 C39.17293754629791 3.6218319042772213, -0.4380560688674451 4.600726757869135, -86.53663477748633 4.5026559576392176 M85.93658549636602 2.718495084345362 C15.74395374841988 0.06437893904746872, -49.30485628321767 2.2074346164614007, -86.79972646385431 4.603863288462162 M84.74393735080957 2.599860928952715 C43.40292019657791 3.321052120551483, 0.8766018338501453 3.667679212912928, -86.51906022876501 1.243697284162045 M85.71655809730291 2.175914908945581 C40.68137622661888 0.9741677025705731, -2.5742905683815622 2.018997977152477, -86.55771925598383 1.3337944045662886 M86.60285711437464 1.3157679781317921 C20.375677428767077 3.568581891879453, -38.54671557471158 1.0615056761354267, -85.50193581432104 2.4563069090247156 M84.25491540282965 0.4214099898934575 C23.630082960799328 -0.31375616513191296, -37.39360354617239 -1.2371219965070424, -84.6825714841485 0.9918886676430704 M86.34531111866235 -0.686991049349287 C36.69510328583419 -3.129682785645112, -9.821167474240065 -2.3165853563696053, -86.07525176852941 -2.0781186833977694 M84.07367889732123 0.3540525928139895 C37.96371897049247 -1.3341558476537316, -14.18752666190268 -2.916000988110891, -84.81632416397333 -1.3837191566824911 M85.01880912929774 -2.2645196691155225 C49.081888685747984 -1.5257365409284667, 11.297118205577135 -0.37327601350842743, -85.30243582576513 -5.0797455087304115 M84.49330756515265 -1.750522516667822 C28.645382400229565 -2.162653903588638, -27.80032261088492 -4.963574056252829, -84.05258081108332 -5.528331802785396 M85.59742341190577 -5.174483896791914 C22.0610214214772 -3.3319646278768644, -42.065955214947465 -2.725639049187297, -85.6703532204032 -6.820302082598209 M85.3826978906989 -7.990118072926977 C29.140124519541867 -5.273232266530381, -30.220785338431583 -6.174135634526603, -83.58650744110346 -7.300689505040646 M86.83178873211145 -5.526112248003462 C45.6492861609906 -5.483642925396547, 4.022546834498644 -7.3636378423124444, -86.8393066868186 -6.573079420626163 M86.10918385833502 -5.785974310338476 C24.727449722960586 -6.275732245072709, -35.70724003985526 -7.327839531525963, -84.96483256965875 -9.632969997823238 M86.6991023555398 -9.230195738375166 C30.642764447256923 -10.561437937393771, -24.57240982577205 -6.6726263967901405, -86.99303645938635 -8.462931038439274 M84.48853695243596 -7.632768963277319 C33.41381553001702 -9.613354522809372, -15.51254316046834 -7.688198930844655, -86.3358472123742 -9.480788515508175 M85.8531240478158 -9.049087883532026 C20.704334698244928 -12.893906792774784, -48.528828125447035 -11.935849341526623, -84.18872027248145 -12.91627295166254 M85.33496615737677 -14.048617266118505 C32.045132585242385 -8.980159158334121, -20.609082395583407 -9.419586391076438, -83.49940488487482 -13.573197792470456 M86.27417607456445 -14.446704699099042 C28.45117220692336 -12.979997245445833, -32.74267974421383 -14.95694193042814, -87.30697336047888 -12.911083675920963 M85.0111179575324 -14.925071953237035 C28.01926465816796 -15.258565585240708, -27.613776690512896 -11.924733845815055, -85.35692160278559 -15.76268806308508 M84.11914320141076 -14.238524700701216 C45.56243692543357 -16.556077611453816, 7.437470456585288 -15.926959979541587, -83.80184845775366 -14.226904226839542 M82.7780763372779 -14.87712325900791 C46.64070082902908 -16.53841772949694, 10.171268130838865 -15.063797721028315, -86.16137588173152 -17.575187061727046 M79.97147269397973 -16.041588903963543 C26.384002465941013 -14.706007330887006, -32.030077564343806 -13.134450428955251, -84.25083579868078 -17.294838120043277 M80.94536278098822 -20.19319891780613 C33.00037912540138 -18.28915430845319, -14.431593360751867 -16.1265292340666, -85.76730873733759 -19.96006002277136 M82.29117431789636 -18.52450082451103 C38.36504450123757 -18.58992801997809, -3.256982227042317 -18.494242394901804, -85.30486311763525 -18.24755137115717 M77.82093627303838 -20.98516416400669 C29.580926271528 -17.809532814174876, -19.415066701173792 -17.881998376995316, -85.88082368522882 -19.840109680593013 M80.06482033878565 -22.057426477968672 C31.537560330517586 -19.828368319474148, -16.915821198746567 -22.731552018128326, -85.43829564899207 -19.569272495806217 M78.2611932978034 -21.338321731984593 C27.40202953852713 -24.998070504352437, -22.646173832565545 -25.349034907504908, -86.30958674103022 -21.061576269567013M77 -13.2 C77 -13.2, 77 -13.2, 77 -13.2 M85.49281059324741 -14.53985335409641 C82.71059306412936 -15.094038104712961, 81.45306364536286 -14.802895202338695, 76.22840684950351 -13.692967615723608 M84.57415782518684 -14.987620405629276 C81.79023842755704 -15.97330916561931, 78.70952772438527 -14.591714409969747, 76.96030056782067 -14.651290728524327 M82.9832795099914 -16.914773204773663 C80.8788870831579 -15.978299882188438, 79.34456835627556 -16.788802721276877, 76.32951329275966 -15.823845198601484 M82.15840483270586 -17.240320455655453 C80.30766123067588 -17.12553033787757, 78.7819721788168 -17.55610438544303, 77.10936979614198 -16.610570430383085 M80.7915524867177 -18.409913649857042 C79.62170443192124 -18.36672951492667, 78.58742308855057 -17.749758527606726, 77.18695864707232 -18.479147172272203 M79.78291258431972 -19.34664230324328 C78.9451006134227 -19.41762595986575, 78.62244100153445 -19.22254746054858, 76.98524060107768 -18.85094537951052 M78.8030965949595 -19.964264710098504 C78.34285347528755 -20.08285030309856, 78.122058750391 -20.194574007436632, 76.85777736678719 -19.988727815300226 M78.00661830537021 -21.167781474515795 C77.62059879686683 -21.241933082975446, 77.27980015933512 -21.262155100740493, 77.02247032515704 -21.09493434421718"></path><path id="sbsvgPath3086" data-name="topic-shape" fill="none" stroke-width="0" stroke-linecap="round" stroke-dasharray="" d="M-87.44520683959126 -20.598702054470778 M-86.50928930565715 -20.923421520739794 C-52.19831342822911 -21.00894964260169, -21.683993861359397 -19.78394485038825, 76.08901444749773 -21.81096751926591 M-85.47774435020983 -22.216877123340964 C-48.02286300244579 -21.985902615314906, -11.131209457196775 -20.89801228833813, 76.84086803400616 -21.68452383281896 M76.08901444749773 -21.81096751926591 C78.6540801469222 -19.02425536927685, 80.66205472716905 -17.194689315892035, 85.49842292141571 -13.073088309913103 M76.84086803400616 -21.68452383281896 C78.26979418506951 -20.524926179047874, 79.74462549278992 -17.90752452482033, 85.68322508085267 -13.501842294526588 M85.49842292141571 -13.073088309913103 C86.70310288712382 -0.8636122335493539, 85.90360277935862 16.168606433123355, 85.34119798615575 21.98733786866069 M85.68322508085267 -13.501842294526588 C86.25247304300964 -1.20749475084245, 85.68274162869156 8.356366010680798, 84.90777774713933 22.358980307355523 M85.34119798615575 21.98733786866069 C29.072516279166685 21.103849135150774, -29.94973741497448 23.243080459346636, -85.89911542460322 20.77999083325267 M84.90777774713933 22.358980307355523 C29.780214838347433 23.673653872996585, -27.08418283492506 24.558855982810275, -84.59360657073557 21.997875878587365 M-85.89911542460322 20.77999083325267 C-84.14554204918444 6.716399739682672, -85.09586765743792 -4.653166791051632, -86.50928930565715 -20.923421520739794 M-84.59360657073557 21.997875878587365 C-84.99725462719798 11.985163132473826, -86.52837749049067 0.9437097419053302, -85.47774435020983 -22.216877123340964M74.64700507447124 -20.598702054470778 M76.119189132303 -21.282046457380055 C76.75875768132508 -19.909349295794964, 75.73148538537323 -17.586970585137603, 76.48317960605024 -13.257888203710316 M76.37969714589417 -22.379722397997977 C76.63140650114417 -20.20718323431909, 76.33763340076804 -17.689412823691963, 76.68362769789994 -13.028046527579427 M76.48317960605024 -13.257888203710316 C78.61135262727737 -12.521728514179587, 80.6191319526732 -12.647411006435751, 85.3049323783815 -13.069815002530813 M76.68362769789994 -13.028046527579427 C78.33459924988449 -13.432463357508182, 79.91638975061477 -12.882766451895236, 85.69569492287934 -13.371029546931386"></path><g id="sbsvgG3087" data-name="topic-content" transform="translate(-67.44610595703125 -12)"><g id="sbsvgG3088" data-name="inner-element-group"><g id="sbsvgG3091" data-name="topic-title-text-group" fill="#333333" text-decoration="none" text-anchor="middle" font-size="18" font-family="'NeverMind Hand','NeverMind','Microsoft YaHei','PingFang SC','Microsoft JhengHei',sans-serif" font-weight="600" font-style="normal"><text id="sbsvgText3090" font-family="'NeverMind Hand','NeverMind','Microsoft YaHei','PingFang SC','Microsoft JhengHei',sans-serif" fill="#333333" text-decoration="none" text-anchor="middle" font-size="18" font-weight="600" font-style="normal" transform="translate(67.44610595703125 0)" style="user-select: none; cursor: default;"><tspan id="sbsvgTspan3209" font-family="'NeverMind Hand','NeverMind','Microsoft YaHei','PingFang SC','Microsoft JhengHei',sans-serif" font-size="18" font-weight="600" font-style="normal" text-decoration="none" dy="18" x="0" fill="#333333" text-anchor="middle" style="white-space: pre;">‎ </tspan></text></g><g id="sbsvgG3092" data="markers-group" class="MARKERS"></g></g></g></g></g></g><g id="sbsvgG3100" data-name="branch" class="branch" transform="translate(218.60235595703125 0)"><g id="sbsvgG3101" data-name="topic" class="topic" data-topic-id="cc5b98a638e910be8f37daf1ba"><g id="sbsvgG3102" data-name="topic-shape-group"><path id="sbsvgPath3103" data-name="topic-shape-shallow-fill" d="
    M -60.44610595703125 -22
    L 51.64610595703125 -22
    L 60.44610595703125 -13.2
    L 60.44610595703125 22
    L -60.44610595703125 22
    z
  
      M 51.64610595703125 -22
      L 51.64610595703125 -13.2
      L 60.44610595703125 -13.2
    " fill="white" opacity="0"></path><path id="sbsvgPath3104" data-name="topic-shape-fill" opacity="1" fill="none" stroke="#e6e6e6" stroke-width="2" d="M-60 22 C-60 22, -60 22, -60 22 M61.23202648311853 20.150366614758983 C32.924590811133385 17.945493829250346, 8.428875415027141 18.673351085186013, -61.92898287624121 22.267580960690974 M61.640450929105285 20.606798841059224 C16.184089198708534 16.927783339023595, -30.12024769037962 20.875196926593784, -60.1134269490838 21.56774077564478 M59.94426503330469 16.617422650754467 C24.5338688224554 18.648108804225934, -8.976281721889986 15.94643267393113, -62.234955690801144 20.253849337995053 M60.63361933082342 17.83871817737819 C17.558168426156044 19.36898794412614, -24.21706427782774 17.646691753864292, -59.56252081543207 20.357718278467654 M58.957762433588506 15.950431750714793 C17.195939192175857 16.33986196279527, -23.888050492107883 19.42471689939499, -59.065206764638425 15.604264138638973 M58.55275056213141 15.022384645044818 C26.158019748330116 14.997812178134929, -2.8023620054125784 16.298335506916054, -60.0983959928155 18.327030803263188 M58.03096594959497 17.357352899014963 C29.662266764044762 16.501612679958352, 3.6880515262484552 15.384375636577612, -61.42222633212805 17.112721846997736 M60.13236610740423 14.6443705096841 C12.42749082148075 13.434646666049966, -34.37296704500913 13.030206310749058, -59.55059349685907 16.101313115656374 M61.3988853469491 12.194582580029978 C31.268691381812097 11.75172033071519, 0.8386942550539971 12.48908076047898, -61.98194212764501 11.471556447446346 M60.905424951016904 13.767810536921038 C17.076054301857948 11.122382032871256, -23.29289306849241 10.814882290363316, -60.00021684318781 11.13276248127222 M62.02309289127588 11.716954778134838 C32.235427889227864 11.846044290065777, 2.092735116183751 14.190004146099097, -57.643719385564324 10.221539424359799 M60.553323577344415 12.282401992380633 C12.778807845711707 11.246408903598795, -33.343341247737406 10.517441570758823, -59.2299320474267 10.750138665735722 M59.44172334820032 7.627740977704539 C29.967066130042078 5.5179439330101125, 0.17121903151273726 9.365817668437964, -60.480360840260985 10.301879762113094 M61.85589597076178 6.754404641687884 C15.476474109292024 8.134617903232582, -25.672700254619137 4.8954622769355804, -61.37396762520075 6.8087639346718785 M58.419473983347416 4.628650163114085 C12.952570948004723 6.798278634548196, -30.462621577084064 9.042693202495578, -60.68810672610998 7.400223945081234 M60.041413615643975 8.276640750467791 C27.675400748848908 6.217399656772624, -4.746546261012568 7.159022533893591, -58.76811459213495 7.940523053705692 M57.99760456234217 4.969828818738475 C27.065282186865808 3.4154077696800336, 0.3466332122683524 4.394302623271949, -61.53663477748633 4.5026559576392176 M60.93658549636602 2.718495084345355 C10.547560420632362 0.5876447892189112, -34.697642938792704 2.730700466632846, -61.79972646385431 4.603863288462161 M59.743937350809574 2.5998609289527086 C30.662914690375327 3.11519071340562, 0.39659082144498825 3.4618178057670663, -61.519060228765014 1.2436972841620442 M60.716558097302915 2.175914908945575 C28.83055078089237 0.7607439255714523, -1.2759414598345828 1.8055742001533575, -61.55771925598383 1.3337944045662877 M61.602857114374636 1.3157679781317855 C13.68755830228328 3.180986840724954, -26.922953827679173 0.6739106249809301, -60.501935814321044 2.456306909024715 M59.254915402829646 0.42140998989345085 C16.527594485878936 -0.2854123091697601, -26.598580496013177 -1.2087781405448874, -59.682571484148504 0.9918886676430699 M61.34531111866236 -0.6869910493492937 C25.565677866339684 -2.606344473361958, -7.080018313229084 -1.7932470440864496, -61.07525176852941 -2.0781186833977703 M59.07367889732122 0.3540525928139828 C27.407539191842073 -1.39043329000472, -10.299886219203486 -2.972278430461878, -59.816324163973334 -1.3837191566824918 M60.018809129297736 -2.2645196691155287 C35.10811322629452 -1.6484438538551216, 8.349567286670208 -0.4959833264350815, -60.30243582576513 -5.0797455087304115 M59.49330756515265 -1.7505225166678282 C19.904857555031768 -2.0914283919334307, -20.281372301280513 -4.8923485445976205, -59.05258081108332 -5.528331802785397 M60.597423411905766 -5.174483896791921 C16.01007922589779 -3.5694519257545387, -29.16783960610628 -2.9631263470649687, -60.67035322040319 -6.820302082598209 M60.38269789069891 -7.990118072926984 C21.219647231698037 -5.743006989955893, -21.061739914119244 -6.643910357952113, -58.58650744110346 -7.300689505040646 M61.831788732111455 -5.526112248003469 C32.3511657088995 -5.416009314060201, 2.426305930316448 -7.296004230976097, -61.8393066868186 -6.573079420626163 M61.109183858335015 -5.785974310338483 C17.817630878090853 -6.317278459072105, -24.526877729594723 -7.369385745525356, -59.96483256965875 -9.632969997823238 M61.6991023555398 -9.230195738375173 C21.695337519049644 -10.617256643772116, -17.467263682186605 -6.7284451031684815, -61.993036459386346 -8.462931038439274 M59.48853695243597 -7.632768963277326 C23.530156150460243 -9.763852174282064, -10.27986191958189 -7.838696582317348, -61.33584721237421 -9.480788515508175 M60.8531240478158 -9.049087883532033 C14.990934500098229 -12.42483453989028, -34.95562852174044 -11.466777088642118, -59.18872027248144 -12.91627295166254 M60.33496615737677 -14.048617266118512 C22.854195705056185 -9.289837510585777, -13.990956155955805 -9.72926474332809, -58.49940488487482 -13.573197792470456 M61.27417607456446 -14.44670469909905 C20.470671495795244 -12.872883627414694, -23.703681166470066 -14.849828312396998, -62.30697336047888 -12.911083675920963 M60.011117957532406 -14.925071953237042 C19.8523471981287 -15.359843842983237, -18.947611610591412 -12.02601210355758, -60.35692160278559 -15.76268806308508 M59.11914320141077 -14.238524700701223 C31.571826134063304 -16.782574468486, 4.456248873844743 -16.153456836573774, -58.80184845775366 -14.226904226839542 M57.77807633727789 -14.877123259007917 C32.69500547163188 -16.577545663848507, 7.279877416044468 -15.102925655379885, -61.16137588173151 -17.575187061727046 M54.97147269397974 -16.04158890396355 C18.35346782784909 -15.209678124286226, -23.09114684052765 -13.638121222354467, -59.25083579868078 -17.294838120043277 M55.94536278098822 -20.193198917806136 C22.727686189860105 -18.32035288193821, -9.976979231834411 -16.157727807551616, -60.767308737337586 -19.96006002277136 M57.29117431789636 -18.524500824511037 C25.745546175725757 -18.710857207141807, -3.4959788780659435 -18.615171582065518, -60.30486311763525 -18.24755137115717 M52.820936273038384 -20.985164164006697 C19.26376558877527 -18.051634805724014, -15.049388066679251 -18.12410036854445, -60.880823685228826 -19.840109680593013 M55.06482033878565 -22.05742647796868 C20.84091052766889 -19.865270728893567, -13.30912080444396 -22.768454427547745, -60.43829564899206 -19.569272495806217 M53.2611932978034 -21.3383217319846 C17.917352326214314 -24.553661134302608, -16.61552825719118 -24.904625537455075, -61.309586741030216 -21.061576269567013M59.31486454904079 -13.37335325181484 C57.824821998775 -12.510227778732776, 56.99068704128265 -12.958241713821888, 51.07074564874172 -12.276789588332175 M59.43120926909149 -14.497371684834361 C56.99676893111318 -14.982283341623841, 55.896430689692494 -14.727533302046357, 51.32485599331558 -13.756346663758158 M58.49213527873158 -15.017960347682237 C56.105918652191754 -15.862836427673697, 53.46530947804451 -14.67861235140264, 51.96597191527486 -14.729677767306566 M56.986066258326176 -16.795644337311387 C55.232405902631584 -16.0152499018237, 53.95380696356297 -16.6906689343974, 51.441261077299714 -15.886537665501237 M56.12672386616468 -17.232256364524364 C54.6461289845407 -17.140424270302056, 53.42557774305344 -17.484883508354425, 52.08749583691358 -16.72845634430647 M54.84366436503828 -18.35743523739278 C53.966278323940934 -18.325047136195003, 53.190567316412924 -17.862318895705044, 52.14021898530424 -18.409360379204152 M53.85527505621314 -19.297761535495518 C53.296733742281795 -19.34508397324383, 53.081627334356305 -19.21503164036572, 51.99016040071845 -18.967296919673682 M52.90154829747975 -20.08213235504925 C52.67142673764378 -20.141425151549278, 52.5610293751955 -20.197287003718316, 51.928888683393595 -20.094363907650113 M52 -21.2 C52 -21.2, 52 -21.2, 52 -21.2"></path><path id="sbsvgPath3105" data-name="topic-shape" fill="none" stroke-width="0" stroke-linecap="round" stroke-dasharray="" d="M-62.445206839591265 -20.598702054470778 M-61.50928930565715 -20.923421520739794 C-37.33113503097595 -21.099237794588586, -16.94963706685307 -19.874233002375146, 51.08901444749774 -21.81096751926591 M-60.47774435020983 -22.216877123340964 C-34.608650881748886 -22.162909570573454, -9.302785215802963 -21.075019243596678, 51.840868034006164 -21.68452383281896 M51.08901444749774 -21.81096751926591 C53.65408014692219 -19.02425536927685, 55.66205472716905 -17.194689315892035, 60.49842292141571 -13.073088309913103 M51.840868034006164 -21.68452383281896 C53.26979418506953 -20.524926179047874, 54.74462549278993 -17.90752452482033, 60.683225080852665 -13.501842294526588 M60.49842292141571 -13.073088309913103 C61.703102887123826 -0.8636122335493539, 60.90360277935863 16.168606433123355, 60.34119798615575 21.98733786866069 M60.683225080852665 -13.501842294526588 C61.25247304300964 -1.20749475084245, 60.68274162869155 8.356366010680798, 59.907777747139335 22.358980307355523 M60.34119798615575 21.98733786866069 C20.941899239888535 21.30751900076644, -21.210971493530778 23.446750324962302, -60.899115424603224 20.77999083325267 M59.907777747139335 22.358980307355523 C21.155696967280505 23.182538685701804, -19.333218577058915 24.067740795515494, -59.593606570735574 21.997875878587365 M-60.899115424603224 20.77999083325267 C-59.14554204918444 6.716399739682672, -60.09586765743792 -4.653166791051632, -61.50928930565715 -20.923421520739794 M-59.593606570735574 21.997875878587365 C-59.99725462719798 11.985163132473826, -61.528377490490676 0.9437097419053302, -60.47774435020983 -22.216877123340964M49.64700507447124 -20.598702054470778 M51.119189132303 -21.282046457380055 C51.75875768132508 -19.909349295794964, 50.73148538537324 -17.586970585137603, 51.48317960605026 -13.257888203710316 M51.37969714589417 -22.379722397997977 C51.63140650114418 -20.20718323431909, 51.33763340076805 -17.689412823691963, 51.68362769789994 -13.028046527579427 M51.48317960605026 -13.257888203710316 C53.61135262727738 -12.521728514179587, 55.6191319526732 -12.647411006435751, 60.304932378381494 -13.069815002530813 M51.68362769789994 -13.028046527579427 C53.33459924988449 -13.432463357508182, 54.91638975061476 -12.882766451895236, 60.69569492287934 -13.371029546931386"></path><g id="sbsvgG3106" data-name="topic-content" transform="translate(-42.44610595703125 -12)"><g id="sbsvgG3107" data-name="inner-element-group"><g id="sbsvgG3110" data-name="topic-title-text-group" fill="#333333" text-decoration="none" text-anchor="middle" font-size="18" font-family="'NeverMind Hand','NeverMind','Microsoft YaHei','PingFang SC','Microsoft JhengHei',sans-serif" font-weight="600" font-style="normal"><text id="sbsvgText3109" font-family="'NeverMind Hand','NeverMind','Microsoft YaHei','PingFang SC','Microsoft JhengHei',sans-serif" fill="#333333" text-decoration="none" text-anchor="middle" font-size="18" font-weight="600" font-style="normal" transform="translate(42.44610595703125 0)" style="user-select: none; cursor: default;"><tspan id="sbsvgTspan3210" font-family="'NeverMind Hand','NeverMind','Microsoft YaHei','PingFang SC','Microsoft JhengHei',sans-serif" font-size="18" font-weight="600" font-style="normal" text-decoration="none" dy="18" x="0" fill="#333333" text-anchor="middle" style="white-space: pre;">‎ </tspan></text></g><g id="sbsvgG3111" data="markers-group" class="MARKERS"></g></g></g></g></g></g><g id="sbsvgG3119" data-name="branch" class="branch" transform="translate(243.60235595703125 79)"><g id="sbsvgG3120" data-name="topic" class="topic" data-topic-id="5ca9be59780a4cae214548b31a"><g id="sbsvgG3121" data-name="topic-shape-group"><path id="sbsvgPath3122" data-name="topic-shape-shallow-fill" d="
    M -85.44610595703125 -22
    L 76.64610595703125 -22
    L 85.44610595703125 -13.2
    L 85.44610595703125 22
    L -85.44610595703125 22
    z
  
      M 76.64610595703125 -22
      L 76.64610595703125 -13.2
      L 85.44610595703125 -13.2
    " fill="white" opacity="0"></path><path id="sbsvgPath3123" data-name="topic-shape-fill" opacity="1" fill="none" stroke="#e6e6e6" stroke-width="2" d="M-85 22 C-85 22, -85 22, -85 22 M86.23202648311853 20.15036661475899 C47.248644886538386 17.535788374766724, 12.076983565837144 18.26364563070239, -86.92898287624121 22.267580960690974 M86.64045092910528 20.60679884105923 C22.43293604440987 16.496402387991562, -42.62255399897695 20.443815975561744, -85.1134269490838 21.56774077564478 M84.94426503330469 16.617422650754474 C35.33599142841994 18.102663009986298, -12.372036509960903 15.400986879691493, -87.23495569080114 20.253849337995053 M85.63361933082342 17.838718177378198 C24.721930177882314 19.90454259194435, -34.8895407743752 18.1822464016825, -84.56252081543207 20.357718278467654 M83.9577624335885 15.9504317507148 C24.23964770846068 16.426616731509583, -34.80063345953823 19.511471668109305, -84.06520676463842 15.604264138638973 M83.55275056213141 15.022384645044825 C37.7533609110862 15.222138133421556, -4.611679679900422 16.52266146220268, -85.0983959928155 18.327030803263188 M83.03096594959497 17.35735289901497 C42.779132769629356 16.666670535430328, 4.92178353741765 15.549433492049586, -86.42222633212805 17.112721846997736 M85.13236610740424 14.644370509684107 C17.435248263552786 13.57130082882942, -49.357452160865066 13.166860473528509, -84.55059349685908 16.101313115656374 M86.3988853469491 12.194582580029985 C43.59076252989471 11.343954792842284, 0.482836551219225 12.081315222606074, -86.98194212764501 11.471556447446346 M85.9054249510169 13.767810536921045 C24.365065379813313 11.353283119574204, -33.71487091258168 11.045783377066261, -85.00021684318781 11.13276248127222 M87.02309289127588 11.716954778134845 C45.61514978222549 12.279209249839203, 3.852178902179003 14.623169105872522, -82.64371938556432 10.221539424359799 M85.55332357734441 12.28240199238064 C18.342238529399037 11.030978072062148, -47.21647988036275 10.302010739222174, -84.2299320474267 10.750138665735722 M84.44172334820033 7.627740977704546 C42.58470419459045 4.9702830275148315, 0.4064951606094837 8.818156762942683, -85.48036084026099 10.301879762113094 M86.85589597076178 6.754404641687891 C22.4806471068412 7.591419377699507, -36.664354259520785 4.3522637514025035, -86.37396762520075 6.8087639346718785 M83.41947398334742 4.628650163114092 C19.11113230995834 6.649634621962918, -43.14549885317683 8.894049189910298, -85.68810672610998 7.400223945081234 M85.04141361564398 8.276640750467799 C39.321123631671064 5.968281352892534, -6.4551004953682565 6.909904230013499, -83.76811459213495 7.940523053705692 M82.99760456234216 4.969828818738482 C39.17293754629791 3.6218319042772213, -0.4380560688674451 4.600726757869135, -86.53663477748633 4.5026559576392176 M85.93658549636602 2.718495084345362 C15.74395374841988 0.06437893904746872, -49.30485628321767 2.2074346164614007, -86.79972646385431 4.603863288462162 M84.74393735080957 2.599860928952715 C43.40292019657791 3.321052120551483, 0.8766018338501453 3.667679212912928, -86.51906022876501 1.243697284162045 M85.71655809730291 2.175914908945581 C40.68137622661888 0.9741677025705731, -2.5742905683815622 2.018997977152477, -86.55771925598383 1.3337944045662886 M86.60285711437464 1.3157679781317921 C20.375677428767077 3.568581891879453, -38.54671557471158 1.0615056761354267, -85.50193581432104 2.4563069090247156 M84.25491540282965 0.4214099898934575 C23.630082960799328 -0.31375616513191296, -37.39360354617239 -1.2371219965070424, -84.6825714841485 0.9918886676430704 M86.34531111866235 -0.686991049349287 C36.69510328583419 -3.129682785645112, -9.821167474240065 -2.3165853563696053, -86.07525176852941 -2.0781186833977694 M84.07367889732123 0.3540525928139895 C37.96371897049247 -1.3341558476537316, -14.18752666190268 -2.916000988110891, -84.81632416397333 -1.3837191566824911 M85.01880912929774 -2.2645196691155225 C49.081888685747984 -1.5257365409284667, 11.297118205577135 -0.37327601350842743, -85.30243582576513 -5.0797455087304115 M84.49330756515265 -1.750522516667822 C28.645382400229565 -2.162653903588638, -27.80032261088492 -4.963574056252829, -84.05258081108332 -5.528331802785396 M85.59742341190577 -5.174483896791914 C22.0610214214772 -3.3319646278768644, -42.065955214947465 -2.725639049187297, -85.6703532204032 -6.820302082598209 M85.3826978906989 -7.990118072926977 C29.140124519541867 -5.273232266530381, -30.220785338431583 -6.174135634526603, -83.58650744110346 -7.300689505040646 M86.83178873211145 -5.526112248003462 C45.6492861609906 -5.483642925396547, 4.022546834498644 -7.3636378423124444, -86.8393066868186 -6.573079420626163 M86.10918385833502 -5.785974310338476 C24.727449722960586 -6.275732245072709, -35.70724003985526 -7.327839531525963, -84.96483256965875 -9.632969997823238 M86.6991023555398 -9.230195738375166 C30.642764447256923 -10.561437937393771, -24.57240982577205 -6.6726263967901405, -86.99303645938635 -8.462931038439274 M84.48853695243596 -7.632768963277319 C33.41381553001702 -9.613354522809372, -15.51254316046834 -7.688198930844655, -86.3358472123742 -9.480788515508175 M85.8531240478158 -9.049087883532026 C20.704334698244928 -12.893906792774784, -48.528828125447035 -11.935849341526623, -84.18872027248145 -12.91627295166254 M85.33496615737677 -14.048617266118505 C32.045132585242385 -8.980159158334121, -20.609082395583407 -9.419586391076438, -83.49940488487482 -13.573197792470456 M86.27417607456445 -14.446704699099042 C28.45117220692336 -12.979997245445833, -32.74267974421383 -14.95694193042814, -87.30697336047888 -12.911083675920963 M85.0111179575324 -14.925071953237035 C28.01926465816796 -15.258565585240708, -27.613776690512896 -11.924733845815055, -85.35692160278559 -15.76268806308508 M84.11914320141076 -14.238524700701216 C45.56243692543357 -16.556077611453816, 7.437470456585288 -15.926959979541587, -83.80184845775366 -14.226904226839542 M82.7780763372779 -14.87712325900791 C46.64070082902908 -16.53841772949694, 10.171268130838865 -15.063797721028315, -86.16137588173152 -17.575187061727046 M79.97147269397973 -16.041588903963543 C26.384002465941013 -14.706007330887006, -32.030077564343806 -13.134450428955251, -84.25083579868078 -17.294838120043277 M80.94536278098822 -20.19319891780613 C33.00037912540138 -18.28915430845319, -14.431593360751867 -16.1265292340666, -85.76730873733759 -19.96006002277136 M82.29117431789636 -18.52450082451103 C38.36504450123757 -18.58992801997809, -3.256982227042317 -18.494242394901804, -85.30486311763525 -18.24755137115717 M77.82093627303838 -20.98516416400669 C29.580926271528 -17.809532814174876, -19.415066701173792 -17.881998376995316, -85.88082368522882 -19.840109680593013 M80.06482033878565 -22.057426477968672 C31.537560330517586 -19.828368319474148, -16.915821198746567 -22.731552018128326, -85.43829564899207 -19.569272495806217 M78.2611932978034 -21.338321731984593 C27.40202953852713 -24.998070504352437, -22.646173832565545 -25.349034907504908, -86.30958674103022 -21.061576269567013M77 -13.2 C77 -13.2, 77 -13.2, 77 -13.2 M85.49281059324741 -14.53985335409641 C82.71059306412936 -15.094038104712961, 81.45306364536286 -14.802895202338695, 76.22840684950351 -13.692967615723608 M84.57415782518684 -14.987620405629276 C81.79023842755704 -15.97330916561931, 78.70952772438527 -14.591714409969747, 76.96030056782067 -14.651290728524327 M82.9832795099914 -16.914773204773663 C80.8788870831579 -15.978299882188438, 79.34456835627556 -16.788802721276877, 76.32951329275966 -15.823845198601484 M82.15840483270586 -17.240320455655453 C80.30766123067588 -17.12553033787757, 78.7819721788168 -17.55610438544303, 77.10936979614198 -16.610570430383085 M80.7915524867177 -18.409913649857042 C79.62170443192124 -18.36672951492667, 78.58742308855057 -17.749758527606726, 77.18695864707232 -18.479147172272203 M79.78291258431972 -19.34664230324328 C78.9451006134227 -19.41762595986575, 78.62244100153445 -19.22254746054858, 76.98524060107768 -18.85094537951052 M78.8030965949595 -19.964264710098504 C78.34285347528755 -20.08285030309856, 78.122058750391 -20.194574007436632, 76.85777736678719 -19.988727815300226 M78.00661830537021 -21.167781474515795 C77.62059879686683 -21.241933082975446, 77.27980015933512 -21.262155100740493, 77.02247032515704 -21.09493434421718"></path><path id="sbsvgPath3124" data-name="topic-shape" fill="none" stroke-width="0" stroke-linecap="round" stroke-dasharray="" d="M-87.44520683959126 -20.598702054470778 M-86.50928930565715 -20.923421520739794 C-52.19831342822911 -21.00894964260169, -21.683993861359397 -19.78394485038825, 76.08901444749773 -21.81096751926591 M-85.47774435020983 -22.216877123340964 C-48.02286300244579 -21.985902615314906, -11.131209457196775 -20.89801228833813, 76.84086803400616 -21.68452383281896 M76.08901444749773 -21.81096751926591 C78.6540801469222 -19.02425536927685, 80.66205472716905 -17.194689315892035, 85.49842292141571 -13.073088309913103 M76.84086803400616 -21.68452383281896 C78.26979418506951 -20.524926179047874, 79.74462549278992 -17.90752452482033, 85.68322508085267 -13.501842294526588 M85.49842292141571 -13.073088309913103 C86.70310288712382 -0.8636122335493539, 85.90360277935862 16.168606433123355, 85.34119798615575 21.98733786866069 M85.68322508085267 -13.501842294526588 C86.25247304300964 -1.20749475084245, 85.68274162869156 8.356366010680798, 84.90777774713933 22.358980307355523 M85.34119798615575 21.98733786866069 C29.072516279166685 21.103849135150774, -29.94973741497448 23.243080459346636, -85.89911542460322 20.77999083325267 M84.90777774713933 22.358980307355523 C29.780214838347433 23.673653872996585, -27.08418283492506 24.558855982810275, -84.59360657073557 21.997875878587365 M-85.89911542460322 20.77999083325267 C-84.14554204918444 6.716399739682672, -85.09586765743792 -4.653166791051632, -86.50928930565715 -20.923421520739794 M-84.59360657073557 21.997875878587365 C-84.99725462719798 11.985163132473826, -86.52837749049067 0.9437097419053302, -85.47774435020983 -22.216877123340964M74.64700507447124 -20.598702054470778 M76.119189132303 -21.282046457380055 C76.75875768132508 -19.909349295794964, 75.73148538537323 -17.586970585137603, 76.48317960605024 -13.257888203710316 M76.37969714589417 -22.379722397997977 C76.63140650114417 -20.20718323431909, 76.33763340076804 -17.689412823691963, 76.68362769789994 -13.028046527579427 M76.48317960605024 -13.257888203710316 C78.61135262727737 -12.521728514179587, 80.6191319526732 -12.647411006435751, 85.3049323783815 -13.069815002530813 M76.68362769789994 -13.028046527579427 C78.33459924988449 -13.432463357508182, 79.91638975061477 -12.882766451895236, 85.69569492287934 -13.371029546931386"></path><g id="sbsvgG3125" data-name="topic-content" transform="translate(-67.44610595703125 -12)"><g id="sbsvgG3126" data-name="inner-element-group"><g id="sbsvgG3129" data-name="topic-title-text-group" fill="#333333" text-decoration="none" text-anchor="middle" font-size="18" font-family="'NeverMind Hand','NeverMind','Microsoft YaHei','PingFang SC','Microsoft JhengHei',sans-serif" font-weight="600" font-style="normal"><text id="sbsvgText3128" font-family="'NeverMind Hand','NeverMind','Microsoft YaHei','PingFang SC','Microsoft JhengHei',sans-serif" fill="#333333" text-decoration="none" text-anchor="middle" font-size="18" font-weight="600" font-style="normal" transform="translate(67.44610595703125 0)" style="user-select: none; cursor: default;"><tspan id="sbsvgTspan3211" font-family="'NeverMind Hand','NeverMind','Microsoft YaHei','PingFang SC','Microsoft JhengHei',sans-serif" font-size="18" font-weight="600" font-style="normal" text-decoration="none" dy="18" x="0" fill="#333333" text-anchor="middle" style="white-space: pre;">‎ </tspan></text></g><g id="sbsvgG3130" data="markers-group" class="MARKERS"></g></g></g></g></g></g><g id="sbsvgG3138" data-name="branch" class="branch" transform="translate(-243.60235595703125 79)"><g id="sbsvgG3139" data-name="topic" class="topic" data-topic-id="575b79e394999c2eb054783082"><g id="sbsvgG3140" data-name="topic-shape-group"><path id="sbsvgPath3141" data-name="topic-shape-shallow-fill" d="
    M -85.44610595703125 -22
    L 76.64610595703125 -22
    L 85.44610595703125 -13.2
    L 85.44610595703125 22
    L -85.44610595703125 22
    z
  
      M 76.64610595703125 -22
      L 76.64610595703125 -13.2
      L 85.44610595703125 -13.2
    " fill="white" opacity="0"></path><path id="sbsvgPath3142" data-name="topic-shape-fill" opacity="1" fill="none" stroke="#e6e6e6" stroke-width="2" d="M-85 22 C-85 22, -85 22, -85 22 M86.23202648311853 20.15036661475899 C47.248644886538386 17.535788374766724, 12.076983565837144 18.26364563070239, -86.92898287624121 22.267580960690974 M86.64045092910528 20.60679884105923 C22.43293604440987 16.496402387991562, -42.62255399897695 20.443815975561744, -85.1134269490838 21.56774077564478 M84.94426503330469 16.617422650754474 C35.33599142841994 18.102663009986298, -12.372036509960903 15.400986879691493, -87.23495569080114 20.253849337995053 M85.63361933082342 17.838718177378198 C24.721930177882314 19.90454259194435, -34.8895407743752 18.1822464016825, -84.56252081543207 20.357718278467654 M83.9577624335885 15.9504317507148 C24.23964770846068 16.426616731509583, -34.80063345953823 19.511471668109305, -84.06520676463842 15.604264138638973 M83.55275056213141 15.022384645044825 C37.7533609110862 15.222138133421556, -4.611679679900422 16.52266146220268, -85.0983959928155 18.327030803263188 M83.03096594959497 17.35735289901497 C42.779132769629356 16.666670535430328, 4.92178353741765 15.549433492049586, -86.42222633212805 17.112721846997736 M85.13236610740424 14.644370509684107 C17.435248263552786 13.57130082882942, -49.357452160865066 13.166860473528509, -84.55059349685908 16.101313115656374 M86.3988853469491 12.194582580029985 C43.59076252989471 11.343954792842284, 0.482836551219225 12.081315222606074, -86.98194212764501 11.471556447446346 M85.9054249510169 13.767810536921045 C24.365065379813313 11.353283119574204, -33.71487091258168 11.045783377066261, -85.00021684318781 11.13276248127222 M87.02309289127588 11.716954778134845 C45.61514978222549 12.279209249839203, 3.852178902179003 14.623169105872522, -82.64371938556432 10.221539424359799 M85.55332357734441 12.28240199238064 C18.342238529399037 11.030978072062148, -47.21647988036275 10.302010739222174, -84.2299320474267 10.750138665735722 M84.44172334820033 7.627740977704546 C42.58470419459045 4.9702830275148315, 0.4064951606094837 8.818156762942683, -85.48036084026099 10.301879762113094 M86.85589597076178 6.754404641687891 C22.4806471068412 7.591419377699507, -36.664354259520785 4.3522637514025035, -86.37396762520075 6.8087639346718785 M83.41947398334742 4.628650163114092 C19.11113230995834 6.649634621962918, -43.14549885317683 8.894049189910298, -85.68810672610998 7.400223945081234 M85.04141361564398 8.276640750467799 C39.321123631671064 5.968281352892534, -6.4551004953682565 6.909904230013499, -83.76811459213495 7.940523053705692 M82.99760456234216 4.969828818738482 C39.17293754629791 3.6218319042772213, -0.4380560688674451 4.600726757869135, -86.53663477748633 4.5026559576392176 M85.93658549636602 2.718495084345362 C15.74395374841988 0.06437893904746872, -49.30485628321767 2.2074346164614007, -86.79972646385431 4.603863288462162 M84.74393735080957 2.599860928952715 C43.40292019657791 3.321052120551483, 0.8766018338501453 3.667679212912928, -86.51906022876501 1.243697284162045 M85.71655809730291 2.175914908945581 C40.68137622661888 0.9741677025705731, -2.5742905683815622 2.018997977152477, -86.55771925598383 1.3337944045662886 M86.60285711437464 1.3157679781317921 C20.375677428767077 3.568581891879453, -38.54671557471158 1.0615056761354267, -85.50193581432104 2.4563069090247156 M84.25491540282965 0.4214099898934575 C23.630082960799328 -0.31375616513191296, -37.39360354617239 -1.2371219965070424, -84.6825714841485 0.9918886676430704 M86.34531111866235 -0.686991049349287 C36.69510328583419 -3.129682785645112, -9.821167474240065 -2.3165853563696053, -86.07525176852941 -2.0781186833977694 M84.07367889732123 0.3540525928139895 C37.96371897049247 -1.3341558476537316, -14.18752666190268 -2.916000988110891, -84.81632416397333 -1.3837191566824911 M85.01880912929774 -2.2645196691155225 C49.081888685747984 -1.5257365409284667, 11.297118205577135 -0.37327601350842743, -85.30243582576513 -5.0797455087304115 M84.49330756515265 -1.750522516667822 C28.645382400229565 -2.162653903588638, -27.80032261088492 -4.963574056252829, -84.05258081108332 -5.528331802785396 M85.59742341190577 -5.174483896791914 C22.0610214214772 -3.3319646278768644, -42.065955214947465 -2.725639049187297, -85.6703532204032 -6.820302082598209 M85.3826978906989 -7.990118072926977 C29.140124519541867 -5.273232266530381, -30.220785338431583 -6.174135634526603, -83.58650744110346 -7.300689505040646 M86.83178873211145 -5.526112248003462 C45.6492861609906 -5.483642925396547, 4.022546834498644 -7.3636378423124444, -86.8393066868186 -6.573079420626163 M86.10918385833502 -5.785974310338476 C24.727449722960586 -6.275732245072709, -35.70724003985526 -7.327839531525963, -84.96483256965875 -9.632969997823238 M86.6991023555398 -9.230195738375166 C30.642764447256923 -10.561437937393771, -24.57240982577205 -6.6726263967901405, -86.99303645938635 -8.462931038439274 M84.48853695243596 -7.632768963277319 C33.41381553001702 -9.613354522809372, -15.51254316046834 -7.688198930844655, -86.3358472123742 -9.480788515508175 M85.8531240478158 -9.049087883532026 C20.704334698244928 -12.893906792774784, -48.528828125447035 -11.935849341526623, -84.18872027248145 -12.91627295166254 M85.33496615737677 -14.048617266118505 C32.045132585242385 -8.980159158334121, -20.609082395583407 -9.419586391076438, -83.49940488487482 -13.573197792470456 M86.27417607456445 -14.446704699099042 C28.45117220692336 -12.979997245445833, -32.74267974421383 -14.95694193042814, -87.30697336047888 -12.911083675920963 M85.0111179575324 -14.925071953237035 C28.01926465816796 -15.258565585240708, -27.613776690512896 -11.924733845815055, -85.35692160278559 -15.76268806308508 M84.11914320141076 -14.238524700701216 C45.56243692543357 -16.556077611453816, 7.437470456585288 -15.926959979541587, -83.80184845775366 -14.226904226839542 M82.7780763372779 -14.87712325900791 C46.64070082902908 -16.53841772949694, 10.171268130838865 -15.063797721028315, -86.16137588173152 -17.575187061727046 M79.97147269397973 -16.041588903963543 C26.384002465941013 -14.706007330887006, -32.030077564343806 -13.134450428955251, -84.25083579868078 -17.294838120043277 M80.94536278098822 -20.19319891780613 C33.00037912540138 -18.28915430845319, -14.431593360751867 -16.1265292340666, -85.76730873733759 -19.96006002277136 M82.29117431789636 -18.52450082451103 C38.36504450123757 -18.58992801997809, -3.256982227042317 -18.494242394901804, -85.30486311763525 -18.24755137115717 M77.82093627303838 -20.98516416400669 C29.580926271528 -17.809532814174876, -19.415066701173792 -17.881998376995316, -85.88082368522882 -19.840109680593013 M80.06482033878565 -22.057426477968672 C31.537560330517586 -19.828368319474148, -16.915821198746567 -22.731552018128326, -85.43829564899207 -19.569272495806217 M78.2611932978034 -21.338321731984593 C27.40202953852713 -24.998070504352437, -22.646173832565545 -25.349034907504908, -86.30958674103022 -21.061576269567013M77 -13.2 C77 -13.2, 77 -13.2, 77 -13.2 M85.49281059324741 -14.53985335409641 C82.71059306412936 -15.094038104712961, 81.45306364536286 -14.802895202338695, 76.22840684950351 -13.692967615723608 M84.57415782518684 -14.987620405629276 C81.79023842755704 -15.97330916561931, 78.70952772438527 -14.591714409969747, 76.96030056782067 -14.651290728524327 M82.9832795099914 -16.914773204773663 C80.8788870831579 -15.978299882188438, 79.34456835627556 -16.788802721276877, 76.32951329275966 -15.823845198601484 M82.15840483270586 -17.240320455655453 C80.30766123067588 -17.12553033787757, 78.7819721788168 -17.55610438544303, 77.10936979614198 -16.610570430383085 M80.7915524867177 -18.409913649857042 C79.62170443192124 -18.36672951492667, 78.58742308855057 -17.749758527606726, 77.18695864707232 -18.479147172272203 M79.78291258431972 -19.34664230324328 C78.9451006134227 -19.41762595986575, 78.62244100153445 -19.22254746054858, 76.98524060107768 -18.85094537951052 M78.8030965949595 -19.964264710098504 C78.34285347528755 -20.08285030309856, 78.122058750391 -20.194574007436632, 76.85777736678719 -19.988727815300226 M78.00661830537021 -21.167781474515795 C77.62059879686683 -21.241933082975446, 77.27980015933512 -21.262155100740493, 77.02247032515704 -21.09493434421718"></path><path id="sbsvgPath3143" data-name="topic-shape" fill="none" stroke-width="0" stroke-linecap="round" stroke-dasharray="" d="M-87.44520683959126 -20.598702054470778 M-86.50928930565715 -20.923421520739794 C-52.19831342822911 -21.00894964260169, -21.683993861359397 -19.78394485038825, 76.08901444749773 -21.81096751926591 M-85.47774435020983 -22.216877123340964 C-48.02286300244579 -21.985902615314906, -11.131209457196775 -20.89801228833813, 76.84086803400616 -21.68452383281896 M76.08901444749773 -21.81096751926591 C78.6540801469222 -19.02425536927685, 80.66205472716905 -17.194689315892035, 85.49842292141571 -13.073088309913103 M76.84086803400616 -21.68452383281896 C78.26979418506951 -20.524926179047874, 79.74462549278992 -17.90752452482033, 85.68322508085267 -13.501842294526588 M85.49842292141571 -13.073088309913103 C86.70310288712382 -0.8636122335493539, 85.90360277935862 16.168606433123355, 85.34119798615575 21.98733786866069 M85.68322508085267 -13.501842294526588 C86.25247304300964 -1.20749475084245, 85.68274162869156 8.356366010680798, 84.90777774713933 22.358980307355523 M85.34119798615575 21.98733786866069 C29.072516279166685 21.103849135150774, -29.94973741497448 23.243080459346636, -85.89911542460322 20.77999083325267 M84.90777774713933 22.358980307355523 C29.780214838347433 23.673653872996585, -27.08418283492506 24.558855982810275, -84.59360657073557 21.997875878587365 M-85.89911542460322 20.77999083325267 C-84.14554204918444 6.716399739682672, -85.09586765743792 -4.653166791051632, -86.50928930565715 -20.923421520739794 M-84.59360657073557 21.997875878587365 C-84.99725462719798 11.985163132473826, -86.52837749049067 0.9437097419053302, -85.47774435020983 -22.216877123340964M74.64700507447124 -20.598702054470778 M76.119189132303 -21.282046457380055 C76.75875768132508 -19.909349295794964, 75.73148538537323 -17.586970585137603, 76.48317960605024 -13.257888203710316 M76.37969714589417 -22.379722397997977 C76.63140650114417 -20.20718323431909, 76.33763340076804 -17.689412823691963, 76.68362769789994 -13.028046527579427 M76.48317960605024 -13.257888203710316 C78.61135262727737 -12.521728514179587, 80.6191319526732 -12.647411006435751, 85.3049323783815 -13.069815002530813 M76.68362769789994 -13.028046527579427 C78.33459924988449 -13.432463357508182, 79.91638975061477 -12.882766451895236, 85.69569492287934 -13.371029546931386"></path><g id="sbsvgG3144" data-name="topic-content" transform="translate(-67.44610595703125 -12)"><g id="sbsvgG3145" data-name="inner-element-group"><g id="sbsvgG3148" data-name="topic-title-text-group" fill="#333333" text-decoration="none" text-anchor="middle" font-size="18" font-family="'NeverMind Hand','NeverMind','Microsoft YaHei','PingFang SC','Microsoft JhengHei',sans-serif" font-weight="600" font-style="normal"><text id="sbsvgText3147" font-family="'NeverMind Hand','NeverMind','Microsoft YaHei','PingFang SC','Microsoft JhengHei',sans-serif" fill="#333333" text-decoration="none" text-anchor="middle" font-size="18" font-weight="600" font-style="normal" transform="translate(67.44610595703125 0)" style="user-select: none; cursor: default;"><tspan id="sbsvgTspan3212" font-family="'NeverMind Hand','NeverMind','Microsoft YaHei','PingFang SC','Microsoft JhengHei',sans-serif" font-size="18" font-weight="600" font-style="normal" text-decoration="none" dy="18" x="0" fill="#333333" text-anchor="middle" style="white-space: pre;">‎ </tspan></text></g><g id="sbsvgG3149" data="markers-group" class="MARKERS"></g></g></g></g></g></g><g id="sbsvgG3157" data-name="branch" class="branch" transform="translate(-218.60235595703125 0)"><g id="sbsvgG3158" data-name="topic" class="topic" data-topic-id="8139923f04597981a0567897b6"><g id="sbsvgG3159" data-name="topic-shape-group"><path id="sbsvgPath3160" data-name="topic-shape-shallow-fill" d="
    M -60.44610595703125 -22
    L 51.64610595703125 -22
    L 60.44610595703125 -13.2
    L 60.44610595703125 22
    L -60.44610595703125 22
    z
  
      M 51.64610595703125 -22
      L 51.64610595703125 -13.2
      L 60.44610595703125 -13.2
    " fill="white" opacity="0"></path><path id="sbsvgPath3161" data-name="topic-shape-fill" opacity="1" fill="none" stroke="#e6e6e6" stroke-width="2" d="M-60 22 C-60 22, -60 22, -60 22 M61.23202648311853 20.150366614758983 C32.924590811133385 17.945493829250346, 8.428875415027141 18.673351085186013, -61.92898287624121 22.267580960690974 M61.640450929105285 20.606798841059224 C16.184089198708534 16.927783339023595, -30.12024769037962 20.875196926593784, -60.1134269490838 21.56774077564478 M59.94426503330469 16.617422650754467 C24.5338688224554 18.648108804225934, -8.976281721889986 15.94643267393113, -62.234955690801144 20.253849337995053 M60.63361933082342 17.83871817737819 C17.558168426156044 19.36898794412614, -24.21706427782774 17.646691753864292, -59.56252081543207 20.357718278467654 M58.957762433588506 15.950431750714793 C17.195939192175857 16.33986196279527, -23.888050492107883 19.42471689939499, -59.065206764638425 15.604264138638973 M58.55275056213141 15.022384645044818 C26.158019748330116 14.997812178134929, -2.8023620054125784 16.298335506916054, -60.0983959928155 18.327030803263188 M58.03096594959497 17.357352899014963 C29.662266764044762 16.501612679958352, 3.6880515262484552 15.384375636577612, -61.42222633212805 17.112721846997736 M60.13236610740423 14.6443705096841 C12.42749082148075 13.434646666049966, -34.37296704500913 13.030206310749058, -59.55059349685907 16.101313115656374 M61.3988853469491 12.194582580029978 C31.268691381812097 11.75172033071519, 0.8386942550539971 12.48908076047898, -61.98194212764501 11.471556447446346 M60.905424951016904 13.767810536921038 C17.076054301857948 11.122382032871256, -23.29289306849241 10.814882290363316, -60.00021684318781 11.13276248127222 M62.02309289127588 11.716954778134838 C32.235427889227864 11.846044290065777, 2.092735116183751 14.190004146099097, -57.643719385564324 10.221539424359799 M60.553323577344415 12.282401992380633 C12.778807845711707 11.246408903598795, -33.343341247737406 10.517441570758823, -59.2299320474267 10.750138665735722 M59.44172334820032 7.627740977704539 C29.967066130042078 5.5179439330101125, 0.17121903151273726 9.365817668437964, -60.480360840260985 10.301879762113094 M61.85589597076178 6.754404641687884 C15.476474109292024 8.134617903232582, -25.672700254619137 4.8954622769355804, -61.37396762520075 6.8087639346718785 M58.419473983347416 4.628650163114085 C12.952570948004723 6.798278634548196, -30.462621577084064 9.042693202495578, -60.68810672610998 7.400223945081234 M60.041413615643975 8.276640750467791 C27.675400748848908 6.217399656772624, -4.746546261012568 7.159022533893591, -58.76811459213495 7.940523053705692 M57.99760456234217 4.969828818738475 C27.065282186865808 3.4154077696800336, 0.3466332122683524 4.394302623271949, -61.53663477748633 4.5026559576392176 M60.93658549636602 2.718495084345355 C10.547560420632362 0.5876447892189112, -34.697642938792704 2.730700466632846, -61.79972646385431 4.603863288462161 M59.743937350809574 2.5998609289527086 C30.662914690375327 3.11519071340562, 0.39659082144498825 3.4618178057670663, -61.519060228765014 1.2436972841620442 M60.716558097302915 2.175914908945575 C28.83055078089237 0.7607439255714523, -1.2759414598345828 1.8055742001533575, -61.55771925598383 1.3337944045662877 M61.602857114374636 1.3157679781317855 C13.68755830228328 3.180986840724954, -26.922953827679173 0.6739106249809301, -60.501935814321044 2.456306909024715 M59.254915402829646 0.42140998989345085 C16.527594485878936 -0.2854123091697601, -26.598580496013177 -1.2087781405448874, -59.682571484148504 0.9918886676430699 M61.34531111866236 -0.6869910493492937 C25.565677866339684 -2.606344473361958, -7.080018313229084 -1.7932470440864496, -61.07525176852941 -2.0781186833977703 M59.07367889732122 0.3540525928139828 C27.407539191842073 -1.39043329000472, -10.299886219203486 -2.972278430461878, -59.816324163973334 -1.3837191566824918 M60.018809129297736 -2.2645196691155287 C35.10811322629452 -1.6484438538551216, 8.349567286670208 -0.4959833264350815, -60.30243582576513 -5.0797455087304115 M59.49330756515265 -1.7505225166678282 C19.904857555031768 -2.0914283919334307, -20.281372301280513 -4.8923485445976205, -59.05258081108332 -5.528331802785397 M60.597423411905766 -5.174483896791921 C16.01007922589779 -3.5694519257545387, -29.16783960610628 -2.9631263470649687, -60.67035322040319 -6.820302082598209 M60.38269789069891 -7.990118072926984 C21.219647231698037 -5.743006989955893, -21.061739914119244 -6.643910357952113, -58.58650744110346 -7.300689505040646 M61.831788732111455 -5.526112248003469 C32.3511657088995 -5.416009314060201, 2.426305930316448 -7.296004230976097, -61.8393066868186 -6.573079420626163 M61.109183858335015 -5.785974310338483 C17.817630878090853 -6.317278459072105, -24.526877729594723 -7.369385745525356, -59.96483256965875 -9.632969997823238 M61.6991023555398 -9.230195738375173 C21.695337519049644 -10.617256643772116, -17.467263682186605 -6.7284451031684815, -61.993036459386346 -8.462931038439274 M59.48853695243597 -7.632768963277326 C23.530156150460243 -9.763852174282064, -10.27986191958189 -7.838696582317348, -61.33584721237421 -9.480788515508175 M60.8531240478158 -9.049087883532033 C14.990934500098229 -12.42483453989028, -34.95562852174044 -11.466777088642118, -59.18872027248144 -12.91627295166254 M60.33496615737677 -14.048617266118512 C22.854195705056185 -9.289837510585777, -13.990956155955805 -9.72926474332809, -58.49940488487482 -13.573197792470456 M61.27417607456446 -14.44670469909905 C20.470671495795244 -12.872883627414694, -23.703681166470066 -14.849828312396998, -62.30697336047888 -12.911083675920963 M60.011117957532406 -14.925071953237042 C19.8523471981287 -15.359843842983237, -18.947611610591412 -12.02601210355758, -60.35692160278559 -15.76268806308508 M59.11914320141077 -14.238524700701223 C31.571826134063304 -16.782574468486, 4.456248873844743 -16.153456836573774, -58.80184845775366 -14.226904226839542 M57.77807633727789 -14.877123259007917 C32.69500547163188 -16.577545663848507, 7.279877416044468 -15.102925655379885, -61.16137588173151 -17.575187061727046 M54.97147269397974 -16.04158890396355 C18.35346782784909 -15.209678124286226, -23.09114684052765 -13.638121222354467, -59.25083579868078 -17.294838120043277 M55.94536278098822 -20.193198917806136 C22.727686189860105 -18.32035288193821, -9.976979231834411 -16.157727807551616, -60.767308737337586 -19.96006002277136 M57.29117431789636 -18.524500824511037 C25.745546175725757 -18.710857207141807, -3.4959788780659435 -18.615171582065518, -60.30486311763525 -18.24755137115717 M52.820936273038384 -20.985164164006697 C19.26376558877527 -18.051634805724014, -15.049388066679251 -18.12410036854445, -60.880823685228826 -19.840109680593013 M55.06482033878565 -22.05742647796868 C20.84091052766889 -19.865270728893567, -13.30912080444396 -22.768454427547745, -60.43829564899206 -19.569272495806217 M53.2611932978034 -21.3383217319846 C17.917352326214314 -24.553661134302608, -16.61552825719118 -24.904625537455075, -61.309586741030216 -21.061576269567013M59.31486454904079 -13.37335325181484 C57.824821998775 -12.510227778732776, 56.99068704128265 -12.958241713821888, 51.07074564874172 -12.276789588332175 M59.43120926909149 -14.497371684834361 C56.99676893111318 -14.982283341623841, 55.896430689692494 -14.727533302046357, 51.32485599331558 -13.756346663758158 M58.49213527873158 -15.017960347682237 C56.105918652191754 -15.862836427673697, 53.46530947804451 -14.67861235140264, 51.96597191527486 -14.729677767306566 M56.986066258326176 -16.795644337311387 C55.232405902631584 -16.0152499018237, 53.95380696356297 -16.6906689343974, 51.441261077299714 -15.886537665501237 M56.12672386616468 -17.232256364524364 C54.6461289845407 -17.140424270302056, 53.42557774305344 -17.484883508354425, 52.08749583691358 -16.72845634430647 M54.84366436503828 -18.35743523739278 C53.966278323940934 -18.325047136195003, 53.190567316412924 -17.862318895705044, 52.14021898530424 -18.409360379204152 M53.85527505621314 -19.297761535495518 C53.296733742281795 -19.34508397324383, 53.081627334356305 -19.21503164036572, 51.99016040071845 -18.967296919673682 M52.90154829747975 -20.08213235504925 C52.67142673764378 -20.141425151549278, 52.5610293751955 -20.197287003718316, 51.928888683393595 -20.094363907650113 M52 -21.2 C52 -21.2, 52 -21.2, 52 -21.2"></path><path id="sbsvgPath3162" data-name="topic-shape" fill="none" stroke-width="0" stroke-linecap="round" stroke-dasharray="" d="M-62.445206839591265 -20.598702054470778 M-61.50928930565715 -20.923421520739794 C-37.33113503097595 -21.099237794588586, -16.94963706685307 -19.874233002375146, 51.08901444749774 -21.81096751926591 M-60.47774435020983 -22.216877123340964 C-34.608650881748886 -22.162909570573454, -9.302785215802963 -21.075019243596678, 51.840868034006164 -21.68452383281896 M51.08901444749774 -21.81096751926591 C53.65408014692219 -19.02425536927685, 55.66205472716905 -17.194689315892035, 60.49842292141571 -13.073088309913103 M51.840868034006164 -21.68452383281896 C53.26979418506953 -20.524926179047874, 54.74462549278993 -17.90752452482033, 60.683225080852665 -13.501842294526588 M60.49842292141571 -13.073088309913103 C61.703102887123826 -0.8636122335493539, 60.90360277935863 16.168606433123355, 60.34119798615575 21.98733786866069 M60.683225080852665 -13.501842294526588 C61.25247304300964 -1.20749475084245, 60.68274162869155 8.356366010680798, 59.907777747139335 22.358980307355523 M60.34119798615575 21.98733786866069 C20.941899239888535 21.30751900076644, -21.210971493530778 23.446750324962302, -60.899115424603224 20.77999083325267 M59.907777747139335 22.358980307355523 C21.155696967280505 23.182538685701804, -19.333218577058915 24.067740795515494, -59.593606570735574 21.997875878587365 M-60.899115424603224 20.77999083325267 C-59.14554204918444 6.716399739682672, -60.09586765743792 -4.653166791051632, -61.50928930565715 -20.923421520739794 M-59.593606570735574 21.997875878587365 C-59.99725462719798 11.985163132473826, -61.528377490490676 0.9437097419053302, -60.47774435020983 -22.216877123340964M49.64700507447124 -20.598702054470778 M51.119189132303 -21.282046457380055 C51.75875768132508 -19.909349295794964, 50.73148538537324 -17.586970585137603, 51.48317960605026 -13.257888203710316 M51.37969714589417 -22.379722397997977 C51.63140650114418 -20.20718323431909, 51.33763340076805 -17.689412823691963, 51.68362769789994 -13.028046527579427 M51.48317960605026 -13.257888203710316 C53.61135262727738 -12.521728514179587, 55.6191319526732 -12.647411006435751, 60.304932378381494 -13.069815002530813 M51.68362769789994 -13.028046527579427 C53.33459924988449 -13.432463357508182, 54.91638975061476 -12.882766451895236, 60.69569492287934 -13.371029546931386"></path><g id="sbsvgG3163" data-name="topic-content" transform="translate(-42.44610595703125 -12)"><g id="sbsvgG3164" data-name="inner-element-group"><g id="sbsvgG3167" data-name="topic-title-text-group" fill="#333333" text-decoration="none" text-anchor="middle" font-size="18" font-family="'NeverMind Hand','NeverMind','Microsoft YaHei','PingFang SC','Microsoft JhengHei',sans-serif" font-weight="600" font-style="normal"><text id="sbsvgText3166" font-family="'NeverMind Hand','NeverMind','Microsoft YaHei','PingFang SC','Microsoft JhengHei',sans-serif" fill="#333333" text-decoration="none" text-anchor="middle" font-size="18" font-weight="600" font-style="normal" transform="translate(42.44610595703125 0)" style="user-select: none; cursor: default;"><tspan id="sbsvgTspan3213" font-family="'NeverMind Hand','NeverMind','Microsoft YaHei','PingFang SC','Microsoft JhengHei',sans-serif" font-size="18" font-weight="600" font-style="normal" text-decoration="none" dy="18" x="0" fill="#333333" text-anchor="middle" style="white-space: pre;">‎ </tspan></text></g><g id="sbsvgG3168" data="markers-group" class="MARKERS"></g></g></g></g></g></g><g id="sbsvgG3176" data-name="branch" class="branch" transform="translate(-218.60235595703125 -79)"><g id="sbsvgG3177" data-name="topic" class="topic" data-topic-id="dd058fe3-66cd-450e-b3a0-ca15f6602983"><g id="sbsvgG3178" data-name="topic-shape-group"><path id="sbsvgPath3179" data-name="topic-shape-shallow-fill" d="
    M -60.44610595703125 -22
    L 51.64610595703125 -22
    L 60.44610595703125 -13.2
    L 60.44610595703125 22
    L -60.44610595703125 22
    z
  
      M 51.64610595703125 -22
      L 51.64610595703125 -13.2
      L 60.44610595703125 -13.2
    " fill="white" opacity="0"></path><path id="sbsvgPath3180" data-name="topic-shape-fill" opacity="1" fill="none" stroke="#e6e6e6" stroke-width="2" d="M-60 22 C-60 22, -60 22, -60 22 M61.23202648311853 20.150366614758983 C32.924590811133385 17.945493829250346, 8.428875415027141 18.673351085186013, -61.92898287624121 22.267580960690974 M61.640450929105285 20.606798841059224 C16.184089198708534 16.927783339023595, -30.12024769037962 20.875196926593784, -60.1134269490838 21.56774077564478 M59.94426503330469 16.617422650754467 C24.5338688224554 18.648108804225934, -8.976281721889986 15.94643267393113, -62.234955690801144 20.253849337995053 M60.63361933082342 17.83871817737819 C17.558168426156044 19.36898794412614, -24.21706427782774 17.646691753864292, -59.56252081543207 20.357718278467654 M58.957762433588506 15.950431750714793 C17.195939192175857 16.33986196279527, -23.888050492107883 19.42471689939499, -59.065206764638425 15.604264138638973 M58.55275056213141 15.022384645044818 C26.158019748330116 14.997812178134929, -2.8023620054125784 16.298335506916054, -60.0983959928155 18.327030803263188 M58.03096594959497 17.357352899014963 C29.662266764044762 16.501612679958352, 3.6880515262484552 15.384375636577612, -61.42222633212805 17.112721846997736 M60.13236610740423 14.6443705096841 C12.42749082148075 13.434646666049966, -34.37296704500913 13.030206310749058, -59.55059349685907 16.101313115656374 M61.3988853469491 12.194582580029978 C31.268691381812097 11.75172033071519, 0.8386942550539971 12.48908076047898, -61.98194212764501 11.471556447446346 M60.905424951016904 13.767810536921038 C17.076054301857948 11.122382032871256, -23.29289306849241 10.814882290363316, -60.00021684318781 11.13276248127222 M62.02309289127588 11.716954778134838 C32.235427889227864 11.846044290065777, 2.092735116183751 14.190004146099097, -57.643719385564324 10.221539424359799 M60.553323577344415 12.282401992380633 C12.778807845711707 11.246408903598795, -33.343341247737406 10.517441570758823, -59.2299320474267 10.750138665735722 M59.44172334820032 7.627740977704539 C29.967066130042078 5.5179439330101125, 0.17121903151273726 9.365817668437964, -60.480360840260985 10.301879762113094 M61.85589597076178 6.754404641687884 C15.476474109292024 8.134617903232582, -25.672700254619137 4.8954622769355804, -61.37396762520075 6.8087639346718785 M58.419473983347416 4.628650163114085 C12.952570948004723 6.798278634548196, -30.462621577084064 9.042693202495578, -60.68810672610998 7.400223945081234 M60.041413615643975 8.276640750467791 C27.675400748848908 6.217399656772624, -4.746546261012568 7.159022533893591, -58.76811459213495 7.940523053705692 M57.99760456234217 4.969828818738475 C27.065282186865808 3.4154077696800336, 0.3466332122683524 4.394302623271949, -61.53663477748633 4.5026559576392176 M60.93658549636602 2.718495084345355 C10.547560420632362 0.5876447892189112, -34.697642938792704 2.730700466632846, -61.79972646385431 4.603863288462161 M59.743937350809574 2.5998609289527086 C30.662914690375327 3.11519071340562, 0.39659082144498825 3.4618178057670663, -61.519060228765014 1.2436972841620442 M60.716558097302915 2.175914908945575 C28.83055078089237 0.7607439255714523, -1.2759414598345828 1.8055742001533575, -61.55771925598383 1.3337944045662877 M61.602857114374636 1.3157679781317855 C13.68755830228328 3.180986840724954, -26.922953827679173 0.6739106249809301, -60.501935814321044 2.456306909024715 M59.254915402829646 0.42140998989345085 C16.527594485878936 -0.2854123091697601, -26.598580496013177 -1.2087781405448874, -59.682571484148504 0.9918886676430699 M61.34531111866236 -0.6869910493492937 C25.565677866339684 -2.606344473361958, -7.080018313229084 -1.7932470440864496, -61.07525176852941 -2.0781186833977703 M59.07367889732122 0.3540525928139828 C27.407539191842073 -1.39043329000472, -10.299886219203486 -2.972278430461878, -59.816324163973334 -1.3837191566824918 M60.018809129297736 -2.2645196691155287 C35.10811322629452 -1.6484438538551216, 8.349567286670208 -0.4959833264350815, -60.30243582576513 -5.0797455087304115 M59.49330756515265 -1.7505225166678282 C19.904857555031768 -2.0914283919334307, -20.281372301280513 -4.8923485445976205, -59.05258081108332 -5.528331802785397 M60.597423411905766 -5.174483896791921 C16.01007922589779 -3.5694519257545387, -29.16783960610628 -2.9631263470649687, -60.67035322040319 -6.820302082598209 M60.38269789069891 -7.990118072926984 C21.219647231698037 -5.743006989955893, -21.061739914119244 -6.643910357952113, -58.58650744110346 -7.300689505040646 M61.831788732111455 -5.526112248003469 C32.3511657088995 -5.416009314060201, 2.426305930316448 -7.296004230976097, -61.8393066868186 -6.573079420626163 M61.109183858335015 -5.785974310338483 C17.817630878090853 -6.317278459072105, -24.526877729594723 -7.369385745525356, -59.96483256965875 -9.632969997823238 M61.6991023555398 -9.230195738375173 C21.695337519049644 -10.617256643772116, -17.467263682186605 -6.7284451031684815, -61.993036459386346 -8.462931038439274 M59.48853695243597 -7.632768963277326 C23.530156150460243 -9.763852174282064, -10.27986191958189 -7.838696582317348, -61.33584721237421 -9.480788515508175 M60.8531240478158 -9.049087883532033 C14.990934500098229 -12.42483453989028, -34.95562852174044 -11.466777088642118, -59.18872027248144 -12.91627295166254 M60.33496615737677 -14.048617266118512 C22.854195705056185 -9.289837510585777, -13.990956155955805 -9.72926474332809, -58.49940488487482 -13.573197792470456 M61.27417607456446 -14.44670469909905 C20.470671495795244 -12.872883627414694, -23.703681166470066 -14.849828312396998, -62.30697336047888 -12.911083675920963 M60.011117957532406 -14.925071953237042 C19.8523471981287 -15.359843842983237, -18.947611610591412 -12.02601210355758, -60.35692160278559 -15.76268806308508 M59.11914320141077 -14.238524700701223 C31.571826134063304 -16.782574468486, 4.456248873844743 -16.153456836573774, -58.80184845775366 -14.226904226839542 M57.77807633727789 -14.877123259007917 C32.69500547163188 -16.577545663848507, 7.279877416044468 -15.102925655379885, -61.16137588173151 -17.575187061727046 M54.97147269397974 -16.04158890396355 C18.35346782784909 -15.209678124286226, -23.09114684052765 -13.638121222354467, -59.25083579868078 -17.294838120043277 M55.94536278098822 -20.193198917806136 C22.727686189860105 -18.32035288193821, -9.976979231834411 -16.157727807551616, -60.767308737337586 -19.96006002277136 M57.29117431789636 -18.524500824511037 C25.745546175725757 -18.710857207141807, -3.4959788780659435 -18.615171582065518, -60.30486311763525 -18.24755137115717 M52.820936273038384 -20.985164164006697 C19.26376558877527 -18.051634805724014, -15.049388066679251 -18.12410036854445, -60.880823685228826 -19.840109680593013 M55.06482033878565 -22.05742647796868 C20.84091052766889 -19.865270728893567, -13.30912080444396 -22.768454427547745, -60.43829564899206 -19.569272495806217 M53.2611932978034 -21.3383217319846 C17.917352326214314 -24.553661134302608, -16.61552825719118 -24.904625537455075, -61.309586741030216 -21.061576269567013M59.31486454904079 -13.37335325181484 C57.824821998775 -12.510227778732776, 56.99068704128265 -12.958241713821888, 51.07074564874172 -12.276789588332175 M59.43120926909149 -14.497371684834361 C56.99676893111318 -14.982283341623841, 55.896430689692494 -14.727533302046357, 51.32485599331558 -13.756346663758158 M58.49213527873158 -15.017960347682237 C56.105918652191754 -15.862836427673697, 53.46530947804451 -14.67861235140264, 51.96597191527486 -14.729677767306566 M56.986066258326176 -16.795644337311387 C55.232405902631584 -16.0152499018237, 53.95380696356297 -16.6906689343974, 51.441261077299714 -15.886537665501237 M56.12672386616468 -17.232256364524364 C54.6461289845407 -17.140424270302056, 53.42557774305344 -17.484883508354425, 52.08749583691358 -16.72845634430647 M54.84366436503828 -18.35743523739278 C53.966278323940934 -18.325047136195003, 53.190567316412924 -17.862318895705044, 52.14021898530424 -18.409360379204152 M53.85527505621314 -19.297761535495518 C53.296733742281795 -19.34508397324383, 53.081627334356305 -19.21503164036572, 51.99016040071845 -18.967296919673682 M52.90154829747975 -20.08213235504925 C52.67142673764378 -20.141425151549278, 52.5610293751955 -20.197287003718316, 51.928888683393595 -20.094363907650113 M52 -21.2 C52 -21.2, 52 -21.2, 52 -21.2"></path><path id="sbsvgPath3181" data-name="topic-shape" fill="none" stroke-width="0" stroke-linecap="round" stroke-dasharray="" d="M-62.445206839591265 -20.598702054470778 M-61.50928930565715 -20.923421520739794 C-37.33113503097595 -21.099237794588586, -16.94963706685307 -19.874233002375146, 51.08901444749774 -21.81096751926591 M-60.47774435020983 -22.216877123340964 C-34.608650881748886 -22.162909570573454, -9.302785215802963 -21.075019243596678, 51.840868034006164 -21.68452383281896 M51.08901444749774 -21.81096751926591 C53.65408014692219 -19.02425536927685, 55.66205472716905 -17.194689315892035, 60.49842292141571 -13.073088309913103 M51.840868034006164 -21.68452383281896 C53.26979418506953 -20.524926179047874, 54.74462549278993 -17.90752452482033, 60.683225080852665 -13.501842294526588 M60.49842292141571 -13.073088309913103 C61.703102887123826 -0.8636122335493539, 60.90360277935863 16.168606433123355, 60.34119798615575 21.98733786866069 M60.683225080852665 -13.501842294526588 C61.25247304300964 -1.20749475084245, 60.68274162869155 8.356366010680798, 59.907777747139335 22.358980307355523 M60.34119798615575 21.98733786866069 C20.941899239888535 21.30751900076644, -21.210971493530778 23.446750324962302, -60.899115424603224 20.77999083325267 M59.907777747139335 22.358980307355523 C21.155696967280505 23.182538685701804, -19.333218577058915 24.067740795515494, -59.593606570735574 21.997875878587365 M-60.899115424603224 20.77999083325267 C-59.14554204918444 6.716399739682672, -60.09586765743792 -4.653166791051632, -61.50928930565715 -20.923421520739794 M-59.593606570735574 21.997875878587365 C-59.99725462719798 11.985163132473826, -61.528377490490676 0.9437097419053302, -60.47774435020983 -22.216877123340964M49.64700507447124 -20.598702054470778 M51.119189132303 -21.282046457380055 C51.75875768132508 -19.909349295794964, 50.73148538537324 -17.586970585137603, 51.48317960605026 -13.257888203710316 M51.37969714589417 -22.379722397997977 C51.63140650114418 -20.20718323431909, 51.33763340076805 -17.689412823691963, 51.68362769789994 -13.028046527579427 M51.48317960605026 -13.257888203710316 C53.61135262727738 -12.521728514179587, 55.6191319526732 -12.647411006435751, 60.304932378381494 -13.069815002530813 M51.68362769789994 -13.028046527579427 C53.33459924988449 -13.432463357508182, 54.91638975061476 -12.882766451895236, 60.69569492287934 -13.371029546931386"></path><g id="sbsvgG3182" data-name="topic-content" transform="translate(-42.44610595703125 -12)"><g id="sbsvgG3183" data-name="inner-element-group"><g id="sbsvgG3186" data-name="topic-title-text-group" fill="#333333" text-decoration="none" text-anchor="middle" font-size="18" font-family="'NeverMind Hand','NeverMind','Microsoft YaHei','PingFang SC','Microsoft JhengHei',sans-serif" font-weight="600" font-style="normal"><text id="sbsvgText3185" font-family="'NeverMind Hand','NeverMind','Microsoft YaHei','PingFang SC','Microsoft JhengHei',sans-serif" fill="#333333" text-decoration="none" text-anchor="middle" font-size="18" font-weight="600" font-style="normal" transform="translate(42.44610595703125 0)" style="user-select: none; cursor: default;"><tspan id="sbsvgTspan3214" font-family="'NeverMind Hand','NeverMind','Microsoft YaHei','PingFang SC','Microsoft JhengHei',sans-serif" font-size="18" font-weight="600" font-style="normal" text-decoration="none" dy="18" x="0" fill="#333333" text-anchor="middle" style="white-space: pre;">‎ </tspan></text></g><g id="sbsvgG3187" data="markers-group" class="MARKERS"></g></g></g></g></g></g></g><g id="sbsvgG3067" data-name="relationship-container"></g><g id="sbsvgG3071" data-name="cloneG" opacity="0.5"></g></g></g><defs id="sbsvgDefs3058"><mask id="sbsvgMask3206" maskUnits="userSpaceOnUse" x="-1000%" y="-1000%" width="2000%" height="2000%"><rect id="sbsvgRect3207" fill="white" x="-1000%" y="-1000%" width="2000%" height="2000%"></rect><path id="sbsvgPath3208" fill="black" d="M -108.15625 -33.5L 108.15625 -33.5L 108.15625 33.5L -108.15625 33.5z" transform="translate(0 0) "></path></mask></defs></svg>