<svg id="sbsvgSvg8353" xmlns="http://www.w3.org/2000/svg" version="1.1" width="800.7665275860231" height="494" xmlns:xlink="http://www.w3.org/1999/xlink" style="display: block; background-color: rgb(255, 255, 255);" viewBox="0 0 827.31543695359 510.37825855073487"><defs></defs><g id="sbsvgG8355" data-name="container" transform="scale(1) translate(406.157718476795 148.88912927536745)"><g id="sbsvgG8357" data-name="sheet"><g id="sbsvgG8358" data-name="matrix-container"></g><g id="sbsvgG8359" data-name="tree-map-cell-container"></g><g id="sbsvgG8360" data-name="connection-container"><g id="sbsvgG8940" data-id="5019a8ac21eb28c8769bb9a1c2"><path id="sbsvgPath8385" data-name="connection" stroke-linecap="" stroke-dasharray="" d="M 0 37.4L 0 50.4L -140.02375439375558 84.10337687190369Q -182.80201466878256 94.4 -182.80201466878256 116.4L -182.80201466878256 138.4" stroke="#262626" stroke-width="3" fill="none"></path><path id="sbsvgPath8394" data-name="connection" stroke-linecap="" stroke-dasharray="" d="M -182.80201466878256 195.00000000000003L -182.80201466878256 208L -255.20302200317388 208Q -263.2030220031739 208 -263.2030220031739 216L -263.2030220031739 222" stroke="#262626" stroke-width="3" fill="none"></path><path id="sbsvgPath8413" data-name="connection" stroke-linecap="" stroke-dasharray="" d="M -182.80201466878256 195.00000000000003L -182.80201466878256 208L -110.4010073343913 208Q -102.4010073343913 208 -102.4010073343913 216L -102.4010073343913 222" stroke="#262626" stroke-width="3" fill="none"></path><path id="sbsvgPath8442" data-name="connection" stroke-linecap="" stroke-dasharray="" d="M 0 37.4L 0 50.4L 140.02375439375567 84.10337687190369Q 182.80201466878265 94.4 182.80201466878265 116.4L 182.80201466878265 138.4" stroke="#262626" stroke-width="3" fill="none"></path><path id="sbsvgPath8451" data-name="connection" stroke-linecap="" stroke-dasharray="" d="M 182.80201466878265 195.00000000000003L 182.80201466878265 208L 95.40100733439131 208Q 87.40100733439131 208 87.40100733439131 216L 87.40100733439131 222" stroke="#262626" stroke-width="3" fill="none"></path><path id="sbsvgPath8470" data-name="connection" stroke-linecap="" stroke-dasharray="" d="M 182.80201466878265 195.00000000000003L 182.80201466878265 208L 270.20302200317394 208Q 278.20302200317394 208 278.20302200317394 216L 278.20302200317394 222" stroke="#262626" stroke-width="3" fill="none"></path></g></g><g id="sbsvgG8361" data-name="boundary-container"></g><g id="sbsvgG8362" data-name="branch-container"><g id="sbsvgG8368" data-name="branch" class="branch"><g id="sbsvgG8369" data-name="topic" class="topic" data-topic-id="5019a8ac21eb28c8769bb9a1c2"><g id="sbsvgG8370" data-name="topic-shape-group"><path id="sbsvgPath8371" data-name="topic-shape-shallow-fill" d="M -111.03567863913145 -19.68333333333333Q -111.03567863913145 -23.68333333333333 -107.05935385696034 -24.11789199069953L -3.2263247821711047 -35.4654413426338Q 0.75 -35.9 4.726324782171105 -35.4654413426338L 108.55935385696034 -24.11789199069953Q 112.53567863913145 -23.68333333333333 112.53567863913145 -19.68333333333333L 112.53567863913145 21.18333333333333Q 112.53567863913145 25.18333333333333 108.55935385696034 25.61789199069953L 4.726324782171105 36.9654413426338Q 0.75 37.4 -3.2263247821711047 36.9654413426338L -107.05935385696034 25.61789199069953Q -111.03567863913145 25.18333333333333 -111.03567863913145 21.18333333333333Z" fill="white" opacity="0"></path><path id="sbsvgPath8372" data-name="topic-shape-fill" fill="#e6e6e6" opacity="1" stroke-width="0" d="M -111.03567863913145 -19.68333333333333Q -111.03567863913145 -23.68333333333333 -107.05935385696034 -24.11789199069953L -3.2263247821711047 -35.4654413426338Q 0.75 -35.9 4.726324782171105 -35.4654413426338L 108.55935385696034 -24.11789199069953Q 112.53567863913145 -23.68333333333333 112.53567863913145 -19.68333333333333L 112.53567863913145 21.18333333333333Q 112.53567863913145 25.18333333333333 108.55935385696034 25.61789199069953L 4.726324782171105 36.9654413426338Q 0.75 37.4 -3.2263247821711047 36.9654413426338L -107.05935385696034 25.61789199069953Q -111.03567863913145 25.18333333333333 -111.03567863913145 21.18333333333333Z"></path><path id="sbsvgPath8373" data-name="topic-shape" fill="none" stroke="#ffffff" stroke-width="3" stroke-linecap="" stroke-dasharray="" d="M -111.03567863913145 -19.68333333333333Q -111.03567863913145 -23.68333333333333 -107.05935385696034 -24.11789199069953L -3.2263247821711047 -35.4654413426338Q 0.75 -35.9 4.726324782171105 -35.4654413426338L 108.55935385696034 -24.11789199069953Q 112.53567863913145 -23.68333333333333 112.53567863913145 -19.68333333333333L 112.53567863913145 21.18333333333333Q 112.53567863913145 25.18333333333333 108.55935385696034 25.61789199069953L 4.726324782171105 36.9654413426338Q 0.75 37.4 -3.2263247821711047 36.9654413426338L -107.05935385696034 25.61789199069953Q -111.03567863913145 25.18333333333333 -111.03567863913145 21.18333333333333Z"></path><g id="sbsvgG8374" data-name="topic-content" transform="translate(-80.53567863913145 -16)"><g id="sbsvgG8375" data-name="inner-element-group"><g id="sbsvgG8492" data-name="topic-title-text-group" fill="#262626" text-decoration="none" text-anchor="middle" font-size="24" font-family="'Montserrat','NeverMind','Microsoft YaHei','PingFang SC','Microsoft JhengHei',sans-serif" font-weight="500" font-style="normal"><text id="sbsvgText8491" font-family="'Montserrat','NeverMind','Microsoft YaHei','PingFang SC','Microsoft JhengHei',sans-serif" fill="#262626" text-decoration="none" text-anchor="middle" font-size="24" font-weight="500" font-style="normal" transform="translate(80.53567863913145 0)" style="user-select: none; cursor: default;"><tspan id="sbsvgTspan8957" font-family="'Montserrat','NeverMind','Microsoft YaHei','PingFang SC','Microsoft JhengHei',sans-serif" font-size="24" font-weight="500" font-style="normal" text-decoration="none" dy="24" x="0" fill="#262626" text-anchor="middle" style="white-space: pre;">‎ </tspan></text></g><g id="sbsvgG8493" data="markers-group" class="MARKERS"></g></g></g></g></g></g><g id="sbsvgG8377" data-name="branch" class="branch" transform="translate(-182.80201466878256 166.20000000000002)"><rect id="sbsvgRect8873" width="182.15216064453125" height="22" data-name="collapse-extend-hover-area" opacity="0" x="-91.07608032226562" y="32.8"></rect><g id="sbsvgG8378" data-name="topic" class="topic" data-topic-id="15ab8747ead86418a9898a541e"><g id="sbsvgG8379" data-name="topic-shape-group"><path id="sbsvgPath8380" data-name="topic-shape-shallow-fill" d="M -89.57608032226562 -13.950000000000003Q -89.57608032226562 -17.950000000000003 -85.59733985798239 -18.361854729091775L -3.2287404642832316 -26.888145270908232Q 0.75 -27.300000000000004 4.728740464283232 -26.888145270908232L 87.09733985798239 -18.361854729091775Q 91.07608032226562 -17.950000000000003 91.07608032226562 -13.950000000000003L 91.07608032226562 15.450000000000003Q 91.07608032226562 19.450000000000003 87.09733985798239 19.861854729091775L 4.728740464283232 28.388145270908232Q 0.75 28.800000000000004 -3.2287404642832316 28.388145270908232L -85.59733985798239 19.861854729091775Q -89.57608032226562 19.450000000000003 -89.57608032226562 15.450000000000003Z" fill="white" opacity="0"></path><path id="sbsvgPath8381" data-name="topic-shape-fill" fill="#e6e6e6" opacity="1" stroke-width="0" d="M -89.57608032226562 -13.950000000000003Q -89.57608032226562 -17.950000000000003 -85.59733985798239 -18.361854729091775L -3.2287404642832316 -26.888145270908232Q 0.75 -27.300000000000004 4.728740464283232 -26.888145270908232L 87.09733985798239 -18.361854729091775Q 91.07608032226562 -17.950000000000003 91.07608032226562 -13.950000000000003L 91.07608032226562 15.450000000000003Q 91.07608032226562 19.450000000000003 87.09733985798239 19.861854729091775L 4.728740464283232 28.388145270908232Q 0.75 28.800000000000004 -3.2287404642832316 28.388145270908232L -85.59733985798239 19.861854729091775Q -89.57608032226562 19.450000000000003 -89.57608032226562 15.450000000000003Z"></path><path id="sbsvgPath8382" data-name="topic-shape" fill="none" stroke="#ffffff" stroke-width="3" stroke-linecap="" stroke-dasharray="" d="M -89.57608032226562 -13.950000000000003Q -89.57608032226562 -17.950000000000003 -85.59733985798239 -18.361854729091775L -3.2287404642832316 -26.888145270908232Q 0.75 -27.300000000000004 4.728740464283232 -26.888145270908232L 87.09733985798239 -18.361854729091775Q 91.07608032226562 -17.950000000000003 91.07608032226562 -13.950000000000003L 91.07608032226562 15.450000000000003Q 91.07608032226562 19.450000000000003 87.09733985798239 19.861854729091775L 4.728740464283232 28.388145270908232Q 0.75 28.800000000000004 -3.2287404642832316 28.388145270908232L -85.59733985798239 19.861854729091775Q -89.57608032226562 19.450000000000003 -89.57608032226562 15.450000000000003Z"></path><g id="sbsvgG8383" data-name="topic-content" transform="translate(-70.07608032226562 -12)"><g id="sbsvgG8384" data-name="inner-element-group"><g id="sbsvgG8425" data-name="topic-title-text-group" fill="#333333" text-decoration="none" text-anchor="start" font-size="18" font-family="'Montserrat','NeverMind','Microsoft YaHei','PingFang SC','Microsoft JhengHei',sans-serif" font-weight="500" font-style="normal"><text id="sbsvgText8424" font-family="'Montserrat','NeverMind','Microsoft YaHei','PingFang SC','Microsoft JhengHei',sans-serif" fill="#333333" text-decoration="none" text-anchor="start" font-size="18" font-weight="500" font-style="normal" style="user-select: none; cursor: default;"><tspan id="sbsvgTspan8953" font-family="'Montserrat','NeverMind','Microsoft YaHei','PingFang SC','Microsoft JhengHei',sans-serif" font-size="18" font-weight="500" font-style="normal" text-decoration="none" dy="18" x="0" fill="#333333" text-anchor="start" style="white-space: pre;">‎ </tspan></text></g><g id="sbsvgG8426" data="markers-group" class="MARKERS"></g></g></g></g></g></g><g id="sbsvgG8386" data-name="branch" class="branch" transform="translate(-263.2030220031739 235.5)"><g id="sbsvgG8387" data-name="topic" class="topic" data-topic-id="34a0e281-3e57-492b-8142-1085cb7721c1"><g id="sbsvgG8388" data-name="topic-shape-group"><path id="sbsvgPath8389" data-name="topic-shape-shallow-fill" d="M -78.90100733439131 -10.5L 82.90100733439131 -10.5Q 90.90100733439131 -10.5  90.90100733439131 -2.5L 90.90100733439131 6.5Q 90.90100733439131 14.5  82.90100733439131 14.5L -78.90100733439131 14.5Q -86.90100733439131 14.5  -86.90100733439131 6.5L -86.90100733439131 -2.5Q -86.90100733439131 -10.5  -78.90100733439131 -10.5Z" fill="white" opacity="0"></path><path id="sbsvgPath8390" data-name="topic-shape-fill" fill="#e6e6e6" opacity="1" stroke-width="0" d="M -78.90100733439131 -10.5L 82.90100733439131 -10.5Q 90.90100733439131 -10.5  90.90100733439131 -2.5L 90.90100733439131 6.5Q 90.90100733439131 14.5  82.90100733439131 14.5L -78.90100733439131 14.5Q -86.90100733439131 14.5  -86.90100733439131 6.5L -86.90100733439131 -2.5Q -86.90100733439131 -10.5  -78.90100733439131 -10.5Z"></path><path id="sbsvgPath8391" data-name="topic-shape" fill="none" stroke="#ffffff" stroke-width="8" stroke-linecap="" stroke-dasharray="" d="M -78.90100733439131 -10.5L 82.90100733439131 -10.5Q 90.90100733439131 -10.5  90.90100733439131 -2.5L 90.90100733439131 6.5Q 90.90100733439131 14.5  82.90100733439131 14.5L -78.90100733439131 14.5Q -86.90100733439131 14.5  -86.90100733439131 6.5L -86.90100733439131 -2.5Q -86.90100733439131 -10.5  -78.90100733439131 -10.5Z"></path><g id="sbsvgG8392" data-name="topic-content" transform="translate(-76.90100733439131 -0.5)"><g id="sbsvgG8393" data-name="inner-element-group"><g id="sbsvgG8396" data-name="topic-title-text-group" fill="#333333" text-decoration="none" text-anchor="start" font-size="1" font-family="'Montserrat','NeverMind','Microsoft YaHei','PingFang SC','Microsoft JhengHei',sans-serif" font-weight="400" font-style="normal"><text id="sbsvgText8395" font-family="'Montserrat','NeverMind','Microsoft YaHei','PingFang SC','Microsoft JhengHei',sans-serif" fill="#333333" text-decoration="none" text-anchor="start" font-size="1" font-weight="400" font-style="normal" style="user-select: none; cursor: default;"><tspan id="sbsvgTspan8951" font-family="'Montserrat','NeverMind','Microsoft YaHei','PingFang SC','Microsoft JhengHei',sans-serif" font-size="1" font-weight="400" font-style="normal" text-decoration="none" dy="1" x="0" fill="#333333" text-anchor="start" style="white-space: pre;">‎ </tspan></text></g><g id="sbsvgG8397" data="markers-group" class="MARKERS"></g></g></g></g></g></g><g id="sbsvgG8405" data-name="branch" class="branch" transform="translate(-102.4010073343913 235.5)"><g id="sbsvgG8406" data-name="topic" class="topic" data-topic-id="11b1b74f-a418-475d-8d98-0539adb101e4"><g id="sbsvgG8407" data-name="topic-shape-group"><path id="sbsvgPath8408" data-name="topic-shape-shallow-fill" d="M -48.90100733439126 -10.5L 52.90100733439126 -10.5Q 60.90100733439126 -10.5  60.90100733439126 -2.5L 60.90100733439126 6.5Q 60.90100733439126 14.5  52.90100733439126 14.5L -48.90100733439126 14.5Q -56.90100733439126 14.5  -56.90100733439126 6.5L -56.90100733439126 -2.5Q -56.90100733439126 -10.5  -48.90100733439126 -10.5Z" fill="white" opacity="0"></path><path id="sbsvgPath8409" data-name="topic-shape-fill" fill="#e6e6e6" opacity="1" stroke-width="0" d="M -48.90100733439126 -10.5L 52.90100733439126 -10.5Q 60.90100733439126 -10.5  60.90100733439126 -2.5L 60.90100733439126 6.5Q 60.90100733439126 14.5  52.90100733439126 14.5L -48.90100733439126 14.5Q -56.90100733439126 14.5  -56.90100733439126 6.5L -56.90100733439126 -2.5Q -56.90100733439126 -10.5  -48.90100733439126 -10.5Z"></path><path id="sbsvgPath8410" data-name="topic-shape" fill="none" stroke="#ffffff" stroke-width="8" stroke-linecap="" stroke-dasharray="" d="M -48.90100733439126 -10.5L 52.90100733439126 -10.5Q 60.90100733439126 -10.5  60.90100733439126 -2.5L 60.90100733439126 6.5Q 60.90100733439126 14.5  52.90100733439126 14.5L -48.90100733439126 14.5Q -56.90100733439126 14.5  -56.90100733439126 6.5L -56.90100733439126 -2.5Q -56.90100733439126 -10.5  -48.90100733439126 -10.5Z"></path><g id="sbsvgG8411" data-name="topic-content" transform="translate(-46.90100733439126 -0.5)"><g id="sbsvgG8412" data-name="inner-element-group"><g id="sbsvgG8415" data-name="topic-title-text-group" fill="#333333" text-decoration="none" text-anchor="start" font-size="1" font-family="'Montserrat','NeverMind','Microsoft YaHei','PingFang SC','Microsoft JhengHei',sans-serif" font-weight="400" font-style="normal"><text id="sbsvgText8414" font-family="'Montserrat','NeverMind','Microsoft YaHei','PingFang SC','Microsoft JhengHei',sans-serif" fill="#333333" text-decoration="none" text-anchor="start" font-size="1" font-weight="400" font-style="normal" style="user-select: none; cursor: default;"><tspan id="sbsvgTspan8952" font-family="'Montserrat','NeverMind','Microsoft YaHei','PingFang SC','Microsoft JhengHei',sans-serif" font-size="1" font-weight="400" font-style="normal" text-decoration="none" dy="1" x="0" fill="#333333" text-anchor="start" style="white-space: pre;">‎ </tspan></text></g><g id="sbsvgG8416" data="markers-group" class="MARKERS"></g></g></g></g></g></g><g id="sbsvgG8434" data-name="branch" class="branch" transform="translate(182.80201466878265 166.20000000000002)"><rect id="sbsvgRect8886" width="182.15216064453125" height="22" data-name="collapse-extend-hover-area" opacity="0" x="-91.07608032226562" y="32.8"></rect><g id="sbsvgG8435" data-name="topic" class="topic" data-topic-id="1d184330da5816ae5eb8e8bc74"><g id="sbsvgG8436" data-name="topic-shape-group"><path id="sbsvgPath8437" data-name="topic-shape-shallow-fill" d="M -89.57608032226562 -13.950000000000003Q -89.57608032226562 -17.950000000000003 -85.59733985798239 -18.361854729091775L -3.2287404642832316 -26.888145270908232Q 0.75 -27.300000000000004 4.728740464283232 -26.888145270908232L 87.09733985798239 -18.361854729091775Q 91.07608032226562 -17.950000000000003 91.07608032226562 -13.950000000000003L 91.07608032226562 15.450000000000003Q 91.07608032226562 19.450000000000003 87.09733985798239 19.861854729091775L 4.728740464283232 28.388145270908232Q 0.75 28.800000000000004 -3.2287404642832316 28.388145270908232L -85.59733985798239 19.861854729091775Q -89.57608032226562 19.450000000000003 -89.57608032226562 15.450000000000003Z" fill="white" opacity="0"></path><path id="sbsvgPath8438" data-name="topic-shape-fill" fill="#e6e6e6" opacity="1" stroke-width="0" d="M -89.57608032226562 -13.950000000000003Q -89.57608032226562 -17.950000000000003 -85.59733985798239 -18.361854729091775L -3.2287404642832316 -26.888145270908232Q 0.75 -27.300000000000004 4.728740464283232 -26.888145270908232L 87.09733985798239 -18.361854729091775Q 91.07608032226562 -17.950000000000003 91.07608032226562 -13.950000000000003L 91.07608032226562 15.450000000000003Q 91.07608032226562 19.450000000000003 87.09733985798239 19.861854729091775L 4.728740464283232 28.388145270908232Q 0.75 28.800000000000004 -3.2287404642832316 28.388145270908232L -85.59733985798239 19.861854729091775Q -89.57608032226562 19.450000000000003 -89.57608032226562 15.450000000000003Z"></path><path id="sbsvgPath8439" data-name="topic-shape" fill="none" stroke="#ffffff" stroke-width="3" stroke-linecap="" stroke-dasharray="" d="M -89.57608032226562 -13.950000000000003Q -89.57608032226562 -17.950000000000003 -85.59733985798239 -18.361854729091775L -3.2287404642832316 -26.888145270908232Q 0.75 -27.300000000000004 4.728740464283232 -26.888145270908232L 87.09733985798239 -18.361854729091775Q 91.07608032226562 -17.950000000000003 91.07608032226562 -13.950000000000003L 91.07608032226562 15.450000000000003Q 91.07608032226562 19.450000000000003 87.09733985798239 19.861854729091775L 4.728740464283232 28.388145270908232Q 0.75 28.800000000000004 -3.2287404642832316 28.388145270908232L -85.59733985798239 19.861854729091775Q -89.57608032226562 19.450000000000003 -89.57608032226562 15.450000000000003Z"></path><g id="sbsvgG8440" data-name="topic-content" transform="translate(-70.07608032226562 -12)"><g id="sbsvgG8441" data-name="inner-element-group"><g id="sbsvgG8482" data-name="topic-title-text-group" fill="#333333" text-decoration="none" text-anchor="start" font-size="18" font-family="'Montserrat','NeverMind','Microsoft YaHei','PingFang SC','Microsoft JhengHei',sans-serif" font-weight="500" font-style="normal"><text id="sbsvgText8481" font-family="'Montserrat','NeverMind','Microsoft YaHei','PingFang SC','Microsoft JhengHei',sans-serif" fill="#333333" text-decoration="none" text-anchor="start" font-size="18" font-weight="500" font-style="normal" style="user-select: none; cursor: default;"><tspan id="sbsvgTspan8956" font-family="'Montserrat','NeverMind','Microsoft YaHei','PingFang SC','Microsoft JhengHei',sans-serif" font-size="18" font-weight="500" font-style="normal" text-decoration="none" dy="18" x="0" fill="#333333" text-anchor="start" style="white-space: pre;">‎ </tspan></text></g><g id="sbsvgG8483" data="markers-group" class="MARKERS"></g></g></g></g></g></g><g id="sbsvgG8443" data-name="branch" class="branch" transform="translate(87.40100733439131 235.5)"><g id="sbsvgG8444" data-name="topic" class="topic" data-topic-id="c0b958a9-08be-4220-855b-60addacaf21d"><g id="sbsvgG8445" data-name="topic-shape-group"><path id="sbsvgPath8446" data-name="topic-shape-shallow-fill" d="M -78.90100733439131 -10.5L 82.90100733439131 -10.5Q 90.90100733439131 -10.5  90.90100733439131 -2.5L 90.90100733439131 6.5Q 90.90100733439131 14.5  82.90100733439131 14.5L -78.90100733439131 14.5Q -86.90100733439131 14.5  -86.90100733439131 6.5L -86.90100733439131 -2.5Q -86.90100733439131 -10.5  -78.90100733439131 -10.5Z" fill="white" opacity="0"></path><path id="sbsvgPath8447" data-name="topic-shape-fill" fill="#e6e6e6" opacity="1" stroke-width="0" d="M -78.90100733439131 -10.5L 82.90100733439131 -10.5Q 90.90100733439131 -10.5  90.90100733439131 -2.5L 90.90100733439131 6.5Q 90.90100733439131 14.5  82.90100733439131 14.5L -78.90100733439131 14.5Q -86.90100733439131 14.5  -86.90100733439131 6.5L -86.90100733439131 -2.5Q -86.90100733439131 -10.5  -78.90100733439131 -10.5Z"></path><path id="sbsvgPath8448" data-name="topic-shape" fill="none" stroke="#ffffff" stroke-width="8" stroke-linecap="" stroke-dasharray="" d="M -78.90100733439131 -10.5L 82.90100733439131 -10.5Q 90.90100733439131 -10.5  90.90100733439131 -2.5L 90.90100733439131 6.5Q 90.90100733439131 14.5  82.90100733439131 14.5L -78.90100733439131 14.5Q -86.90100733439131 14.5  -86.90100733439131 6.5L -86.90100733439131 -2.5Q -86.90100733439131 -10.5  -78.90100733439131 -10.5Z"></path><g id="sbsvgG8449" data-name="topic-content" transform="translate(-76.90100733439131 -0.5)"><g id="sbsvgG8450" data-name="inner-element-group"><g id="sbsvgG8453" data-name="topic-title-text-group" fill="#333333" text-decoration="none" text-anchor="start" font-size="1" font-family="'Montserrat','NeverMind','Microsoft YaHei','PingFang SC','Microsoft JhengHei',sans-serif" font-weight="400" font-style="normal"><text id="sbsvgText8452" font-family="'Montserrat','NeverMind','Microsoft YaHei','PingFang SC','Microsoft JhengHei',sans-serif" fill="#333333" text-decoration="none" text-anchor="start" font-size="1" font-weight="400" font-style="normal" style="user-select: none; cursor: default;"><tspan id="sbsvgTspan8954" font-family="'Montserrat','NeverMind','Microsoft YaHei','PingFang SC','Microsoft JhengHei',sans-serif" font-size="1" font-weight="400" font-style="normal" text-decoration="none" dy="1" x="0" fill="#333333" text-anchor="start" style="white-space: pre;">‎ </tspan></text></g><g id="sbsvgG8454" data="markers-group" class="MARKERS"></g></g></g></g></g></g><g id="sbsvgG8462" data-name="branch" class="branch" transform="translate(278.20302200317394 235.5)"><g id="sbsvgG8463" data-name="topic" class="topic" data-topic-id="64a56a34-a8ee-4142-892f-28759209ae10"><g id="sbsvgG8464" data-name="topic-shape-group"><path id="sbsvgPath8465" data-name="topic-shape-shallow-fill" d="M -78.90100733439131 -10.5L 82.90100733439131 -10.5Q 90.90100733439131 -10.5  90.90100733439131 -2.5L 90.90100733439131 6.5Q 90.90100733439131 14.5  82.90100733439131 14.5L -78.90100733439131 14.5Q -86.90100733439131 14.5  -86.90100733439131 6.5L -86.90100733439131 -2.5Q -86.90100733439131 -10.5  -78.90100733439131 -10.5Z" fill="white" opacity="0"></path><path id="sbsvgPath8466" data-name="topic-shape-fill" fill="#e6e6e6" opacity="1" stroke-width="0" d="M -78.90100733439131 -10.5L 82.90100733439131 -10.5Q 90.90100733439131 -10.5  90.90100733439131 -2.5L 90.90100733439131 6.5Q 90.90100733439131 14.5  82.90100733439131 14.5L -78.90100733439131 14.5Q -86.90100733439131 14.5  -86.90100733439131 6.5L -86.90100733439131 -2.5Q -86.90100733439131 -10.5  -78.90100733439131 -10.5Z"></path><path id="sbsvgPath8467" data-name="topic-shape" fill="none" stroke="#ffffff" stroke-width="8" stroke-linecap="" stroke-dasharray="" d="M -78.90100733439131 -10.5L 82.90100733439131 -10.5Q 90.90100733439131 -10.5  90.90100733439131 -2.5L 90.90100733439131 6.5Q 90.90100733439131 14.5  82.90100733439131 14.5L -78.90100733439131 14.5Q -86.90100733439131 14.5  -86.90100733439131 6.5L -86.90100733439131 -2.5Q -86.90100733439131 -10.5  -78.90100733439131 -10.5Z"></path><g id="sbsvgG8468" data-name="topic-content" transform="translate(-76.90100733439131 -0.5)"><g id="sbsvgG8469" data-name="inner-element-group"><g id="sbsvgG8472" data-name="topic-title-text-group" fill="#333333" text-decoration="none" text-anchor="start" font-size="1" font-family="'Montserrat','NeverMind','Microsoft YaHei','PingFang SC','Microsoft JhengHei',sans-serif" font-weight="400" font-style="normal"><text id="sbsvgText8471" font-family="'Montserrat','NeverMind','Microsoft YaHei','PingFang SC','Microsoft JhengHei',sans-serif" fill="#333333" text-decoration="none" text-anchor="start" font-size="1" font-weight="400" font-style="normal" style="user-select: none; cursor: default;"><tspan id="sbsvgTspan8955" font-family="'Montserrat','NeverMind','Microsoft YaHei','PingFang SC','Microsoft JhengHei',sans-serif" font-size="1" font-weight="400" font-style="normal" text-decoration="none" dy="1" x="0" fill="#333333" text-anchor="start" style="white-space: pre;">‎ </tspan></text></g><g id="sbsvgG8473" data="markers-group" class="MARKERS"></g></g></g></g></g></g></g><g id="sbsvgG8363" data-name="relationship-container"></g><g id="sbsvgG8367" data-name="cloneG" opacity="0.5"></g></g></g><defs id="sbsvgDefs8354"></defs></svg>